<?xml version="1.0" encoding="utf-8"?>
<!-- Generator: Adobe Illustrator 19.1.0, SVG Export Plug-In . SVG Version: 6.00 Build 0)  -->
<svg version="1.1" id="Isolation_Mode" xmlns="http://www.w3.org/2000/svg" xmlns:xlink="http://www.w3.org/1999/xlink" x="0px"
	 y="0px" viewBox="0 0 674.8 672.6" style="enable-background:new 0 0 674.8 672.6;" xml:space="preserve">
<style type="text/css">
	.st0{fill:#3C3C3B;}
	.st1{fill:#AECA5E;}
	.st2{fill:#D7E5AF;}
	.st3{fill:#EF67AC;}
	.st4{fill:#EE6A71;}
	.st5{fill:#9ABD36;}
	.st6{fill:#362983;}
	.st7{fill:#33B3E2;}
	.st8{fill:#F9E8D8;}
	.st9{fill:#EDEDED;}
	.st10{fill:#FDBB42;}
	.st11{fill:#FFED33;}
	.st12{fill:#FACCE3;}
	.st13{fill:#C6C6C6;}
	.st14{fill:#1D1D1B;}
	.st15{fill:#FFEED0;}
	.st16{fill:#FECC71;}
	.st17{fill:#F0954F;}
	.st18{fill:#FDAA13;}
	.st19{fill:#8942FD;}
	.st20{fill:#99D9F1;}
</style>
<g>
	<g>
		<path class="st0" d="M660.4,190.3c0.9,0.5,0.5,1.8-0.4,2.1c-27.7,7.7-59.9,4.2-83.9-12.2c-5.7,6.8-17.6,6.6-25.9,4.3
			c-10-2.8-18.3-8.9-25.3-16.3c-14-4.9-28.5,8.5-42.6,2c-7.9-3.7-16.4-17.2-26.5-12.6c-5.6,2.5-5.6,10.3-7.4,15.3
			c-1.2,3.3-3.1,6.7-6,8.8c-3.6,2.6-9.3,3.2-12.9,0.2c-2.3-1.9-2.9-4.6-3.1-7.4c-0.5-6-1.4-10.8-8.2-12.2
			c-7.8-1.6-15.4,1.2-23.1-2.2c-5.9-2.6-10.3-7.7-10.7-14.3c-0.3-5.1,1.9-10.3,6.6-12.8c5.6-3,16.6-1.3,18.8-8.8
			c2-6.9-4.7-13.9-4.6-21c0.1-5.9,3.9-11.5,9.7-13.2c6-1.8,11.8,0.7,15.2,5.8c4.2,6.3,6.6,23.3,17.4,20.8c6.4-1.5,9.2-9.3,15.2-11.7
			c5.1-2.1,11.4-0.6,15.2,3.4c4.4,4.5,4.1,10.9,2.9,16.6c-2.1,9.7-5.3,19.5,3.5,27c14.1,11.9,33.2-7.9,47.5,3.8
			c9.4-2.4,18.6-6.3,28.5-4.6c8.7,1.4,17.1,7.5,18.9,15.9C608.5,161.5,635.7,176.3,660.4,190.3z M605.1,190.3
			c16.7,4.4,34.2,4.9,51.6,0.6c-15-8.5-30.9-17-47.7-20.8C612.1,176.9,610.8,185.3,605.1,190.3z M603.5,189.5c5-5.5,6.5-13,2.9-19.6
			c-0.1-0.1-0.1-0.2-0.1-0.3c-8.7-1.6-17.7-1.9-26.8-0.2c0.1,1.5,0,3-0.3,4.6c-0.4,2-1.1,3.7-2,5.1c8.5,4.6,17.3,8.3,26.3,10.8
			C603.3,189.7,603.4,189.6,603.5,189.5z M546,180.3c10.5,4.2,31.7,6.1,30.8-10.7c-0.8-14.9-18.5-17.9-30.1-15.8
			c-4.8,0.9-9.5,2.5-14.2,3.7c0,0,0,0.1-0.1,0.1c5.4,3.8,11.9,4.3,18.1,1.8c0.6-0.2,1,0.6,0.5,0.9c-6.2,3.4-13.9,2.3-19.2-2.1
			c-0.4,0.1-0.8,0.1-1.1-0.2c-2.6,0.6-5.2,1-7.8,1.1c4.2,2.3,8.2,4.9,12.9,6.4c5.5,1.8,11.3,2.6,17.1,2.7c1,0,0.9,1.5-0.1,1.5
			c-10.6,0.3-24.1-2.8-32-10.6c-0.3,0-0.5,0-0.8,0c3.4,4.4,7.2,8.5,11.4,12.2c0.1,0,0.2,0,0.4,0c5.9,3.6,12.7,4.3,19.2,2.1
			c0.5-0.2,0.8,0.7,0.3,0.8c-5.6,2.2-11.4,2-16.7-0.4C538.1,176.4,541.9,178.6,546,180.3z M492.9,169.8c9.9-0.7,20.5-6.8,30.2-3.7
			c-2.2-2.4-4.2-5-6.1-7.6c0,0-0.1,0-0.1,0c-0.4-0.1-0.5-0.5-0.4-0.8c-0.3-1,1.1-2.1,1.8-1.1c0.2,0.3,0.4,0.5,0.6,0.8
			c3.4,0.2,6.7-0.3,9.9-0.9c-8.8-5.7-20.2,0.3-29.6,1.5c-7.1,0.9-13.9-0.9-18.7-6.4c-4.5-5.1-5.4-11.5-4.2-18
			c1.6-8.4,6.9-20.5-3-25.9c-14.1-7.7-19.3,17.8-32.8,9.9c-5.8-3.4-7.6-10.3-10.1-16c-2.1-4.9-5.4-9.6-11.3-9.9
			c-5.6-0.2-10.1,3.7-11.4,9c-2.4,9.6,12.1,24.5-1.8,30.5c-6,2.6-14.2,1.2-17.9,7.6c-5.4,9.3,3.3,18.5,12.1,20.6
			c7.1,1.7,14.8-1.4,21.6,1.6c6.8,3,5.8,8.2,6.9,14.4c1.1,6.2,7.7,8,12.6,4.4c3.6-2.7,5.3-7,6.4-11.2c1.5-5.6,2.8-12.2,9.3-13.7
			c5.6-1.3,11.3,1.7,15.6,5.1C478.7,165.2,484.1,170.4,492.9,169.8z"/>
		<path class="st1" d="M656.8,190.9c-17.4,4.3-34.9,3.8-51.6-0.6c5.7-5,7-13.4,4-20.2C625.9,173.9,641.8,182.4,656.8,190.9z"/>
		<path class="st2" d="M606.3,169.8c3.6,6.7,2.1,14.2-2.9,19.6c-0.1,0.1-0.2,0.2-0.2,0.3c-9-2.5-17.8-6.2-26.3-10.8
			c0.9-1.4,1.6-3.1,2-5.1c0.3-1.6,0.4-3.1,0.3-4.6c9.2-1.7,18.1-1.5,26.8,0.2C606.3,169.6,606.3,169.7,606.3,169.8z"/>
		<path class="st3" d="M576.8,169.6c0.9,16.8-20.3,14.9-30.8,10.7c-4.1-1.7-7.9-3.9-11.4-6.5c5.3,2.4,11.1,2.5,16.7,0.4
			c0.5-0.2,0.2-1-0.3-0.8c-6.5,2.1-13.4,1.5-19.2-2.1c-0.1-0.1-0.2-0.1-0.4,0c-4.2-3.6-8-7.8-11.4-12.2c0.2,0,0.5,0,0.8,0
			c7.9,7.8,21.4,11,32,10.6c1,0,1-1.5,0.1-1.5c-5.8-0.2-11.5-0.9-17.1-2.7c-4.7-1.5-8.7-4.1-12.9-6.4c2.6-0.1,5.2-0.5,7.8-1.1
			c0.4,0.3,0.8,0.3,1.1,0.2c5.3,4.5,13,5.5,19.2,2.1c0.6-0.3,0.1-1.1-0.5-0.9c-6.2,2.5-12.7,2-18.1-1.8c0,0,0.1-0.1,0.1-0.1
			c4.7-1.2,9.4-2.8,14.2-3.7C558.3,151.6,576,154.7,576.8,169.6z"/>
		<path class="st3" d="M523.1,166.1c-9.7-3.1-20.3,3-30.2,3.7c-8.7,0.6-14.1-4.6-20.5-9.7c-4.3-3.4-9.9-6.4-15.6-5.1
			c-6.6,1.5-7.8,8.1-9.3,13.7c-1.1,4.2-2.8,8.5-6.4,11.2c-4.9,3.6-11.4,1.8-12.6-4.4c-1.1-6.1,0-11.4-6.9-14.4
			c-6.8-3-14.5,0.1-21.6-1.6c-8.8-2-17.5-11.3-12.1-20.6c3.7-6.4,12-5.1,17.9-7.6c13.9-6-0.5-20.9,1.8-30.5c1.3-5.3,5.8-9.3,11.4-9
			c5.9,0.2,9.2,4.9,11.3,9.9c2.5,5.7,4.3,12.6,10.1,16c13.5,8,18.7-17.6,32.8-9.9c9.9,5.4,4.6,17.5,3,25.9c-1.2,6.5-0.3,12.8,4.2,18
			c4.8,5.5,11.6,7.3,18.7,6.4c9.4-1.2,20.8-7.3,29.6-1.5c-3.3,0.7-6.6,1.1-9.9,0.9c-0.2-0.3-0.4-0.5-0.6-0.8c-0.7-1-2.1,0-1.8,1.1
			c-0.1,0.3,0,0.7,0.4,0.8c0.1,0,0.1,0,0.1,0C518.8,161.1,520.9,163.7,523.1,166.1z"/>
	</g>
	<g>
		<path class="st0" d="M269,245c8.2,11.1,10.8,25.3,10.3,38.8c-0.5,12.3-2.8,27.1-13.3,35.1c-4.6,3.5-10.3,5.3-16.1,4.1
			c-7.7-1.5-15-7.3-22.4-1.7c-4.3,3.3-7.1,8.2-11.7,11.2c-4.8,3.2-10.4,2.9-15.6,0.9c-23.3-9.1-40.6-37.5-38.8-62.2
			c0.8-11.2,7-23.1,18.6-26.1c9.4-2.5,17.8,2.3,25.8,7.2c0.1-0.1,0.1-0.2,0.2-0.3c0,0-0.1,0-0.1,0l0.1-0.8c0.1,0.1,0.3,0.2,0.4,0.2
			c0.1-0.1,0.1-0.2,0.2-0.3c-0.1-0.4-0.2-0.8-0.3-1.2l1.1-0.2c6.4-11,15.7-20.5,29.3-20.9C249.2,228.3,261.6,235,269,245z
			 M269.3,312.3c7.1-9.7,8.2-24,7.7-35.7c-0.5-12.1-4.1-24.5-12.4-33.6c-7.6-8.3-19.3-13.5-30.6-12.1c-12.7,1.6-20.8,11.8-26.6,22.3
			c2.4,1.5,4.8,3,7.2,4.2c0.7,0.4,0.1,1.4-0.6,1.1c-2.6-1.2-5.2-2.6-7.8-4.1c-0.2,0-0.5-0.2-0.6-0.4c-9.4-5.4-19.5-11-29.8-5
			c-13.7,7.9-13.9,26.2-10.3,39.6c2.9,11,8.8,21.1,16.7,29.3c7.3,7.5,21.9,19.9,32.7,12.6c7-4.7,10.7-14.4,20.4-14.2
			c5.4,0.2,10.1,3.4,15.4,4.4C257.9,322.2,265.1,318.2,269.3,312.3z"/>
		<path class="st4" d="M277.1,276.6c0.5,11.7-0.6,26-7.7,35.7c-4.3,5.9-11.4,9.9-18.8,8.5c-5.2-1-9.9-4.2-15.4-4.4
			c-9.7-0.3-13.4,9.4-20.4,14.2c-10.8,7.3-25.4-5.1-32.7-12.6c-7.9-8.2-13.7-18.3-16.7-29.3c-3.6-13.4-3.4-31.8,10.3-39.6
			c10.3-6,20.4-0.3,29.8,5c0.2,0.2,0.4,0.3,0.6,0.4c2.6,1.5,5.3,3,7.8,4.1c0.7,0.3,1.4-0.7,0.6-1.1c-2.4-1.2-4.8-2.7-7.2-4.2
			c5.8-10.5,13.9-20.7,26.6-22.3c11.3-1.4,23,3.8,30.6,12.1C273,252.1,276.5,264.6,277.1,276.6z M248.9,267.7
			c1.7-1.5,0.1-4.6-1.3-5.8c-1.7-1.6-4.3-2.3-6.4-1.3c-3.8,1.8-4.3,7.8-0.7,10c0.8,0.5,1.8-0.7,1.1-1.4c-1.7-1.6-1.8-5.1,0.5-6.4
			c1.3-0.7,2.9-0.1,3.9,0.9c1.1,1.1,0.8,2.5,1.4,3.7C247.8,268,248.5,268,248.9,267.7z M235.7,283.9c0.3-5-3-9.1-6.3-12.5
			c-1.2-1.2-3,0.6-1.9,1.9c2.3,2.4,4.6,5,5.2,8.4c1,4.8-2.3,8.2-6.8,8.7c-6.2,0.7-11.8-3.7-13.6-9.5c-0.3-0.9-1.5-0.5-1.4,0.4
			c1.3,8.3,10.4,13.9,18.4,11.1C233.1,291,235.5,287.9,235.7,283.9z M200,286.2c0.7,0.9,2.5,0.4,2-0.9c-1.3-3.5-5.4-7.9-9.4-5.3
			c-1.5,1-2.2,2.8-2.3,4.5c-0.1,2.2,1,3.9,2.6,5.4c0.6,0.5,1.5-0.1,1.1-0.8c-1.1-1.7-2.2-5.4-0.2-6.8
			C196.6,280.2,198.8,284.6,200,286.2z"/>
		<path class="st0" d="M247.7,261.9c1.3,1.2,3,4.3,1.3,5.8c-0.4,0.4-1.1,0.4-1.4-0.2c-0.7-1.3-0.3-2.6-1.4-3.7c-1-1-2.6-1.6-3.9-0.9
			c-2.3,1.2-2.2,4.7-0.5,6.4c0.7,0.7-0.2,1.9-1.1,1.4c-3.7-2.2-3.2-8.2,0.7-10C243.4,259.5,246,260.3,247.7,261.9z"/>
		<path class="st0" d="M229.5,271.4c3.3,3.4,6.6,7.5,6.3,12.5c-0.2,4-2.6,7.1-6.4,8.4c-8,2.8-17.1-2.8-18.4-11.1
			c-0.1-0.9,1.1-1.3,1.4-0.4c1.8,5.8,7.4,10.1,13.6,9.5c4.5-0.5,7.8-4,6.8-8.7c-0.7-3.3-3-6-5.2-8.4
			C226.4,272,228.3,270.2,229.5,271.4z"/>
		<path class="st0" d="M212.3,206c0.2,0.1,0.3,0.4,0.2,0.6c-4.9,14.4-6.7,28-5.2,43l-1.1,0.2c-2.9-14.3-1.2-30.6,5.1-43.7
			c-1.1-0.2-2.2-0.7-3.4-0.9c-1.5-0.3-2.9-0.3-4.4-0.2c-1.3,7.7-2.6,15.2-2.3,23.1c0.2,4.4,0.7,8.8,1.6,13.1
			c0.3,1.7,1.1,8.5,3.1,9.9l-0.1,0.8c-4.4-0.5-5.5-14.6-5.8-17.6c-0.4-3.6-0.7-7.3-0.6-11.1c-8,6-19.5,5.8-28.4,1.7
			c-10.7-4.9-18-14.8-22.6-25.3c-0.3-0.6-0.1-1.4,0.6-1.5c10.2-2.7,21-2,30.8,2.1c7,2.9,17,8.9,19.9,16.8c0.4-4.5,1.3-8.9,2.8-13
			c0.2-0.5,0.8-0.5,1-0.2c2.8-0.7,6.7-0.7,8.8,1.3C212.5,205.4,212.5,205.7,212.3,206z M199.5,220.8c-0.5,0.1-1-0.1-1.1-0.7
			c-1.7-9.1-13.8-15.9-21.8-18.7c-8.3-2.9-17.1-3.4-25.7-1.5c4.2,8.5,9.8,16.4,18,21.4c9.6,5.8,20.8,5.9,30.6,0.5c0,0,0,0,0,0
			C199.4,221.5,199.4,221.1,199.5,220.8z"/>
		<path class="st5" d="M207.9,205.2c1.1,0.2,2.2,0.7,3.4,0.9c-6.2,13.1-8,29.4-5.1,43.7c0.1,0.4,0.2,0.8,0.3,1.2
			c0,0.1-0.1,0.2-0.2,0.3c-0.1-0.1-0.3-0.1-0.4-0.2c-2-1.5-2.7-8.2-3.1-9.9c-0.9-4.3-1.4-8.7-1.6-13.1c-0.3-7.9,0.9-15.4,2.3-23.1
			C205,204.9,206.5,204.9,207.9,205.2z"/>
		<path class="st0" d="M202.1,285.3c0.5,1.3-1.3,1.8-2,0.9c-1.3-1.6-3.4-6-6.2-3.9c-2,1.5-0.9,5.1,0.2,6.8c0.4,0.7-0.5,1.3-1.1,0.8
			c-1.6-1.4-2.6-3.1-2.6-5.4c0.1-1.7,0.8-3.5,2.3-4.5C196.6,277.5,200.8,281.8,202.1,285.3z"/>
		<path class="st5" d="M198.3,220.1c0.1,0.7,0.7,0.9,1.1,0.7c0,0.3,0,0.7,0,1c0,0,0,0,0,0c-9.8,5.4-20.9,5.3-30.6-0.5
			c-8.2-5-13.8-13-18-21.4c8.5-2,17.4-1.5,25.7,1.5C184.5,204.2,196.6,210.9,198.3,220.1z"/>
	</g>
	<g>
		<path class="st0" d="M551.4,333.6c-1.9,24.9-31.1,29.6-50.5,32.3c-4.5,0.6-8.9,1.2-13.4,1.9c-2.1,0.3-4.9,1.2-7,0.9
			c-4.3-0.5-5.6-6.9-7.1-10.2c-6.1-13.2-12.9-26.3-18.2-39.9c-3.8-9.6-4.1-19.5,2.2-28.2c5.8-7.9,15.2-12.1,24.9-10.8
			c17.6,2.4,29.2,20.9,24.1,37.3c8-5.7,18-9,27.8-6.3C544.2,313.6,552.2,322.7,551.4,333.6z M507.4,362.2c16.8-2.5,40.8-8.8,41.3-30
			c0.2-9.8-7.8-17.3-16.9-19.3c-10-2.2-20,2.4-27.5,8.8c-0.3,0.6-0.6,1.2-1,1.8c-0.4,0.6-1.4,0.2-1.1-0.5c0.1-0.3,0.2-0.6,0.3-1
			c-0.6-0.4-0.8-1.3-0.1-1.9c0.3-0.3,0.7-0.5,1-0.8c2.5-8.9,2.1-18.6-3.6-26.4c-6.1-8.2-17.3-12.5-27.3-9.8
			c-8.6,2.3-15.5,9.8-17.2,18.5c-2.1,10.5,4.4,20.9,8.7,30.1l13.5,29.2c0.8,1.8,1.5,4.4,3.7,5c0.7,0.2,3.3-0.5,3.8-0.5
			c2.5-0.4,5.1-0.7,7.7-1.1C497.5,363.6,502.5,362.9,507.4,362.2z"/>
		<path class="st4" d="M548.7,332.2c-0.5,21.2-24.5,27.5-41.3,30c-4.9,0.7-9.9,1.4-14.8,2.1c-2.6,0.4-5.1,0.7-7.7,1.1
			c-0.5,0.1-3.1,0.7-3.8,0.5c-2.2-0.7-2.8-3.2-3.7-5l-13.5-29.2c-4.2-9.2-10.7-19.6-8.7-30.1c1.7-8.7,8.6-16.2,17.2-18.5
			c10-2.7,21.2,1.6,27.3,9.8c5.8,7.8,6.1,17.5,3.6,26.4c-0.3,0.3-0.7,0.5-1,0.8c-0.7,0.6-0.4,1.5,0.1,1.9c-0.1,0.3-0.2,0.6-0.3,1
			c-0.2,0.7,0.7,1.1,1.1,0.5c0.4-0.6,0.7-1.2,1-1.8c7.5-6.3,17.5-11,27.5-8.8C540.9,314.9,548.9,322.4,548.7,332.2z M518.4,350.9
			c1.8-0.8,2.4-3.4,2.2-5.1c-0.2-1.9-1.3-3.7-3.1-4.5c-3.4-1.6-7.5,1.1-7.8,4.7c-0.1,0.9,1.3,1.1,1.5,0.3c0.5-2.1,3-3.8,5.1-2.9
			c1.1,0.5,1.8,1.6,1.9,2.8c0.1,1.4-0.6,2.2-1.2,3.3C516.5,350.3,517.4,351.3,518.4,350.9z M502.6,353.5c2.3-1.6,1.7-4.3,3.2-6.4
			c0.6-0.9-0.7-2-1.5-1.2c-0.9,1-1.2,1.9-1.5,3.2c-0.6,2.6-2.3,3.9-4.9,3.2c-4.6-1.2-4.2-7.3-2.9-10.8c0.2-0.5-0.6-0.9-0.9-0.4
			c-2.1,4.1-2.9,10.4,2.3,12.7C498.3,354.7,500.8,354.7,502.6,353.5z M486.4,332.8c3.4-2.1,1.6-7.8-1.7-9c-3.5-1.2-7.1,1.8-6.8,5.3
			c0.1,0.8,1.2,0.6,1.3-0.1c0.3-2,2.8-3.9,4.8-3c0.9,0.4,1.5,1.4,1.7,2.4c0.2,1.2-0.3,2-0.7,3.1
			C484.7,332.3,485.7,333.2,486.4,332.8z"/>
		<path class="st0" d="M520.6,345.8c0.2,1.8-0.3,4.4-2.2,5.1c-1,0.4-1.9-0.6-1.4-1.5c0.6-1.1,1.3-1.9,1.2-3.3
			c-0.1-1.2-0.7-2.3-1.9-2.8c-2.2-0.9-4.7,0.8-5.1,2.9c-0.2,0.9-1.6,0.6-1.5-0.3c0.3-3.6,4.4-6.3,7.8-4.7
			C519.3,342.1,520.3,343.9,520.6,345.8z"/>
		<path class="st0" d="M505.8,347.1c-1.5,2.1-0.8,4.8-3.2,6.4c-1.8,1.2-4.3,1.2-6.2,0.3c-5.2-2.3-4.4-8.6-2.3-12.7
			c0.2-0.5,1-0.1,0.9,0.4c-1.3,3.5-1.7,9.5,2.9,10.8c2.7,0.7,4.4-0.7,4.9-3.2c0.3-1.3,0.5-2.2,1.5-3.2
			C505,345.1,506.4,346.2,505.8,347.1z"/>
		<path class="st0" d="M484.7,323.8c3.3,1.2,5.1,6.9,1.7,9c-0.7,0.4-1.8-0.4-1.4-1.2c0.4-1.1,1-1.9,0.7-3.1c-0.2-1-0.8-2-1.7-2.4
			c-2-0.9-4.5,1-4.8,3c-0.1,0.7-1.2,0.9-1.3,0.1C477.6,325.6,481.2,322.6,484.7,323.8z"/>
	</g>
	<g>
		<path class="st0" d="M624.5,619.2c1.6,0.1,1.6,2.6,0,2.5c-24.1-1.1-48.2-1.6-72.3-1.7c-12.2,0-24.4,0.1-36.7,0.3
			c-11.8,0.3-23.8,1.2-35.7,0.7c-1.1,0-1-1.5,0-1.7c12.1-1.5,24.5-1.3,36.6-1.5c11.9-0.2,23.8-0.3,35.7-0.3
			C576.3,617.7,600.4,618.2,624.5,619.2z"/>
		<path class="st0" d="M474.2,544.3c9,6.8,12,18.4,10.7,29.2c-1,8.4-4.3,22.4-14.1,24.7c-0.1,0-0.2,0-0.3,0c-0.4,3.9-1,7.8-1.8,11.7
			c-0.1,0.4-0.5,0.5-0.8,0.4c-0.6,0.5-1.4,0.8-2.2,0.9c-0.4,10.2-1.7,20.6-2.5,30.8c0.4,0.5,0.3,1.3-0.5,1.6
			c-11.8,4.7-24.7,7.6-37,10.9c-6.2,1.7-12.4,3.3-18.7,4.8c-5.5,1.3-11.3,3.1-17,3.5l-0.1-1.2c5.8-2.3,12.3-3.4,18.3-4.9
			c5.9-1.5,11.8-3,17.7-4.6c11.9-3.2,23.6-7.5,35.6-10.3c-0.7-10-0.2-21.2,2.5-30.9c-0.1,0-0.1,0-0.2-0.1c-1.9-1-2-3.3-1.5-5.6
			c-1.5,1.2-3.5,1.7-5.4,0.5c-3.5-2.1-1.1-5.1,1.7-7.4c-3.8,0.7-7.6,0.6-7.2-2.8c0.3-2.9,2.8-4.1,5.4-4.4c-2-1.2-3.3-3.1-2.7-5.6
			c0.7-3,3.7-3.6,6.4-3c-1.3-2.8-1.1-6.3,1.6-8.2c2.6-1.8,6.5-0.2,6.4,2.9c0.1,0,0.1,0,0.2,0.1c0.1,0.1,0.2,0.2,0.3,0.2
			c0-15,0.5-30.9,3.7-45.7c-1.1,0.3-2.4,0.3-3.6,0.5c-3.3,0.5-6.6,0.9-10,1.4c-7.1,1-14.2,1.9-21.4,2.7c-14.3,1.7-29.2,4.3-43.7,4.3
			c0.1,0.2,0.1,0.5-0.1,0.8c-1.1,2.1-2.5,3.7-4.2,5.1c-5.1,4-12.5,5.1-18.7,4.8c-7.2-0.4-16.6-2.8-19.3-10.3
			c-15.1-0.3-30.3-1.2-45.4-2.2c-14.9-1-30-1.1-44.8-2.9l0.1-1.1c14.9,0.3,29.8,1.9,44.7,2.5c15.3,0.6,30.7,1,46,1.8
			c0.9,0,1.1,1.1,0.7,1.6c7.3,11.7,32.8,12.3,39.2-0.3c0-0.1,0.1-0.1,0.2-0.2c0-0.2,0.1-0.5,0.3-0.5c6.4-1.3,12.9-2.1,19.5-2.7
			c6.5-0.6,13.1-1.2,19.6-1.9c6.8-0.8,13.6-1.6,20.4-2.5c2.5-0.3,21-1.5,21.2-3.4c0-0.1,0-0.2,0.1-0.3h1.3c0,0,0,0.1,0.1,0.1
			c0.1,0.2,0.2,0.4,0.2,0.7c0.1,0.3,0,0.6-0.2,0.9c-0.2,0.2-0.3,0.3-0.5,0.4c-0.4,4.4-0.8,8.8-1.2,13.2
			C473.7,544.1,474,544.1,474.2,544.3z M483.1,570.7c0.6-9.6-2.5-18.4-9.8-24.8c-0.3,2.8-0.6,5.6-0.9,8.5c0,0,0,0,0,0
			c8.2,8.5,11.3,26.7-0.6,34c-0.3,0.2-0.7-0.2-0.6-0.5c0,0,0-0.1,0-0.1c3-5.1,6.1-9.2,6.4-15.5c0.3-5.7-1.9-11.1-5.6-15.3
			c-0.7,6.8-1.3,13.7-1.7,20.6c0,0.4-0.3,0.6-0.6,0.6c1.7,2.3,1.4,6.7,1.2,9.7c0,0.6-0.1,1.2-0.1,1.6c0,2.4-0.1,4.7-0.3,7
			C479.7,593.2,482.5,579.3,483.1,570.7z M469,594.2c0.1-2.8,1.6-13.7-1-15.5c0,0-0.1-0.1-0.1-0.1c-0.2,0-0.3-0.2-0.3-0.4
			c0.1-1.5-1.3-2.9-2.8-2.8c-1.3,0.1-2.3,1.2-2.7,2.4c-0.8,2.3,0.3,4.1,1.3,6c0,0,0,0,0.1,0c0.2,0.1,0.3,0.3,0.2,0.5
			c0,0.1,0.1,0.2,0.1,0.3c0.4,0.7-0.5,1.4-1.1,0.9c-0.5-0.4-0.9-0.9-1.2-1.4c-2.1-0.6-5-0.5-5.5,1.9c-0.4,2.1,1.5,3.7,3.2,4.3
			c1.5,0.6,3.2,0.4,4.8,0.8c0.7,0.2,0.7,1.3,0,1.4c-1.3,0.2-3,0.1-4.6-0.4c-2.4,0.2-5.4,0.7-5.8,2.7c-0.7,3.1,4.6,1.8,6,1.5
			c0.9-0.2,1.9-0.4,2.8-0.7c0.2-0.1,0.4-0.3,0.6-0.4c0.2-0.1,0.3,0,0.4,0.1c0.5-0.1,1-0.3,1.5-0.4c0.7-0.2,1.1,0.8,0.5,1.2
			c-0.6,0.4-2,0.9-3.7,1.4c-0.8,0.8-1.7,1.6-2.5,2.4c-1.2,1.1-3.4,3.2-1,4.4c3.7,1.8,4.6-3.2,6.1-5.2c0.3-0.4,1.1-0.3,1.1,0.3
			c0,1.1-0.4,2.2-0.9,3.2c-0.3,1.4-0.5,2.9-0.5,4.3c0,1.3,0.5,2.6,2,2.3c0.9-0.2,1.4-0.9,1.6-1.8c0-0.2,0.1-0.3,0.2-0.4
			C468.4,602.9,468.8,598.5,469,594.2z"/>
		<path class="st6" d="M473.3,546c7.3,6.4,10.4,15.2,9.8,24.8c-0.5,8.5-3.3,22.4-12.4,25.9c0.2-2.3,0.3-4.7,0.3-7c0-0.5,0-1,0.1-1.6
			l0.2,0c-0.1,0.3,0.3,0.7,0.6,0.5c11.8-7.3,8.8-25.5,0.6-34c0,0,0,0,0,0C472.7,551.6,473,548.8,473.3,546z"/>
		<path class="st0" d="M474,525.8c1,0.6,1.9,1.5,1.8,2.6c0,0.4-0.4,0.7-0.7,0.7h-1.3c0.1-0.3,0.4-0.4,0.7-0.4
			c-0.2-0.2-0.3-0.4-0.4-0.7c-0.1-0.3-0.3-0.6-0.5-0.8c-0.3-0.3-0.6-0.6-0.9-0.7c-13.4,2.6-26.9,4.6-40.4,6.3
			c-6.6,0.8-13.3,1.6-20,2.3c-7.7,0.7-15.4,1.2-23.1,1.1c0,0-0.1,0-0.1,0c-0.7-0.1-0.6-1.2,0.1-1.3c13.7-1.7,27.5-2.3,41.2-3.9
			c12.1-1.5,24.1-3.4,36.2-5.5c-0.1-0.1-0.2-0.2-0.3-0.4c-1.3-2.5-2.6-5-3.9-7.4c-1.4-2.7-1.6-5.3-5.4-3.4
			c-3.6,1.8-6.6,4.6-10.4,6.1c-7.8,3-16,2.3-24,1c-0.6-0.1-1.3-0.2-1.9-0.3c-10.8-1.9-21.6-3.5-32.1,0.7c-8.2,3.3-14,9.5-16.9,17.6
			c0.3,1.2,0.6,2.5,0.8,3.7c0,0.1,0,0.2,0,0.3c0.4,0,0.8,0,1.1,0c0.5,0,1,0,1.5,0c2.5,0.1,5.3,0.2,7.7-0.5v0c2.8-0.7,5-2.4,5.5-6
			c0.1-0.5,0.5-0.7,0.9-0.7c0.5,0,1,0.4,1,0.9c-0.5,9.2-11.6,8.4-18.2,8.1c-1.7-0.1-3.8-0.2-6-0.5c-0.3,0.1-0.6,0-0.8-0.1
			c-4.5-0.8-8.8-2.8-8.5-7.5c-0.2,0.1-0.3,0.2-0.6,0.2c-1.1-0.1-2.1-0.2-3.2-0.2c-29.4-2.2-59-3.4-88.4-5.7
			c-0.3,0.6-0.8,1.3-1.1,1.8c-0.4,0.6-0.9,1.3-1.4,1.9l-0.1,1.1c-0.1,0-0.2,0-0.3,0c0,0,0,0,0.1,0.1l-1.3,0.1
			c-0.3-0.1-0.5-0.5-0.3-0.9c0.6-1,1.1-2.1,1.7-3.1c0.4-0.7,0.8-1.5,1.4-2.1c0.1-0.3,0.3-0.6,0.8-0.6c0.6,0,1.3,0,1.9,0.1
			c0.5-2.4,2.2-4.7,3.5-6.7c1.4-2.2,2.7-4.8,4.6-6.5c0.3-0.3,0.6-0.3,0.9-0.2c0.2-0.1,0.4-0.1,0.6,0c12.5,8.8,25.4,4.4,38.3-0.3
			c-6.6-6.9-10.3-15.9-12.8-25.1c-3.2-11.6-5.5-24.3-4.8-36.4l0.8-0.1c2.2,20.7,3.5,45,18.8,60.9c7.7-2.8,15.5-5.5,23.2-5.3
			c15.4,0.4,27.2,12.2,31.9,26.2c5.1-16.4,26.8-21,42.3-18.8c3.1,0.4,6.1,0.9,9.1,1.4l1.4,0.2c9.7,1.4,19,1.8,28.2-3.9
			c2.4-1.5,5.8-6.1,8.9-4.6c1.8,0.9,2.5,3.5,3.4,5.2c1.4,2.8,2.8,5.5,4.2,8.3c0.2,0.5,0.1,0.9-0.1,1.2c1.6-0.3,3.3-0.6,4.9-0.9
			C473.9,523.9,474.4,525.1,474,525.8z M370.1,543.2c0-0.1-0.1-0.3-0.1-0.4c-0.3,0-0.5-0.2-0.5-0.5c0-0.4,0.1-0.9,0.1-1.3
			c-2-8.9-6.8-17.2-14.1-22.8c-9.2-7-20.1-7.1-30.8-3.8c-14.8,4.5-35.8,16.1-49.6,3.1c-1.1,2.4-3,4.6-4.4,6.8
			c-1.2,1.7-2.2,3.8-3.7,5.3c29.6,0.9,59.4,3.3,88.9,5.5c0.4,0,0.6,0.2,0.8,0.4c0.1-0.2,0.2-0.3,0.4-0.4c-6.7-8.9-17.8-11.4-29.8-9
			c-0.5,0.1-0.7-0.7-0.2-0.8c12.8-3.8,33,0,35.3,16.1c0,0.2,0,0.4-0.1,0.6c0.7,0.3,1.4,0.5,2.2,0.6c-2-9.8-8-19.4-17.3-23.8
			c-11.1-5.2-25.7,1.6-36.5,4.7c-0.3,0.1-0.5-0.4-0.2-0.5c6.6-2.9,13.7-5.1,20.8-6.6c5.7-1.2,11.4-1.6,16.8,0.8
			c10.3,4.5,17.1,14.9,18.8,25.8C367.8,543.1,369,543.1,370.1,543.2z M360.5,541.1c-0.7-1.7-1.6-3.3-2.5-4.8
			C358.1,538.6,359.1,540.1,360.5,541.1z"/>
		<path class="st7" d="M474.5,528.6c-0.3,0-0.6,0.1-0.7,0.4c0,0.1-0.1,0.2-0.1,0.3c-0.2,2-18.7,3.1-21.2,3.4
			c-6.8,0.8-13.6,1.6-20.4,2.5c-6.5,0.8-13.1,1.3-19.6,1.9l-0.2-2.3c6.7-0.6,13.4-1.5,20-2.3c13.5-1.6,27-3.6,40.4-6.3
			c0.3,0.2,0.6,0.4,0.9,0.7c0.2,0.3,0.4,0.5,0.5,0.8C474.2,528.2,474.3,528.4,474.5,528.6z"/>
		<path class="st7" d="M469.3,532.4c1.2-0.2,2.5-0.2,3.6-0.5c-3.2,14.7-3.8,30.7-3.7,45.7c-0.1-0.1-0.2-0.2-0.3-0.2
			c-0.1,0-0.1,0-0.2-0.1c0.1-3.1-3.8-4.7-6.4-2.9c-2.7,1.9-2.9,5.4-1.6,8.2c-2.6-0.6-5.6,0-6.4,3c-0.6,2.5,0.7,4.4,2.7,5.6
			c-2.7,0.3-5.1,1.5-5.4,4.4c-0.3,3.3,3.5,3.5,7.2,2.8c-2.8,2.3-5.1,5.3-1.7,7.4c1.9,1.1,3.8,0.7,5.4-0.5c-0.5,2.3-0.4,4.6,1.5,5.6
			c0.1,0,0.1,0,0.2,0.1c-2.8,9.7-3.2,20.9-2.5,30.9c-12,2.9-23.7,7.1-35.6,10.3c-5.9,1.6-11.8,3.1-17.7,4.6
			c-6.1,1.5-12.5,2.6-18.3,4.9c1.6-5,1.5-10.5,1.5-15.7c0-10,0-20,0-30c0-22.6,0.3-45.3,0.2-68c0-0.8-0.8-1.1-1.3-0.9l-0.4-0.5
			c1.7-1.4,3.2-3,4.2-5.1c0.1-0.3,0.1-0.5,0.1-0.8c14.5,0,29.3-2.6,43.7-4.3c7.1-0.8,14.3-1.8,21.4-2.7
			C462.6,533.3,466,532.8,469.3,532.4z"/>
		<path class="st8" d="M468.1,578.7c2.5,1.8,1.1,12.7,1,15.5c-0.2,4.3-0.6,8.7-1.2,13c-0.1,0.1-0.2,0.2-0.2,0.4
			c-0.2,0.9-0.7,1.5-1.6,1.8c-1.5,0.4-2-1-2-2.3c0-1.4,0.3-2.8,0.5-4.3c0.5-1,0.9-2.1,0.9-3.2c0-0.6-0.7-0.7-1.1-0.3
			c-1.5,2-2.4,7-6.1,5.2c-2.4-1.2-0.2-3.3,1-4.4c0.9-0.8,1.7-1.6,2.5-2.4c1.7-0.5,3.1-1.1,3.7-1.4c0.6-0.4,0.2-1.4-0.5-1.2
			c-0.5,0.1-1,0.3-1.5,0.4c-0.1-0.1-0.3-0.2-0.4-0.1c-0.2,0.1-0.4,0.2-0.6,0.4c-0.9,0.3-1.8,0.5-2.8,0.7c-1.4,0.3-6.8,1.6-6-1.5
			c0.4-1.9,3.4-2.5,5.8-2.7c1.6,0.5,3.2,0.6,4.6,0.4c0.7-0.1,0.7-1.2,0-1.4c-1.6-0.4-3.2-0.3-4.8-0.8c-1.7-0.6-3.7-2.3-3.2-4.3
			c0.5-2.4,3.4-2.5,5.5-1.9c0.4,0.5,0.8,1,1.2,1.4c0.6,0.5,1.5-0.1,1.1-0.9c0-0.1-0.1-0.2-0.1-0.3c0-0.2,0-0.4-0.2-0.5
			c0,0,0,0-0.1,0c-1-1.9-2.2-3.7-1.3-6c0.4-1.1,1.5-2.3,2.7-2.4c1.5-0.1,2.9,1.3,2.8,2.8c0,0.2,0.1,0.4,0.3,0.4
			C468,578.7,468,578.7,468.1,578.7z"/>
		<path class="st9" d="M466.2,524.9c0.1,0.2,0.2,0.3,0.3,0.4c-12,2.1-24,4-36.2,5.5c-13.7,1.6-27.5,2.2-41.2,3.9
			c-0.8,0.1-0.8,1.1-0.1,1.3l0,0.1c-0.4,0-0.8,0.2-0.9,0.7c-0.5,3.6-2.7,5.3-5.5,6l0-0.1c0.2-0.1,0.3-0.3,0.2-0.5
			c-2.6-4,0-8.8,3.9-10.7c3.1-1.6,6.8-1.7,10.3-1.8c6.4-0.3,12.7-0.3,19.1-0.7c1.2-0.1,1.3-1.9,0-1.9l0-2.4c2.2,0,4.3-0.3,6.3-1.1
			c0.8-0.3,0.7-1.4,0-1.5l0.1-0.9c8.1,1.3,16.2,2,24-1c3.9-1.5,6.8-4.3,10.4-6.1c3.8-1.9,4,0.7,5.4,3.4
			C463.6,519.9,464.9,522.4,466.2,524.9z"/>
		<path class="st0" d="M451,435.4c1.3,8.9-9.1,14.6-16.8,13.5l0-1.3c6.1,0,14.8-3.7,14.7-11c-0.2-9.1-11.2-8.7-17.1-6.3
			c-0.1,0-0.1,0-0.2,0c0.4,2.1,0.8,4.3,1.1,6.4c0.1,0.7-0.3,1.2-1,1.3c-9.4,0.5-18.4-1.6-26.5-6.3c1.2,2.5,2.9,4.6,5.1,6.4
			c0.6,0.5,0.1,1.7-0.7,1.7c-16.9-1.4-32.7-7.7-45.9-18.2c1,3.3,2.9,6,5.9,8.4c0.8,0.6-0.1,2-1,1.7c-18.4-7.3-36.7-20.6-46.5-38.2
			c-0.6,8.6-2.3,17.1-5.4,25.2c-2.7,7.1-6,14.7-12.3,19.2c-0.6,0.4-1.4-0.1-1.4-0.8c0-1.4-0.1-2.7-0.5-3.9c-0.4,2.8-1.4,5.4-3.2,7.9
			c-0.3,0.5-1.2,0.6-1.5,0c-1-2.2-1.4-4-1.5-6.4l0.2-1.3c0.4-0.3,1.1-0.1,1.1,0.5c0,1.7,0.4,3.3,1,4.9c1.8-3.1,2.5-6.4,2.1-10
			c-0.1-0.9,1.2-1.1,1.6-0.4c1.3,2.2,2,4.4,2.3,6.9c5.8-5,8.9-13.5,11.2-20.4c2.6-7.6,4-15.5,4.4-23.6c0.1-1.2,1.8-1.2,1.8,0
			c0,0,0,0,0,0c6,8.1,12.1,15.8,19.8,22.4c6.8,5.8,14.4,10.5,22.5,14.3c-1.8-2.4-3-5.2-3.5-8.4c-0.1-1,0.9-1.6,1.6-0.9
			c12.5,10.7,27.8,17.3,44.1,19.3c-2.1-2.3-3.6-4.9-4.7-8c-0.3-0.8,0.8-1.6,1.5-1.1c8.1,5.4,17.2,7.9,26.8,7.6
			c-0.4-2-0.8-4.1-1.1-6.1c-0.2-1,1-1.5,1.6-1.1c0,0,0.1-0.1,0.1-0.1c0.7-0.4,1.5-0.7,2.3-1c-0.1-29-16.7-56.9-42.9-69.6
			c-13.3-6.4-28.5-8.9-43.1-7.2c-13.4,1.6-29.6,6.4-36.2,19.2l-1.2-0.6c4.3-13.4,21.6-18.5,34-20.4c14.8-2.3,30.3-0.5,44.1,5.4
			c28.8,12.2,47.4,41.5,47.5,72.5C442.3,425.5,449.9,427.6,451,435.4z"/>
		<path class="st8" d="M449,436.5c0.2,7.3-8.5,11-14.7,11c-0.1,0-0.3,0-0.4,0c-0.1,0-0.2,0-0.3,0.1c-0.5-0.1-1.1,0.2-1.1,0.8
			c0.8,12.5,1.3,24.4-0.7,36.9c-1.9,11.5-5.5,22.6-9.8,33.4c-3-0.5-6-1-9.1-1.4c-15.5-2.2-37.3,2.4-42.3,18.8
			c-4.7-13.9-16.5-25.8-31.9-26.2c-7.7-0.2-15.4,2.5-23.2,5.3c-15.2-15.9-16.5-40.2-18.8-60.9c0-0.2,0-0.3-0.1-0.5
			c0.2-0.2,0.4-0.4,0.6-0.6c0.5-0.5-0.1-1.3-0.7-1c-6.5,3.8-13-1.8-13.6-8.4c-0.7-7.9,6.6-9.1,12.8-9.1c0.3,0,0.4-0.1,0.6-0.2
			c0,2.3,0.5,4.2,1.5,6.4c0.3,0.6,1.2,0.5,1.5,0c1.8-2.5,2.8-5.1,3.2-7.9c0.3,1.2,0.5,2.5,0.5,3.9c0,0.7,0.8,1.3,1.4,0.8
			c6.4-4.5,9.6-12.1,12.3-19.2c3.1-8.1,4.8-16.5,5.4-25.2c9.8,17.6,28.1,31,46.5,38.2c0.9,0.4,1.8-1.1,1-1.7c-3-2.3-4.9-5-5.9-8.4
			c13.2,10.5,29.1,16.8,45.9,18.2c0.8,0.1,1.3-1.1,0.7-1.7c-2.2-1.9-3.9-4-5.1-6.4c8,4.7,17.1,6.8,26.5,6.3c0.7,0,1.1-0.6,1-1.3
			c-0.4-2.1-0.8-4.3-1.1-6.4c0.1,0,0.1,0,0.2,0C437.8,427.7,448.8,427.4,449,436.5z M438.3,442.6c3.7,1.4,6.4-3.6,5.5-6.6
			c-1.2-4-6.1-4.9-9.6-3.9c-0.6,0.2-0.5,1.2,0.1,1.1c2.4-0.3,5.7,0.1,7.1,2.3c1.4,2.2-0.3,5.1-2.9,5
			C437.3,440.5,437.3,442.2,438.3,442.6z M406.6,495.7c0.8-0.9-0.5-2.2-1.3-1.3c-8.6,9.7-21.6,12.5-34.1,12.4
			c-13.7-0.1-26.5-3.7-37-12.8c-0.7-0.6-1.8,0.4-1.1,1.1c9.7,10.1,24.5,13.4,38,13.5C383.9,508.7,398,505.9,406.6,495.7z
			 M405.9,466.1c2.4-4.4-1.4-10.6-6.5-10.2c-4.7,0.3-8.3,6.7-4.9,10.4c0.5,0.5,1.4,0,1.2-0.7c-0.8-2.8,0.5-7.1,4-7.2
			c3.5-0.2,5.1,4,4,6.8C403.1,466.4,405.2,467.3,405.9,466.1z M376.5,485.1c0.1-0.9-0.8-1.5-1.5-0.9c-1,0.9-1.6,1.8-3.1,1.9
			c-1.2,0.1-2.5-0.2-3.3-1.1c-2-2.3,0.6-6.1,3.3-6.4c0.5-0.1,0.7-0.8,0.1-0.9c-2.1-0.4-3.9,0.3-5.1,2.2c-1.2,1.8-1.4,4.3-0.1,6.2
			c1.1,1.6,3.2,2.4,5.2,2.2C373.7,488.1,376.1,487.1,376.5,485.1z M348.1,465.5c1.5-2,0.1-5.4-1.4-7.1c-1.6-1.9-4-3-6.5-2.7
			c-5,0.7-7.7,6.5-5.3,10.8c0.4,0.7,1.6,0.2,1.4-0.6c-1.1-3,0.6-7.2,4-7.8c1.9-0.3,3.8,0.8,4.8,2.3c1.1,1.6,0.7,3.1,1,4.8
			C346.3,466.2,347.6,466.1,348.1,465.5z M295.1,440c0.6-0.1,1.1-0.8,0.6-1.3c-2.8-2.7-7.7,0.8-8.5,3.8c-1,4.2,2.9,7.7,6.9,6.8
			c0.6-0.1,0.4-1-0.1-1c-2.6-0.1-5.4-3-4.5-5.7c0.4-1.1,1.5-2,2.6-2.4C293.2,439.9,294.1,440.1,295.1,440z"/>
		<path class="st0" d="M443.8,435.9c0.9,3.1-1.8,8-5.5,6.6c-1-0.4-1-2.1,0.3-2c2.6,0.1,4.3-2.8,2.9-5c-1.5-2.3-4.7-2.6-7.1-2.3
			c-0.7,0.1-0.8-1-0.1-1.1C437.7,431.1,442.6,431.9,443.8,435.9z"/>
		<path class="st0" d="M434.3,448.8c4.2,22.8-0.4,49.4-10.8,69.9l-1.4-0.2c4.3-10.8,7.9-21.9,9.8-33.4c2-12.4,1.5-24.4,0.7-36.9
			c0-0.6,0.6-0.9,1.1-0.8c0.1,0,0.2-0.1,0.3-0.1c0.1,0,0.3,0,0.4,0L434.3,448.8z"/>
		<path class="st10" d="M433.5,427.5c-0.8,0.3-1.6,0.6-2.3,1c0,0-0.1,0.1-0.1,0.1c-0.6-0.4-1.8,0.1-1.6,1.1c0.4,2,0.8,4.1,1.1,6.1
			c-9.6,0.3-18.7-2.2-26.8-7.6c-0.7-0.5-1.7,0.3-1.5,1.1c1,3.1,2.5,5.7,4.7,8c-16.3-1.9-31.6-8.5-44.1-19.3c-0.8-0.7-1.8,0-1.6,0.9
			c0.5,3.2,1.6,6,3.5,8.4c-8.1-3.7-15.7-8.5-22.5-14.3c-7.7-6.6-13.8-14.3-19.8-22.4c0,0,0,0,0,0c0-1.1-1.8-1.1-1.8,0
			c-0.4,8-1.8,15.9-4.4,23.6c-2.3,6.9-5.5,15.4-11.2,20.4c-0.3-2.5-1-4.6-2.3-6.9c-0.4-0.7-1.7-0.4-1.6,0.4c0.4,3.7-0.3,7-2.1,10
			c-0.6-1.6-0.9-3.2-1-4.9c0-0.7-0.8-0.8-1.1-0.5c-0.1-0.3-0.4-0.5-0.8-0.5c-2.4,0-4.9,0.2-7.1,0.8c-1.8-11.8-0.7-22.9,2.1-34.5
			c1.2-5.1,2.7-10.1,5-14.8c2.4-5.1,7.5-14.6,14.4-12.7c1,0.3,1.5-0.8,1.1-1.5c6.6-12.9,22.8-17.7,36.2-19.2
			c14.6-1.7,29.8,0.8,43.1,7.2C416.8,370.7,433.5,398.6,433.5,427.5z"/>
		<path class="st0" d="M422.3,522c0.7,0.1,0.8,1.2,0,1.5c-2,0.8-4.2,1.1-6.3,1.1c-5.4,0-11-1.6-16.2-1.1c-9.3,0.8-27,6.4-24.3,18.9
			c0.1,0.4-0.2,0.7-0.5,0.7c-0.2,0-0.4-0.1-0.5-0.4c-2.6-9.2,5.7-15.1,13.2-18.1c5.2-2.1,10.9-3.2,16.6-3c6,0.2,11.7,2.1,17.7,0.6
			C422.1,522,422.2,522,422.3,522z"/>
		<path class="st9" d="M422.4,521.1l-0.1,0.9c-0.1,0-0.3,0-0.4,0c-6,1.5-11.7-0.4-17.7-0.6c-5.6-0.2-11.3,0.9-16.6,3
			c-7.5,3-15.8,9-13.2,18.1c0.1,0.3,0.3,0.4,0.5,0.4l0,0.2c-0.5,0-1,0-1.5,0c-0.4,0-0.8,0-1.1,0c0-0.1,0-0.2,0-0.3
			c-0.2-1.2-0.5-2.5-0.8-3.7c2.8-8.1,8.7-14.4,16.9-17.6c10.5-4.2,21.3-2.5,32.1-0.7C421.2,520.9,421.8,521,422.4,521.1z"/>
		<path class="st0" d="M416,527c1.2,0,1.2,1.8,0,1.9c-6.4,0.4-12.7,0.4-19.1,0.7c-3.4,0.1-7.1,0.2-10.3,1.8
			c-3.8,1.9-6.4,6.7-3.9,10.7c0.1,0.2,0,0.4-0.2,0.5c-0.1,0-0.3,0-0.4-0.1c-3.7-5-0.1-11,5.1-13c3.6-1.5,7.7-1.5,11.6-1.7
			C404.5,527.5,410.3,527.1,416,527C416,527,416,527,416,527z"/>
		<path class="st9" d="M416,524.6l0,2.4c0,0,0,0,0,0c-5.7,0.1-11.5,0.5-17.2,0.8c-3.8,0.2-7.9,0.2-11.6,1.7c-5.2,2.1-8.8,8-5.1,13
			c0.1,0.2,0.3,0.2,0.4,0.1l0,0.1v0c-2.4,0.6-5.2,0.5-7.7,0.5l0-0.2c0.3,0,0.6-0.3,0.5-0.7c-2.7-12.5,15-18.1,24.3-18.9
			C405,523,410.6,524.6,416,524.6z"/>
		<path class="st7" d="M412.3,534.9l0.2,2.3c-6.6,0.6-13.1,1.4-19.5,2.7c-0.3,0-0.4,0.3-0.3,0.5c-0.1,0.1-0.1,0.1-0.2,0.2
			c-6.5,12.6-32,12-39.2,0.3c0.4-0.5,0.2-1.5-0.7-1.6l0.2-2.3c1.1,0.1,2.1,0.1,3.2,0.2c0.2,0,0.4,0,0.6-0.2c-0.2,4.8,4,6.7,8.5,7.5
			c0.2,0.2,0.5,0.2,0.8,0.1c2.1,0.3,4.3,0.4,6,0.5c6.6,0.2,17.8,1.1,18.2-8.1c0-0.6-0.5-0.9-1-0.9l0-0.1c0.1,0,0.1,0,0.1,0
			C396.9,536.1,404.6,535.6,412.3,534.9z"/>
		<path class="st0" d="M405.3,494.4c0.8-0.9,2.1,0.4,1.3,1.3c-8.6,10.2-22.7,13-35.4,12.9c-13.5-0.1-28.4-3.4-38-13.5
			c-0.7-0.7,0.3-1.7,1.1-1.1c10.4,9.1,23.3,12.7,37,12.8C383.7,506.8,396.7,504.1,405.3,494.4z"/>
		<path class="st0" d="M399.4,455.8c5.1-0.3,8.9,5.8,6.5,10.2c-0.7,1.2-2.8,0.4-2.3-1c1.1-2.8-0.5-6.9-4-6.8c-3.5,0.1-4.7,4.4-4,7.2
			c0.2,0.7-0.7,1.2-1.2,0.7C391.1,462.5,394.7,456.2,399.4,455.8z"/>
		<path class="st0" d="M391.7,548c0.1,22.6-0.1,45.3-0.2,68c0,10,0,20,0,30c0,5.2,0.1,10.7-1.5,15.7l0.1,1.2c-0.1,0-0.1,0-0.2,0
			c-0.1,0-0.2,0-0.3-0.1c-0.5,1.3-1.1,2.6-2,3.8c-7.6,11.1-21.3,5.2-25.8-5.4c0-0.1-0.1-0.2-0.1-0.3c-6.9-0.2-13.9-1.7-20.8-2.5
			c-6.4-0.7-12.8-1.3-19.2-1.6c-13.3-0.8-26.6-0.4-40-0.7l0-1.2c13.5-1.3,27.4-0.8,40.9,0c6.7,0.4,13.5,0.9,20.2,1.6
			c5.9,0.7,12.3,1,18.1,2.6c-2.3-6.6-2.4-14.2-3-21c-0.9-9.9-1.8-19.8-2.5-29.7c-0.7-9.9-1.4-19.8-2-29.7
			c-0.6-9.8-1.7-19.9-1.1-29.8c0-0.5,0.8-0.6,0.9-0.1c1.3,8.9,1.3,18,1.9,26.9c0.6,9.6,1.3,19.2,2,28.8c0.7,8.3,1.3,16.5,2.1,24.8
			c0.7,8.3,1.1,16.8,2.7,25c1.6,8,7.7,19.1,17.7,16.3c9.1-2.5,9.9-13.9,10-21.6c0.4-33.6,0.1-67.2,0.4-100.8c0-0.5,0.3-0.8,0.6-0.9
			C391,546.9,391.7,547.2,391.7,548z"/>
		<path class="st7" d="M390,546.6l0.4,0.5c-0.3,0.1-0.6,0.4-0.6,0.9c-0.3,33.6,0,67.2-0.4,100.8c-0.1,7.7-0.8,19.1-10,21.6
			c-10,2.8-16.1-8.4-17.7-16.3c-1.6-8.2-1.9-16.7-2.7-25c-0.8-8.3-1.4-16.5-2.1-24.8c-0.8-9.6-1.4-19.2-2-28.8
			c-0.5-8.9-0.5-18-1.9-26.9c-0.1-0.5-0.8-0.3-0.9,0.1c-0.6,9.8,0.6,19.9,1.1,29.8c0.6,9.9,1.2,19.8,2,29.7
			c0.7,9.9,1.6,19.8,2.5,29.7c0.6,6.9,0.8,14.4,3,21c-5.8-1.5-12.2-1.9-18.1-2.6c-6.7-0.7-13.4-1.2-20.2-1.6
			c-13.5-0.8-27.4-1.3-40.9,0c-0.7-5.1-2.1-10.1-2.9-15.2c-1-6.2-1.4-12.5-2-18.8c0-0.1,0-0.2-0.1-0.3c0,0,0,0,0,0
			c0.4-0.4,0.1-1-0.3-1.1c0.4-1.4,0.6-3,0.3-4.4c2.5,2.3,6.1,3.4,8.5,0.5c1.5-1.8,1-4.3-0.3-6c-1-1.3-2.4-2.1-3.9-2.8
			c2.1,0.1,4.4,0,6.2-0.2c1.9-0.2,3.8-1,4.2-3.1c0.4-2-1.2-3.7-2.9-4.5c-0.8-0.4-1.7-0.5-2.5-0.6c3.3-1.5,5.8-3.8,4.3-6.8
			c-2.3-4.8-9.4-3-14-0.5c1.5-2.2,2.8-4.6,2.4-7.3c-0.4-2.5-2.4-4.4-5.1-4c-1.4,0.2-2.5,0.8-3.5,1.7c-0.5-7.1-1.7-14.1-3.1-21.1
			c-1.6-8.1-2.9-16.6-5.7-24.4c0,0,0-0.1,0-0.1c0,0,0-0.1-0.1-0.1c0.1,0,0.2,0,0.3,0c14.8,1.7,29.9,1.9,44.8,2.9
			c15.1,1,30.3,1.9,45.4,2.2c2.7,7.5,12.1,9.9,19.3,10.3C377.5,551.7,384.9,550.6,390,546.6z"/>
		<path class="st0" d="M375,484.2c0.7-0.6,1.7,0,1.5,0.9c-0.4,2-2.8,3-4.6,3.2c-1.9,0.2-4-0.6-5.2-2.2c-1.3-1.8-1.1-4.3,0.1-6.2
			c1.3-1.9,3-2.6,5.1-2.2c0.6,0.1,0.4,0.9-0.1,0.9c-2.7,0.3-5.3,4.1-3.3,6.4c0.8,0.9,2.1,1.3,3.3,1.1C373.3,486,374,485.1,375,484.2
			z"/>
		<path class="st9" d="M370.1,542.7c0,0.2,0.1,0.3,0.1,0.4c-1.1,0-2.3,0-3.5-0.2c-1.7-10.8-8.5-21.3-18.8-25.8
			c-5.4-2.4-11.1-2-16.8-0.8c-7.1,1.5-14.2,3.7-20.8,6.6c-0.3,0.1-0.1,0.6,0.2,0.5c10.9-3.1,25.5-9.9,36.5-4.7
			c9.3,4.4,15.3,14,17.3,23.8c-0.8-0.2-1.5-0.4-2.2-0.6c0.1-0.2,0.1-0.4,0.1-0.6c-2.2-16.1-22.4-19.9-35.3-16.1
			c-0.5,0.2-0.3,0.9,0.2,0.8c12-2.4,23.1,0.1,29.8,9c-0.2,0.1-0.3,0.2-0.4,0.4c-0.2-0.2-0.4-0.4-0.8-0.4
			c-29.5-2.1-59.3-4.6-88.9-5.5c1.5-1.5,2.6-3.6,3.7-5.3c1.5-2.2,3.4-4.4,4.4-6.8c13.8,13,34.8,1.3,49.6-3.1
			c10.7-3.3,21.6-3.2,30.8,3.8c7.4,5.6,12.1,13.8,14.1,22.8c0,0.4-0.1,0.9-0.1,1.3C369.6,542.5,369.8,542.7,370.1,542.7z"/>
		<path class="st7" d="M352.7,536.9l-0.2,2.3c-15.3-0.8-30.7-1.2-46-1.8c-14.9-0.6-29.8-2.2-44.7-2.5c0.5-0.6,0.9-1.3,1.4-1.9
			c0.4-0.6,0.9-1.2,1.1-1.8C293.8,533.5,323.3,534.8,352.7,536.9z"/>
		<path class="st0" d="M346.7,458.4c1.5,1.7,2.9,5.1,1.4,7.1c-0.5,0.6-1.8,0.8-1.9-0.3c-0.3-1.8,0.1-3.2-1-4.8
			c-1.1-1.5-2.9-2.6-4.8-2.3c-3.4,0.6-5.1,4.8-4,7.8c0.3,0.8-1,1.3-1.4,0.6c-2.5-4.3,0.3-10.1,5.3-10.8
			C342.7,455.3,345.1,456.5,346.7,458.4z"/>
		<path class="st0" d="M311.3,370c0.4,0.7-0.1,1.8-1.1,1.5c-6.9-2-12,7.5-14.4,12.7c-2.2,4.7-3.7,9.7-5,14.8
			c-2.8,11.6-3.9,22.7-2.1,34.5l-1.1,0.3c-4.9-12.9-0.9-29.2,3-41.8c2.4-7.6,8.8-24.8,19.4-22.5L311.3,370z"/>
		<path class="st0" d="M296.7,452.2c0.6-0.4,1.2,0.5,0.7,1c-0.2,0.2-0.4,0.4-0.6,0.6c0,0.1,0,0.3,0.1,0.5l-0.8,0.1
			c-6.2,4.3-13.8-2.2-15.2-8.9c-1.3-6.5,2-10,6.7-11.6l1.1-0.3c2.2-0.6,4.7-0.9,7.1-0.8c0.4,0,0.7,0.2,0.8,0.5l-0.2,1.3
			c-0.2,0.1-0.3,0.2-0.6,0.2c-6.1,0.1-13.5,1.3-12.8,9.1C283.7,450.5,290.2,456,296.7,452.2z"/>
		<path class="st0" d="M295.7,438.7c0.5,0.5,0.1,1.3-0.6,1.3c-1,0.1-2-0.2-3,0.2c-1.1,0.4-2.2,1.3-2.6,2.4c-1,2.7,1.8,5.6,4.5,5.7
			c0.5,0,0.7,0.9,0.1,1c-4,0.9-7.9-2.6-6.9-6.8C288,439.4,292.8,436,295.7,438.7z"/>
		<path class="st0" d="M288.7,599.1c1.7,0.8,3.3,2.5,2.9,4.5c-0.4,2-2.4,2.8-4.2,3.1c-1.9,0.2-4.1,0.3-6.2,0.2
			c1.5,0.7,2.9,1.5,3.9,2.8c1.3,1.7,1.8,4.2,0.3,6c-2.4,2.9-6,1.7-8.5-0.5c0.3,1.4,0.1,3-0.3,4.4l-0.9-0.2c0.1-0.8,0.1-1.7,0-2.6
			c-0.3-1.3-1-2.3-1.3-3.5c-0.1-0.3,0.1-0.6,0.4-0.8c-0.1-0.2-0.2-0.4-0.3-0.6c-0.2-0.6,0.6-1.2,1.1-0.9c1.3,1,2.2,2.4,3.5,3.3
			c1.4,1,4.1,1.6,5.1-0.3c1.7-3.3-3.6-5.8-6.3-7.5c-0.5-0.1-1-0.2-1.5-0.3c-0.7-0.2-0.8-1.3,0-1.5c2.1-0.4,4.3-0.2,6.5-0.1
			c1.6,0,4.8,0.7,6.2-0.4c1.8-1.4-0.1-2.9-1.2-3.4c-1.3-0.6-2.6-0.4-4-0.3c-1.5,0.1-2.9,0.2-4.3-0.1c-0.9,0.1-1.6,0.1-2.2,0.1
			c-1-0.1-1.1-1.3-0.2-1.7c2-0.8,4.1-1,6.1-1.7c1.1-0.4,2.2-0.8,3.2-1.3c1.2-0.6,2.2-2.2,1.8-3.7c-0.5-2-6.7-0.8-7.9-0.5
			c-1.9,0.5-3.7,1.3-5.5,2.2c-0.8,0.8-2.1-0.1-1.6-1.2c0.8-1.9,2.2-3.3,3.1-5.2c0.4-0.9,1.2-3.5,0.1-4.4c-1.1-0.2-2.3-0.3-3.5-0.5
			c-0.7,0.4-1.2,1-1.7,1.6c-2.9,3.4-3.7,8.2-2.9,12.5c0.1,0.5-0.3,0.9-0.7,0.9c0.1,0.5,0.2,0.9,0.3,1.4l-1.1,0.2
			c-0.1,0-0.2,0-0.3-0.1c-10.5-9.5-11.8-30.2-1.9-40.7c0.1-0.1,0.2-0.2,0.4-0.2c-0.6-2.9-1.3-5.8-1.9-8.6
			c-6.6,7.4-8.1,19.1-7.9,28.6c0.2,9,2.3,25.6,11.9,29.7l-0.5,1c-10.1-2.8-12.4-19.6-13-28.2c-0.7-10.3,0.6-25.5,9-32.9
			c-0.9-3.7-1.7-7.4-2.4-11.2c0-0.1,0-0.3,0-0.4l1.3-0.1c0,0,0,0,0,0.1c2.8,7.7,4.2,16.3,5.7,24.4c1.3,7,2.5,14,3.1,21.1
			c1-0.9,2.1-1.5,3.5-1.7c2.7-0.5,4.6,1.5,5.1,4c0.5,2.7-0.9,5.1-2.4,7.3c4.6-2.4,11.7-4.3,14,0.5c1.4,3-1,5.3-4.3,6.8
			C287.1,598.5,287.9,598.7,288.7,599.1z M266.7,597.5c0-0.7-0.1-1.3-0.1-1.9c0-0.1,0-0.1,0-0.2c-0.6-3.9,0.1-9.1,2.6-12.4
			c-1.4-7.6-2.4-15.2-3.8-22.7c-3.3,6-5.6,11.7-5.3,18.9C260.3,586,262.9,591.9,266.7,597.5z"/>
		<path class="st8" d="M287.7,600.8c1.1,0.5,3,2,1.2,3.4c-1.4,1.1-4.6,0.5-6.2,0.4c-2.2,0-4.4-0.3-6.5,0.1c-0.8,0.1-0.7,1.3,0,1.5
			c0.5,0.1,1,0.2,1.5,0.3c2.7,1.7,8,4.2,6.3,7.5c-1,1.9-3.7,1.3-5.1,0.3c-1.3-0.9-2.2-2.3-3.5-3.3c-0.5-0.4-1.3,0.3-1.1,0.9
			c0.1,0.2,0.2,0.4,0.3,0.6c-0.3,0.1-0.5,0.5-0.4,0.8c0.3,1.2,1.1,2.2,1.3,3.5c0.2,0.9,0.2,1.8,0,2.6c0,0.1,0,0.3-0.1,0.4
			c-6.1,2.6-6.3-11.7-6.6-14.1c-0.3-2.3-0.7-4.5-1.1-6.7c-0.1-0.5-0.2-0.9-0.3-1.4c0.4,0,0.8-0.4,0.7-0.9c-0.9-4.3,0-9.1,2.9-12.5
			c0.5-0.6,1-1.2,1.7-1.6c1.2,0.1,2.3,0.3,3.5,0.5c1,0.9,0.3,3.5-0.1,4.4c-0.8,1.8-2.3,3.3-3.1,5.2c-0.5,1.1,0.8,2,1.6,1.2
			c1.8-0.9,3.5-1.7,5.5-2.2c1.2-0.3,7.4-1.5,7.9,0.5c0.4,1.5-0.6,3.1-1.8,3.7c-1,0.5-2.1,1-3.2,1.3c-2,0.7-4.2,0.9-6.1,1.7
			c-0.9,0.4-0.8,1.6,0.2,1.7c0.6,0,1.3,0,2.2-0.1c1.4,0.3,2.8,0.2,4.3,0.1C285.1,600.4,286.4,600.2,287.7,600.8z"/>
		<path class="st0" d="M281.7,654.9l0,1.2c-0.2,0-0.3,0-0.5,0c-0.2,0-0.3-0.1-0.4-0.2c-0.3,0-0.7-0.2-0.8-0.6
			c-3.7-10.1-4.9-22.6-4.8-33.4c-0.1,0-0.1,0-0.2-0.1c-2.2,0.7-4.7-0.9-5.8-3.2c-1.4-2.9-1.4-6.8-1.7-9.9c-0.1,0.2-0.3,0.2-0.6,0.2
			c-0.2,0-0.3-0.1-0.5-0.1l0.5-1c0.1,0.1,0.2,0.1,0.3,0.1c0.1,0,0.1,0.1,0.2,0.1c-0.3-3-0.6-5.9-0.7-8.9l1.1-0.2
			c0.4,2.2,0.8,4.5,1.1,6.7c0.3,2.4,0.5,16.7,6.6,14.1c0-0.1,0-0.3,0.1-0.4l0.9,0.2c0.4,0.2,0.6,0.7,0.3,1.1c0,0,0,0,0,0
			c0,0.1,0.1,0.2,0.1,0.3c0.6,6.3,1,12.5,2,18.8C279.7,644.8,281.1,649.8,281.7,654.9z"/>
		<path class="st6" d="M267.5,608.1c-0.1,0-0.1-0.1-0.2-0.1c-0.1,0-0.2-0.1-0.3-0.1c-9.5-4.1-11.6-20.6-11.9-29.7
			c-0.2-9.5,1.3-21.2,7.9-28.6c0.7,2.9,1.4,5.7,1.9,8.6c-0.1,0-0.2,0.1-0.4,0.2c-9.9,10.5-8.6,31.1,1.9,40.7
			c0.1,0.1,0.2,0.1,0.3,0.1C267,602.1,267.2,605.1,267.5,608.1z"/>
		<path class="st0" d="M253.2,619.8c1.4,0,1.4,2.1,0,2.1c-22.4,0.6-44.9,0.1-67.3,0.2c-22.4,0.1-44.9,1.2-67.3,0.1
			c-0.8,0-0.8-1.3,0-1.3c22.4-1.3,44.9-0.4,67.3-0.6C208.3,620.2,230.8,619.5,253.2,619.8z"/>
	</g>
	<g>
		<path class="st0" d="M582.6,44.3c8.5,6,15.3,13.6,15.3,24.4c-0.1,17.9-20.9,22.1-34.7,18c-1.8-0.5-3.5-1.1-5.3-1.8
			c-1,5.1-2.4,10.2-5.5,14.3c-8.6,11.6-23.8,4.5-28.6-6.7c-0.9-2.1-1.6-4.4-2.1-6.7c-13.3,2.2-34.9,3.4-35.5-10.7
			c-0.1-0.1-0.2-0.3-0.3-0.6c-0.4-12.6,8.5-22.3,18.9-29.8c-6.6-9.2-10.9-20.3-3.6-29.7c-0.1-0.4-0.1-0.9,0.4-1.3
			c8.2-5.2,17.9-3.9,26.4-0.1c0.8,0.4,1.6,0.7,2.4,1.1c3.6-5.9,8.7-10.1,16.4-10.1c0.7,0,1,0.7,0.9,1.2c5.6,1.1,9.1,5.6,10.9,10.8
			c5.9-2.4,12.4-4.5,18.1-1.9c6.1,2.8,9.5,9.9,9.6,16.4C586.4,36,584.9,40.3,582.6,44.3z M589.9,80.7c7-6.1,6.8-15.8,2.3-23.3
			c-2.7-4.5-6.6-8-10.9-11c-1.7,2.5-3.5,4.9-5.5,7.1c-4.7,5.3-9.9,10.4-15.5,14.9c-0.4,3.7-0.9,7.4-1.5,11.1c-0.2,1-0.3,2-0.5,3.1
			c2.4,0.9,4.8,1.7,7.2,2.4C573.8,87,583.2,86.6,589.9,80.7z M580.4,42.8c3.2-5.7,4.7-12.3,1.8-18.6c-1.8-4-5-7.1-9.4-7.7
			c-4.2-0.6-8.3,1.1-12.2,2.6c-0.4,0.1-0.7,0.3-1.1,0.4c0.1,0.3,0.2,0.6,0.2,1c0.7,3.8,1.2,7.6,1.5,11.5
			C566.9,35.1,574,38.6,580.4,42.8z M578,46.6c0.4-0.6,0.8-1.2,1.2-1.8c-1.9-1.2-3.9-2.4-5.8-3.5c-4-2.3-8-4.6-12.1-6.9
			c0.3,5.5,0.3,11,0.1,16.4c-0.1,4.6-0.4,9.3-0.8,13.9C567.3,59.4,573.2,53.2,578,46.6z M558.6,60.3c0.6-8.8,0.7-17.6,0.2-26.4
			c0-0.3,0-0.6,0-0.9c-2.7-1.5-5.4-3-8.1-4.6c-1.7-0.9-3.5-2-5.3-3.1c-6.6,3-13.2,6.2-19.6,9.7c-1.4,6.5-2.1,13-2.7,18.3
			c-0.2,1.9-0.4,4-0.6,6.3c0.2,0.2,0.5,0.4,0.7,0.6c6.4,5.5,13.6,10.9,21.2,15.4c4.7-2.5,9.4-5.5,13.8-8.9
			C558.4,64.2,558.5,62,558.6,60.3z M558.6,30.4c-0.2-3.2-0.5-6.8-1.2-10.1c-3.2,1.2-6.3,2.5-9.4,3.9
			C551.5,26.3,555,28.4,558.6,30.4z M556.4,81.7c0.7-3.9,1.2-8,1.5-11.6c-3.5,2.6-7.1,5-10.9,7.1C550.1,78.8,553.2,80.4,556.4,81.7z
			 M556.6,17.7c-1.6-5-4.6-9.1-10.6-9.7c-0.5-0.1-0.9-0.4-1-0.8c-5.1,1.5-9,4.7-11.9,8.9c4.1,2,8.1,4.3,12,6.5c2.4-1,4.8-2.1,7.2-3
			C553.7,19,555.1,18.4,556.6,17.7z M555.9,84.1c-3.9-1.6-7.8-3.4-11.6-5.5c-5,2.5-10.3,4.6-15.8,5.9c-1.3,0.3-3.1,0.7-5,1.1
			c1.9,7.9,5.9,14.5,13.6,16.8C548.3,105.5,553.4,95.5,555.9,84.1z M523,83c6.4-1.2,12.7-3.1,18.6-6c-6.9-4.1-13.4-8.9-19.4-14
			C521.9,69.3,521.8,76.5,523,83z M542.7,23.7c-3.4-2.1-7-4.2-10.6-6.1c-2.5,4.1-4.3,9-5.6,14.1C531.8,28.9,537.2,26.2,542.7,23.7z
			 M523.8,33.2c1.2-5.5,3-11.6,5.7-16.7c-9-4.1-18.4-6.1-26.8-0.8c-0.1,0-0.1,0-0.1,0.1c-5.8,9.3-2.2,19.1,4.2,27.6
			c5.7-3.9,11.7-7.2,16.8-10C523.7,33.3,523.7,33.2,523.8,33.2z M522.6,39.3c0.2-0.9,0.3-1.8,0.5-2.8c-2.6,1.4-5.2,2.9-7.7,4.4
			c-2.4,1.4-4.8,2.9-7.1,4.5c3.7,4.7,8.1,8.9,12.1,12.4C520.7,51.6,521.5,45.4,522.6,39.3z M520.1,67.1c0-2,0-3.9,0.1-5.9
			c-2-1.8-4-3.6-5.9-5.5c-2.6-2.5-5.4-5.6-8-9c-9.5,6.8-17.7,15.4-18.8,27.8c0,0.1,0,0.1,0,0.2c2,11.2,17.9,10.2,26.6,9.5
			c2.4-0.2,4.7-0.5,7-0.8C520.2,78,520.2,72.4,520.1,67.1z"/>
		<path class="st0" d="M551.3,43.2c1.4,2.8-0.2,6-1.4,8.5c-1,2-2.7,5.6-5.2,5.9c-1.6,0.2-3.5-1.1-4.9-1.7c-1.8-0.8-3.8-1.5-5.5-2.6
			c-2.2-1.4-4.1-3.5-3.3-6.2c0.7-2.3,3.1-3.8,5.5-3.8c2.3,0,4.2,1.3,5.7,2.9c0.3-2.3,1.6-4.4,4-5.1C548,40.5,550.3,41.2,551.3,43.2z
			 M549.4,46.9c0.7-1.7,0.3-2.8-1.4-3.1c-1.8-1.5-3.1-0.8-4.1,2.1c-0.2,0.7-0.4,1.4-0.5,2.1c0,0,0,0,0.1,0.1
			c0.4,0.7-0.5,1.4-1.1,0.8c-1.5-1.4-3.3-3.3-5.5-3.3c-3.2,0-4,4-1.4,5.7c2,1.2,4.5,2.5,6.7,3.2c3.2,1,3.3,0.2,4.6-1.9
			c0.8-1.2,1.5-2.5,2-3.9C549.1,48.2,549.3,47.6,549.4,46.9z"/>
		<path class="st4" d="M548,43.8c1.7,0.3,2.2,1.4,1.4,3.1c-0.1,0.6-0.4,1.3-0.6,1.8c-0.5,1.4-1.2,2.6-2,3.9c-1.3,2.2-1.4,3-4.6,1.9
			c-2.2-0.7-4.7-2-6.7-3.2c-2.6-1.7-1.8-5.7,1.4-5.7c2.3,0,4.1,1.9,5.5,3.3c0.5,0.5,1.5-0.2,1.1-0.8c0,0,0-0.1-0.1-0.1
			c0.1-0.7,0.3-1.4,0.5-2.1C544.8,43,546.2,42.3,548,43.8z"/>
	</g>
	<g>
		<path class="st0" d="M361,64.2c0.9,20.5-17.9,36.4-36,41.6c-11.3,3.2-23.3,3.5-34.9,2.4c-6.5-0.6-13-1.7-19.5-2
			c-5.6-0.2-20.7-1-22,6.8c-0.1,0.5-0.9,0.4-0.8-0.1c1-8.7,15.5-8.9,21.9-8.8c12.6,0.1,24.9,2.8,37.5,2.1c25.1-1.5,48.6-15.4,52-42
			C359.2,63.1,360.9,63,361,64.2z"/>
		<path class="st0" d="M349.6,53.5c0.3-1.2,2.2-0.9,2.1,0.3c-1.8,19.4-18.3,36.2-36.4,41.7C303.7,99,292,97,280.3,95.1
			c-13.2-2.2-28-3.4-38.8,6c-0.4,0.4-1-0.2-0.6-0.6c17-17.6,43.2-3.9,63.7-5.6C327.6,93,344.2,75,349.6,53.5z"/>
		<path class="st0" d="M336.4,47.8c0.5-1.3,2.5-0.9,2.2,0.6c-3.4,16.4-18.4,29.8-33.9,34.6c-8.8,2.7-18.1,2.9-27,0.7
			c-10.2-2.5-19.6-7.1-30.2-7.1c-0.7,0-0.6-0.9,0-1c8.4-0.9,16.3,1.8,24.2,4.2c9.1,2.7,18.1,3.9,27.5,2c9-1.8,17.4-6.2,24-12.6
			C329.5,63,333.1,55.8,336.4,47.8z"/>
		<path class="st0" d="M333.2,28.4c1.3-0.5,2.1,1.5,0.9,2.2c-9.9,5.5-14.3,16.7-23.5,23.2c-9.2,6.4-20.2,8.7-31.2,7.3
			c-13.8-1.7-26.6-8.1-40.5-8.9c-14-0.8-27.1,5.7-30.3,20.1c-0.1,0.6-1.1,0.5-1.1-0.1c-0.2-10,8.8-17.8,17.7-20.6
			c13.1-4.2,27,0.5,39.6,4c14.8,4.1,29.8,5.7,43.2-3.1C317.8,46,322.2,32.9,333.2,28.4z"/>
		<path class="st0" d="M326.7,42c0.8-1.5,2.9-0.2,2.2,1.3c-8.1,17.8-27.8,29.7-47.4,28.4c-19.8-1.3-50.7-19.1-64.1,4.9
			c-0.2,0.4-0.9,0.1-0.7-0.3c7.5-19.6,33.5-13.7,48.7-9.9c12.5,3.2,24.7,4.3,36.9-1C313.2,60.8,321.5,52.5,326.7,42z"/>
		<path class="st0" d="M243.8,122c1.1,1.6,5.3,5.5,3.6,7.9c-1.6,2.4-7.7,1.1-10,1.1c-6.1,0-12.2-0.2-18.2-0.6l0.1-1.9
			c5.4,0,25.8,0.2,25.8-0.3c0-0.2-2.6-3.4-3-4c-1.2-1.8-2.5-3.6-3.7-5.4c-2.5-3.6-4.9-7.1-7.3-10.7c-0.7-1.1,0.4-2,1.3-1.9l1.8,0
			c-0.3,0.4-0.6,0.5-1,0.4c0,0,0,0.1,0.1,0.1C236.8,111.7,240.3,116.9,243.8,122z"/>
		<path class="st11" d="M242,124.1c0.4,0.6,3,3.8,3,4c-0.1,0.5-20.5,0.3-25.8,0.3c-0.3-0.9-1.7-1.3-2.2-0.2
			c-2.4,4.6-4.7,9.2-7.1,13.8c-1.1,2.1-5.6,14.4-9.6,10c-2.1-2.4-2.1-9.4-2.7-12.6c-0.9-4.7-1.8-9.3-2.9-13.9
			c-0.1-0.2-0.1-0.4-0.2-0.7c0-0.6-0.4-1.3-1.2-1.4c-4.8-0.6-9.6-1.3-14.3-2.3c-3.5-0.8-13.4-1.8-8.6-7.5c2.2-2.5,6.6-4.4,9.4-6.1
			c3.3-1.9,6.8-3.6,10-5.7c0.1-0.1,0.2-0.1,0.3-0.2c0.4,0,0.8-0.3,0.8-0.8c-0.1-5.1-0.3-10.3-0.5-15.4c-0.1-2.2-1.7-11.6,0.1-12.4
			c1.2-0.5,10.2,7.3,11.2,8.1c3.7,3,7.1,6.1,10.5,9.4c0.3,0.3,0.6,0.4,0.9,0.3c0.2,0.3,0.6,0.4,1.1,0.1c3.4-2,6.8-4,10.4-5.8
			c3-1.4,8.8-4.8,12.3-4.8c1.8-0.9,2.9-0.3,3.3,1.9c-0.2,0.6-0.3,1.2-0.5,1.8c-0.2,2.3-1.5,5-2.3,7.1c-1.6,4.6-3.5,9.1-5.6,13.6
			c-0.2,0.5-0.1,1,0.2,1.3c-1-0.2-2.1,0.8-1.3,1.9c2.4,3.6,4.9,7.1,7.3,10.7C239.6,120.5,240.8,122.3,242,124.1z M220.9,105.8
			c0.6-3.5-3.4-7.1-6.8-5.2c-2.8,1.5-3.1,5.9-0.4,7.6c0.6,0.4,1.1-0.4,0.7-0.9c-1.2-1.3-1.1-3.7,0.3-4.8c1.8-1.4,4.5,0.7,4.2,2.7
			C218.7,106.5,220.7,107.1,220.9,105.8z M205.2,112.8c0.4,0.9,1.7,0.2,1.5-0.6c-0.8-3.4-6-5.7-8.5-2.7c-1.9,2.2-0.9,7,2.5,6.7
			c0.7,0,1-1.1,0.2-1.3c-1.7-0.4-2.4-2.9-1.2-4.2C201.7,108.6,204.4,111,205.2,112.8z"/>
		<path class="st0" d="M241.3,78c3.7,2,0.9,7.5,0,10.3c-1.9,6.1-4.3,12-7,17.7c0,0-0.1,0.1-0.1,0.2l-1.8,0c-0.3-0.3-0.4-0.8-0.2-1.3
			c2-4.4,4-8.9,5.6-13.6c0.8-2.2,2.1-4.8,2.3-7.1c0.2-0.6,0.3-1.2,0.5-1.8c-0.4-2.2-1.5-2.9-3.3-1.9c-3.5,0.1-9.3,3.4-12.3,4.8
			c-3.6,1.7-7,3.7-10.4,5.8c-0.4,0.3-0.8,0.1-1.1-0.1c-0.3,0-0.6-0.1-0.9-0.3c-3.4-3.3-6.8-6.4-10.5-9.4c-1-0.8-10-8.6-11.2-8.1
			c-1.9,0.8-0.2,10.2-0.1,12.4c0.2,5.1,0.4,10.3,0.5,15.4c0,0.6-0.4,0.8-0.8,0.8c-0.1,0.1-0.2,0.1-0.3,0.2l-0.7-1.1
			c-0.6-7-1-14.1-1.3-21.1c-0.1-2.1-1.7-8.3,1.6-9.3c3.2-0.9,8.9,4.9,11.1,6.6c4.8,3.6,9.3,7.5,13.5,11.8c0,0,0.1,0.1,0.1,0.1
			c4.7-3.3,9.8-6.1,15-8.3C232.4,79.3,237.9,76.2,241.3,78z"/>
		<path class="st0" d="M214.1,100.6c3.4-1.9,7.3,1.7,6.8,5.2c-0.2,1.3-2.2,0.8-2-0.6c0.3-2-2.4-4.1-4.2-2.7
			c-1.4,1.1-1.5,3.5-0.3,4.8c0.4,0.5-0.1,1.3-0.7,0.9C211,106.4,211.3,102.1,214.1,100.6z"/>
		<path class="st0" d="M219.2,128.4l-0.1,1.9c-0.1,0-0.2,0-0.3,0c-3.4,6.7-6.7,13.3-10.1,20c-1.4,2.8-3.4,7.1-7.4,6
			c-4.1-1.1-4.4-7.2-5-10.4c-1.1-6.6-2.3-13.2-3-19.8l1.5-0.4c1.1,4.6,2,9.3,2.9,13.9c0.6,3.1,0.5,10.2,2.7,12.6
			c3.9,4.4,8.5-7.9,9.6-10c2.4-4.6,4.7-9.2,7.1-13.8C217.6,127.1,218.9,127.6,219.2,128.4z"/>
		<path class="st0" d="M206.7,112.2c0.2,0.9-1.1,1.5-1.5,0.6c-0.8-1.8-3.6-4.2-5.5-2.1c-1.2,1.3-0.5,3.8,1.2,4.2
			c0.8,0.2,0.6,1.3-0.2,1.3c-3.4,0.3-4.4-4.6-2.5-6.7C200.8,106.5,205.9,108.8,206.7,112.2z"/>
		<path class="st0" d="M194.7,124.9c0.1,0.2,0.1,0.4,0.2,0.7l-1.5,0.4c-6.8-0.6-13.6-1.9-20.2-3.7c-2.7-0.7-7.6-1.5-8.2-5
			c-0.7-4,6.2-7.1,8.7-8.7c4.9-3.1,10.1-6.2,15.8-7.8l0.7,1.1c-3.2,2.1-6.7,3.8-10,5.7c-2.9,1.6-7.3,3.6-9.4,6.1
			c-4.9,5.6,5.1,6.7,8.6,7.5c4.7,1.1,9.5,1.7,14.3,2.3C194.3,123.6,194.7,124.3,194.7,124.9z"/>
	</g>
	<g>
		<path class="st0" d="M566,431.2c0.3-0.4,1,0.1,0.7,0.5c-0.4,0.7-0.8,1.4-1.2,2.1c-4.9,23.7-16,48.9-39.4,59.4
			c-9.5,4.3-20.7,5.4-30.7,2.1c-3.7-1.2-16.7-6.9-14.2-12.8c-7.2,0.7-14.5,0.8-21.7-0.1c-0.4,0.3-1,0.3-1.4,0.1
			c-1.1-0.5-1.1-1.9-0.9-2.9c0.2-1.3,0.8-2.7,2.1-3.4c1-0.5,2.3-0.5,3.1,0.3c0.1,0,0.1,0.1,0.1,0.2c6.1,0.2,12.2,0,18.2-0.5
			c0-0.1-0.1-0.2,0-0.3c2-17.2,15.5-30.1,31.1-36c8.4-3.1,17.2-4.2,26-4.3c9.1-0.1,18.6,0.1,26.3-5.7c1-0.7,2,0.6,1.5,1.5
			c0.1,0,0.2,0,0.3,0C565.8,431.3,565.9,431.3,566,431.2z M563.5,433.1c0,0,0-0.1,0.1-0.1c-12.5,8.1-29.6,3.6-43.5,6.8
			c-18.6,4.3-34.1,17.3-38.4,36.4c12.5-1.2,24.6-4.2,36.5-9.3c17.7-7.6,32.3-19.2,45.2-33.2C563.4,433.5,563.4,433.3,563.5,433.1z
			 M562,438.8c-4.7,6.1-10.7,11.5-16.3,16.2c-8.1,6.7-17.1,12.4-26.6,16.8c-11.6,5.4-24.4,9.2-37.3,10.6c-1.6,4.8,8.2,8.6,11.4,9.8
			c4.6,1.7,9.4,2.6,14.3,2.6c9.5,0,18.6-3.3,26.3-8.9C549.5,474.8,557.3,456.9,562,438.8z M545.9,453.2c2-1.7,3.9-3.6,5.7-5.4
			c-24.1,21.5-59,33.2-90.3,30.1c-0.3,0-0.5-0.3-0.5-0.6c-0.9-0.2-1.7,0.8-2,1.6c-0.2,0.5-0.3,1-0.3,1.5c0,0.4,0.5,1.5,0.8,0.7
			c0.2-0.5,0.9-0.2,0.8,0.3c0,0,0,0.1,0,0.1c20.7,0.9,40.9-2.4,59.7-11.4C529.2,465.7,538,460,545.9,453.2z"/>
		<path class="st5" d="M563.5,432.9c0,0,0,0.1-0.1,0.1c0,0.2-0.1,0.4-0.1,0.6c-12.9,14-27.5,25.5-45.2,33.2c-11.8,5.1-24,8-36.5,9.3
			c4.3-19.1,19.7-32,38.4-36.4C533.9,436.5,551,441,563.5,432.9z"/>
		<path class="st5" d="M545.7,455c5.6-4.7,11.7-10.1,16.3-16.2c-4.8,18.1-12.5,36-28.3,47.2c-7.7,5.5-16.8,8.9-26.3,8.9
			c-4.9,0-9.7-0.9-14.3-2.6c-3.1-1.2-13-5-11.4-9.8c12.9-1.4,25.7-5.2,37.3-10.6C528.6,467.4,537.6,461.7,545.7,455z"/>
		<path class="st5" d="M551.6,447.8c-1.8,1.9-3.7,3.7-5.7,5.4c-7.9,6.8-16.7,12.5-26.1,16.9c-18.8,8.9-39.1,12.2-59.7,11.4
			c0,0,0-0.1,0-0.1c0.1-0.5-0.6-0.8-0.8-0.3c-0.3,0.7-0.8-0.4-0.8-0.7c0-0.5,0.2-1,0.3-1.5c0.3-0.8,1.1-1.8,2-1.6
			c0,0.3,0.1,0.6,0.5,0.6C492.6,481,527.5,469.3,551.6,447.8z"/>
	</g>
	<g>
		<path class="st0" d="M338.8,149.9c0.7,0.7,0.2,1.6-0.6,1.8c-1.5,5.4-6.9,9.6-12.2,10.8c0.2,0.2,0.4,0.5,0.7,0.7
			c3,2.9,6.4,4.4,9.7,6.8c0.4,0.3,0.4,0.8,0.1,1.1c3.5,1.9,3.8,6.6,1.8,9.8c-2,3.2-6,4.5-9.4,2.9c-3.6-1.7-4.8-5.8-3.3-9.4
			c1.1-2.6,3.4-4.1,6-4.6c-6.3-3.3-11.2-10.8-13.3-16.9c-0.1-0.3,0-0.6,0.3-0.7c-0.2-0.3-0.2-0.9,0.2-1.1c2.1-1.1,4-2.4,5.7-4
			c1.6-1.5,2.6-3.6,4.3-5c0.6-0.4,1.3-0.2,1.4,0.5c0.1,0,0.1,0.1,0.2,0.1c2.4,2,4.9,4.1,7.2,6.3c0.4,0.1,0.7,0.4,0.8,0.7
			C338.7,149.7,338.8,149.8,338.8,149.9z M329.3,181.4c5.4,3.5,11.6-5.3,6.2-8.6c-0.7-0.4-0.6-1.3-0.1-1.7c0,0,0,0,0,0
			c0,0,0,0-0.1,0c-2.8,0.1-5.8,0.9-7.3,3.5C326.8,176.9,327.1,179.9,329.3,181.4z M332.7,156.6c1.7-1.8,2.6-3.9,3.6-6.2
			c-2.2-2-4.3-4.1-6.4-6.2c-0.9,1.7-2.7,3.2-4,4.4c-1.8,1.6-3.9,2.8-6.1,3.7c0,0.1,0.1,0.1,0.1,0.2c1.3,3.2,3,6.1,5.2,8.8
			c0.1,0,0.1-0.1,0.2-0.1C328.1,160.3,330.7,158.8,332.7,156.6z"/>
		<path class="st2" d="M335.6,172.9c5.4,3.3-0.9,12-6.2,8.6c-2.3-1.5-2.5-4.6-1.3-6.8c1.5-2.6,4.5-3.4,7.3-3.5c0,0,0,0,0.1,0
			c0,0,0,0,0,0C335,171.6,334.9,172.4,335.6,172.9z"/>
		<path class="st2" d="M336.3,150.4c-0.9,2.2-1.8,4.3-3.6,6.2c-2,2.2-4.6,3.7-7.5,4.5c-0.1,0-0.2,0.1-0.2,0.1
			c-2.2-2.6-3.9-5.6-5.2-8.8c0-0.1-0.1-0.1-0.1-0.2c2.2-0.9,4.3-2.1,6.1-3.7c1.3-1.1,3.1-2.7,4-4.4
			C332,146.3,334.1,148.5,336.3,150.4z"/>
	</g>
	<g>
		<path class="st0" d="M112.4,193.8c0.7,0.7,0.2,1.6-0.6,1.8c-1.5,5.4-6.9,9.6-12.2,10.8c0.2,0.2,0.4,0.5,0.7,0.7
			c2.9,2.9,6.4,4.4,9.7,6.8c0.4,0.3,0.4,0.8,0.2,1.1c3.5,1.9,3.8,6.7,1.8,9.8c-2,3.2-6,4.5-9.4,2.9c-3.6-1.7-4.8-5.8-3.3-9.4
			c1.1-2.6,3.4-4.1,6-4.6c-6.3-3.3-11.2-10.8-13.3-16.9c-0.1-0.3,0-0.6,0.3-0.7c-0.2-0.3-0.2-0.9,0.2-1.1c2.1-1.1,4-2.4,5.7-4
			c1.6-1.5,2.7-3.6,4.3-5c0.6-0.4,1.3-0.1,1.4,0.5c0.1,0,0.2,0.1,0.2,0.1c2.4,2,4.9,4.1,7.2,6.3c0.4,0.1,0.7,0.3,0.8,0.7
			C112.3,193.7,112.3,193.8,112.4,193.8z M102.9,225.4c5.3,3.5,11.6-5.3,6.2-8.5c-0.7-0.4-0.6-1.3-0.1-1.7c0,0,0,0,0,0
			c0,0,0,0-0.1,0c-2.8,0.1-5.8,0.9-7.3,3.5C100.4,220.8,100.6,223.9,102.9,225.4z M106.3,200.6c1.7-1.8,2.6-3.9,3.6-6.2
			c-2.2-2-4.3-4.1-6.4-6.2c-0.9,1.7-2.7,3.2-4,4.4c-1.8,1.5-3.9,2.8-6.1,3.7c0,0.1,0.1,0.1,0.1,0.2c1.3,3.2,3,6.1,5.2,8.8
			c0.1,0,0.1-0.1,0.2-0.1C101.7,204.2,104.2,202.7,106.3,200.6z"/>
		<path class="st2" d="M109.1,216.8c5.4,3.3-0.9,12-6.2,8.5c-2.3-1.5-2.5-4.5-1.3-6.8c1.5-2.6,4.5-3.4,7.3-3.5c0,0,0,0,0.1,0
			c0,0,0,0,0,0C108.6,215.5,108.4,216.4,109.1,216.8z"/>
		<path class="st2" d="M109.8,194.4c-0.9,2.2-1.8,4.3-3.6,6.2c-2,2.2-4.6,3.7-7.5,4.5c-0.1,0-0.2,0.1-0.2,0.1
			c-2.2-2.6-3.9-5.6-5.2-8.8c0-0.1-0.1-0.1-0.1-0.2c2.2-0.9,4.3-2.1,6.1-3.7c1.3-1.1,3.1-2.7,4-4.4
			C105.5,190.3,107.6,192.4,109.8,194.4z"/>
	</g>
	<g>
		<path class="st0" d="M555.3,231.4c-0.2,1-1.2,1-1.8,0.5c-5.3,1.7-11.8-0.4-15.7-4.1c-0.1,0.3-0.2,0.6-0.2,0.9
			c-0.8,4.1-0.1,7.8-0.2,11.9c0,0.5-0.4,0.8-0.9,0.8c0.4,4-3.4,6.8-7.1,7c-3.7,0.1-7.1-2.4-7.7-6.2c-0.6-3.9,2.1-7.3,6-8
			c2.8-0.5,5.4,0.6,7.2,2.4c-0.7-7.1,2.7-15.3,6.7-20.4c0.2-0.3,0.5-0.3,0.7-0.2c0.2-0.4,0.6-0.7,1-0.4c2.1,1.1,4.2,2,6.5,2.6
			c2.1,0.5,4.5,0.2,6.5,0.8c0.7,0.2,0.9,1,0.4,1.4c0,0.1,0,0.2,0,0.2c-0.3,3.1-0.7,6.3-1.2,9.4c0.1,0.3,0.1,0.8-0.2,1
			C555.3,231.2,555.3,231.3,555.3,231.4z M523.8,241.1c0.1,6.4,10.9,6.7,10.6,0.4c0-0.8,0.8-1.2,1.4-1c0,0,0,0,0,0c0,0,0,0-0.1,0
			c-1.6-2.3-4-4.3-7-4.1C526.2,236.4,523.8,238.4,523.8,241.1z M546.3,230.1c2.5,0.4,4.7,0,7.1-0.5c0.4-2.9,1-5.9,1.6-8.8
			c-1.9,0.2-4.2-0.4-5.9-0.9c-2.3-0.7-4.5-1.7-6.5-3c0,0.1,0,0.1-0.1,0.2c-1.9,2.8-3.4,5.9-4.4,9.2c0.1,0,0.1,0.1,0.2,0.1
			C540.7,228.3,543.3,229.6,546.3,230.1z"/>
		<path class="st2" d="M534.4,241.5c0.3,6.3-10.5,6-10.6-0.4c0-2.7,2.4-4.6,4.9-4.8c3-0.2,5.4,1.9,7,4.1c0,0,0,0,0.1,0c0,0,0,0,0,0
			C535.1,240.3,534.3,240.7,534.4,241.5z"/>
		<path class="st2" d="M553.4,229.6c-2.4,0.5-4.6,0.9-7.1,0.5c-2.9-0.5-5.6-1.8-7.9-3.7c-0.1-0.1-0.2-0.1-0.2-0.1
			c0.9-3.3,2.4-6.3,4.4-9.2c0-0.1,0.1-0.1,0.1-0.2c2,1.3,4.1,2.4,6.5,3c1.7,0.5,3.9,1.1,5.9,0.9
			C554.4,223.7,553.8,226.7,553.4,229.6z"/>
	</g>
	<g>
		<path class="st12" d="M61.9,254.9c-8.3-0.8-20.1,3.1-24.3,10.2c0-0.1,0-0.1-0.1-0.2c-0.8-1.2-1.5-2.5-2-3.8
			c-0.5-1.2-0.6-2.5-1.2-3.6c-0.3-0.6-1-0.5-1.4-0.1c0-4.8,2.9-9.2,7.5-11.2c4.8-2.1,10.1-1.8,15.2-1.3c0,0,0,0,0.1,0
			C57.4,248.5,59.4,251.8,61.9,254.9z"/>
		<path class="st13" d="M75.2,269.6c3.5,1.2,5.3,4.3,3.8,7.9c-0.4-0.7-0.7-1.5-1.1-2.2c-0.4-0.9-1.8-0.5-2,0.3
			c-10.6-1.5-21.7,3-27.4,12.4c-0.3,0.5,0.1,1.2,0.6,1.3c0,0,0,0.1,0,0.1c0,0,0,0.1,0,0.1c0.2,0.5,0.4,1,0.6,1.4
			c-6.5-1.5-4.3-10.3-0.9-13.6c3.1-3.1,7.6-4.6,11.7-5.9c3.5-1.1,7.4-2.2,11.1-2.3c0.7,0,1.4,0,2,0.1
			C74,269.7,74.7,269.9,75.2,269.6z"/>
		<path class="st13" d="M73.2,266.7c-5.1-0.3-10.9,1.7-14.9,3.1c-6.1,2-12.7,5.3-14.4,12c-0.3,1.2-0.4,2.5-0.3,3.7l-0.3,0
			c0-0.1,0-0.3-0.1-0.4c-6.5-6.8-1.3-14.4,5.8-17.9C53.5,265,70.4,259,73.2,266.7z"/>
		<path class="st13" d="M68.2,260.9c-6.9-0.5-16.6,2.5-19.8,4c-4.2,2-8.5,5.1-10,9.6c-1.3-7.3,4.2-12.8,10.8-15.1
			C54.2,257.6,65.4,254.7,68.2,260.9z"/>
		<path class="st0" d="M119.9,392.9c0.4,1-0.7,2.3-1.7,1.6c-5.2-3.6-10.4-7.3-15.6-11c-4.7-3.3-9.9-6.5-13.8-10.7
			c-0.1-0.1-0.2-0.2-0.2-0.4c-0.3,0-0.7-0.1-0.9-0.4c-4.3-6.4-7.2-14.3-10.5-21.3c-3.1-6.6-6.2-13.1-9.3-19.7
			c-6-12.8-12-25.6-17.5-38.6c0,0,0,0-0.1,0c-0.2,0-0.4,0-0.6,0l0-1.4c-0.2-0.5-0.4-1-0.6-1.4c0,0,0-0.1,0-0.1l1.8-0.9
			c6.7,13.9,13.1,28,19.6,42c3.2,6.9,6.4,13.7,9.7,20.6c2.8,5.9,6.3,11.8,8.5,18c0.2-1.2,0.9-2.5,1.8-3.1c1.4-0.9,3.1-1.2,4.7-0.9
			c0.5,0.1,1.1,0.3,1.6,0.5l1.7,0.1c0,0.3,0,0.6,0,0.9c0,0.1,0,0.1,0,0.2c0.2,0.3,0.3,0.6,0.4,0.9c0.1,0.6-0.4,1.3-1,1
			c-0.8-0.2-1.3-0.9-2-1.3c-0.9-0.4-1.9-0.5-2.8-0.3c-0.9,0.2-1.8,0.6-2.2,1.4c-0.4,0.7-0.7,2,0.2,2.4c0.7,0.3,0.5,1.2-0.1,1.3
			c4.9,2.5,9.4,6.2,13.8,9.4c0.1,0.1,0.2,0.2,0.3,0.2l2,0.5c-0.1,0.3-0.1,0.5-0.2,0.8c3.8,2.7,7.6,5.4,11.3,8.2l1.6-0.1
			C119.9,391.8,119.9,392.3,119.9,392.9z"/>
		<path class="st0" d="M119.8,391.2l-1.6,0.1c-1.2-4.5-2-9.2-2.8-13.8c-1.8-0.1-3.3-0.1-5.1,0.9c-1.6,0.9-2.7,2.4-3.2,4.1l-2-0.5
			c0.5-2.2,1.8-4.1,3.8-5.5c1.6-1.1,4-1.9,6-1.6c-1-5.6-2.4-11.3-2.6-16.9c0-0.3,0.1-0.5,0.2-0.6c0,0,0-0.1,0-0.1
			c-1-0.1-1.9-0.1-2.9,0.6c-1.6,1.1-2.3,3-2.1,4.8c0.1,0.5-0.3,0.8-0.8,0.8c-0.3,0.2-0.7,0.3-1,0c-1.4-1-2.8-1.8-4.5-1.2
			c-1.5,0.5-2.3,1.9-2.5,3.4l-1.7-0.1c0-2.1,1.2-4.2,3.2-5.2c1.7-0.8,3.9-0.7,5.5,0.3c0.1-1.8,1-3.5,2.5-4.7c0.8-0.6,1.9-1.1,3-1.3
			c-6.5-12.3-11.7-25.5-17.4-38.2c-5.8-12.8-12-25.5-17.1-38.6c-0.2,0.1-0.3,0.1-0.5,0.1c-10.1-1.3-19,2.6-25.5,10.1
			c0.1,0.1,0.2,0.2,0.2,0.3c0,0,0,0,0,0.1l-1.8,0.9c0,0,0,0,0-0.1c-0.5-0.1-0.9-0.8-0.6-1.3c5.7-9.3,16.8-13.8,27.4-12.4
			c0.2-0.8,1.5-1.1,2-0.3c0.4,0.7,0.7,1.5,1.1,2.2c1.5-3.7-0.4-6.8-3.8-7.9c-0.4,0.3-1.1,0.1-1.4-0.4c-0.6-0.1-1.3-0.2-2-0.1
			c-3.7,0.1-7.6,1.2-11.1,2.3c-4.1,1.3-8.5,2.8-11.7,5.9c-3.4,3.4-5.5,12.1,0.9,13.6l0,1.4c-3.8-0.2-5.9-3.3-6.3-6.8
			c-0.1-1.2,0-2.5,0.3-3.7c1.7-6.7,8.4-10,14.4-12c4-1.3,9.8-3.4,14.9-3.1c-2.8-7.7-19.7-1.6-24.3,0.6c-7,3.5-12.3,11-5.8,17.9
			c0.1,0.1,0.1,0.2,0.1,0.4c0,0.3-0.3,0.6-0.6,0.5c-3.7-1.4-5.2-5.4-4.8-9.2c0-0.2,0.1-0.4,0.1-0.6c-0.3,0.1-0.6,0-0.8-0.3
			c-1.7-3.8-1.5-7.2,0-10.1c-0.2,0.1-0.5,0.1-0.7-0.1c-0.2-0.2-0.3-0.3-0.5-0.5l1.5-0.3c0,0,0,0.1,0.1,0.2c4.2-7.1,16-11,24.3-10.2
			l1.4-0.9c0.3,0.4,0.5,0.8,0.8,1.2c3.7,0.8,6.3,2.8,6.6,6c3,0.7,5.1,2.5,5.1,5.8c1.4,0.4,2.7,1,3.8,2c3.2,2.8,3.5,7.9,0.7,11
			c6,12.1,11.2,24.7,16.7,37c5.7,12.6,12,25.1,17.2,37.9c0.6,0.2,1.1,0.5,1.5,0.9c0.5,0.5,0.3,1.6-0.5,1.7c0,0.4-0.3,0.7-0.6,0.8
			c1.8,6,2.4,12.5,3.4,18.7C118.7,381.8,119.4,386.5,119.8,391.2z M48.3,264.9c3.3-1.5,12.9-4.5,19.8-4c-2.8-6.2-13.9-3.3-19.1-1.5
			c-6.6,2.3-12.1,7.8-10.8,15.1C39.9,270,44.1,266.9,48.3,264.9z"/>
		<path class="st14" d="M115.4,377.5c0.8,4.7,1.7,9.3,2.8,13.8c-3.8-2.7-7.5-5.5-11.3-8.2c0.1-0.3,0.1-0.5,0.2-0.8
			c0.5-1.7,1.7-3.1,3.2-4.1C112,377.4,113.6,377.4,115.4,377.5z"/>
		<path class="st15" d="M114.9,374.9c-2.1-0.3-4.4,0.4-6,1.6c-2,1.3-3.3,3.2-3.8,5.5c-0.1-0.1-0.2-0.2-0.3-0.2
			c-4.4-3.2-8.9-6.9-13.8-9.4c0.6-0.1,0.8-1,0.1-1.3c-0.9-0.4-0.6-1.8-0.2-2.4c0.5-0.8,1.3-1.3,2.2-1.4c0.9-0.2,1.9-0.1,2.8,0.3
			c0.8,0.4,1.2,1,2,1.3c0.7,0.2,1.1-0.4,1-1c-0.1-0.3-0.2-0.6-0.4-0.9c0-0.1,0-0.1,0-0.2c0-0.3,0-0.6,0-0.9c0.2-1.5,1-2.9,2.5-3.4
			c1.8-0.6,3.1,0.2,4.5,1.2c0.3,0.3,0.7,0.2,1,0c0.4,0,0.8-0.3,0.8-0.8c-0.2-1.9,0.5-3.8,2.1-4.8c1-0.6,1.9-0.7,2.9-0.6
			c0,0,0,0.1,0,0.1c-0.1,0.2-0.2,0.4-0.2,0.6C112.5,363.6,113.9,369.3,114.9,374.9z"/>
		<path class="st16" d="M111.2,354.8c-1.2,0.2-2.3,0.7-3,1.3c-1.5,1.2-2.3,2.9-2.5,4.7c-1.6-1-3.8-1.1-5.5-0.3c-2,1-3.2,3-3.2,5.2
			c-0.6-0.3-1.2-0.4-1.6-0.5c-1.6-0.3-3.3,0-4.7,0.9c-0.9,0.6-1.6,1.9-1.8,3.1c-2.3-6.2-5.7-12.1-8.5-18c-3.2-6.9-6.5-13.7-9.7-20.6
			c-6.6-14-12.9-28.1-19.6-42c0,0,0,0,0-0.1c-0.1-0.1-0.1-0.2-0.2-0.3c6.5-7.5,15.4-11.4,25.5-10.1c0.2,0,0.4,0,0.5-0.1
			c5.1,13.1,11.3,25.8,17.1,38.6C99.5,329.3,104.7,342.5,111.2,354.8z M84.8,329.4c4.1-1.6,8-7.2,6.2-11.7c-0.3-0.8-1.4-0.7-1.5,0.2
			c-0.5,4-1.2,8.1-5.6,9.6c-3.9,1.4-8.3-0.5-10.6-3.8c-0.4-0.6-1.3-0.1-0.9,0.5C74.5,328.9,80,331.4,84.8,329.4z M82.3,314.7
			c1,1.7,3.7,0.2,2.7-1.6c-0.6-1.1-1.3-2.2-2-3.3c-1-1.5-3.3-0.2-2.4,1.4C81,312.4,81.6,313.6,82.3,314.7z M73.6,318.7
			c1,0.4,1.8-0.8,1.6-1.6c-0.1-0.6-0.3-1-0.7-1.5c-0.3-0.4-0.6-0.8-0.9-1.1c-0.8-0.8-1.4-1.5-2.6-1.6c-0.3,0-0.8,0.3-0.8,0.6
			c-0.2,1.2,0.3,2,1,3c0.3,0.4,0.6,0.9,0.9,1.3C72.6,318.4,73,318.5,73.6,318.7z"/>
		<path class="st0" d="M91,317.7c1.8,4.5-2,10-6.2,11.7c-4.9,1.9-10.4-0.5-12.6-5.1c-0.3-0.6,0.5-1.1,0.9-0.5
			c2.3,3.3,6.7,5.2,10.6,3.8c4.4-1.5,5.1-5.6,5.6-9.6C89.6,317.1,90.6,316.9,91,317.7z"/>
		<path class="st0" d="M84.9,313.1c1,1.7-1.7,3.3-2.7,1.6c-0.6-1.1-1.2-2.3-1.8-3.4c-0.8-1.6,1.5-3,2.4-1.4
			C83.6,310.9,84.3,312,84.9,313.1z"/>
		<path class="st0" d="M75.3,317.1c0.1,0.9-0.6,2.1-1.6,1.6c-0.6-0.3-1-0.4-1.4-0.9c-0.3-0.4-0.6-0.8-0.9-1.3c-0.7-1-1.2-1.8-1-3
			c0.1-0.4,0.5-0.7,0.8-0.6c1.2,0.1,1.8,0.8,2.6,1.6c0.3,0.4,0.6,0.7,0.9,1.1C75,316.1,75.1,316.5,75.3,317.1z"/>
		<path class="st0" d="M63.2,254l-1.4,0.9c-2.4-3.1-4.5-6.4-6.1-10c0,0,0,0-0.1,0c-5.1-0.5-10.4-0.8-15.2,1.3
			c-4.6,2-7.6,6.4-7.5,11.2c0.4-0.4,1-0.5,1.4,0.1c0.6,1.1,0.7,2.4,1.2,3.6c0.5,1.4,1.2,2.6,2,3.8l-1.5,0.3c-1.1-1.3-2.3-3-2.8-4.7
			c-0.3,0.2-0.7,0.3-0.9-0.1c-2.9-4.9-0.7-10.9,3.5-14.4c5.5-4.6,13.3-4.5,20-3.8c0.4,0.1,0.7,0.2,0.9,0.5c0.6-0.1,1.2,0.1,1.4,0.9
			C59.4,247.3,61.1,250.7,63.2,254z"/>
	</g>
	<g>
		<path class="st0" d="M239.6,404.7c3.2-0.1,5.3,2.8,4.9,5.9c-0.2,1.8-1.4,3.4-2.9,4.1c5.1,9.5,0,23.1-8.8,28.6
			c3.4-0.2,7.2-0.7,10.3-0.1c1,0.2,1.7,0.3,2.3,1.2c1.4,2.2-0.8,5.2-1.7,7c-0.9,2-1.9,4-2.9,6c4.3,0,8.5,0.8,12.5,2.7
			c0.8,0.4,1.2,1.2,0.7,2c-2.9,4.5-6.4,8.1-10.7,11c4.1,2.6,7.8,5.7,11.1,9.3c0.5,0.6,0.4,1.6-0.4,2c-3.9,1.7-8.2,3-12.5,2.9
			c0.5,1.1,0.9,2.2,1.3,2.9c1,1.9,1.9,3.7,2.9,5.6c0.6,1.3,2.2,3.3,1.5,4.8c-1.5,3.2-7.9,0.1-11.5-1.7c0.5,3.9,0.6,7.8,0.3,11.7
			c0,0.7-0.9,1.4-1.6,1.1c-3.6-1.7-6.9-3.8-9.9-6.4c-1.7,4.6-3.2,9.2-4.6,13.8c-0.3,0.9-1.5,1.1-2.1,0.4c-2.7-3-4.9-6.2-6.6-9.7
			c-1.7,4-3.9,7.7-6.4,11.2c-0.7,1-2.1,0.6-2.4-0.5c-1.2-4.1-2.9-7.8-5.1-11.4c-3.2,3.1-6.8,5.5-10.7,7.6c-0.9,0.5-2-0.3-1.9-1.3
			c0.2-4.7,0.7-9.4,1.5-14c-5.1,1.7-10.2,2.7-15.7,3c-1.1,0.1-1.4-1.3-1-2c1.8-3.4,7.5-10.3,3.8-13.3c-1.5-1.2-4.2-1.9-6-2.6
			c-2.3-1-4.6-2-6.8-3c-0.8-0.4-1.2-1.5-0.4-2.2c3-2.4,5.8-4.9,8.6-7.6l-0.6-1.4c0.6-0.3,1.3-0.5,1.9-0.8c-3.9-4-7.6-8.2-11.1-12.5
			c-0.5-0.7-0.4-1.6,0.4-2c5.9-3.1,12-4.8,18.6-5c0,0,0,0,0,0c-3.4-4-5-9.4-5.9-14.5c-0.1-0.8,0.4-1.4,1.1-1.6
			c6.3-1.9,10.9,4.4,16.9,4.4c0.1,0,0.2,0,0.3,0c0.1-0.1,0.2-0.1,0.3-0.2c-0.3,0-0.6-0.2-0.7-0.5c-1.2-3.3-1.1-6.5-0.4-9.9
			c0.5-2.3,0.8-6.2,3.4-7.2c2.6-1,5.2,1.2,6.9,2.9c2.1,2.2,4.7,5,5.9,8c1.5-3.8,4-11.7,8.8-10.9c5.5,1,4.5,8,5.5,12.1
			c3.5-2,9.9-6.4,13.1-3.8c2.2,1.7,1,6.4-0.1,10.1c3.5-3,6.1-6.8,7.4-11.4c1.4-5.1,0.5-9.5-0.9-14.4c-0.4,0-0.9-0.1-1.3-0.3
			c-1.9-0.6-3.2-2.3-3.5-4.2c-0.2-0.1-0.4-0.3-0.5-0.6C233.3,407.2,237.2,404.7,239.6,404.7z M242.4,410c0.1-1.9-1.3-3.4-3.2-3.1
			c-1.8,0.3-2.5,1.5-3.1,2.9c0.1,1.5,1.3,2.8,2.8,3.2c0.3,0.1,0.5,0.1,0.7,0.1c0.2-0.2,0.6-0.2,0.8-0.1
			C241.5,412.6,242.3,411.4,242.4,410z M243,447.2c-0.3-2.5-2.7-1.5-4.5-1.4c-2.4,0-4.7,0.1-7.1,0.1c0.8,0.9,1.6,1.9,2.3,2.9
			c1.8,2.6,3.3,5.4,4.5,8.4c0.8-1.6,1.5-3.2,2.3-4.8C240.9,451.5,243.1,448,243,447.2z M230.7,439.2c0.6-2.4,1.3-2.9-0.6-4.6
			c-2.1-1.8-2.7-0.6-4.9,0.4c-1.5,0.7-3,1.5-4.5,2.2c3.3,1.7,6.3,3.9,9,6.5C229.9,442.2,230.3,440.7,230.7,439.2z M251,461.9
			c-3.5-1.5-7.1-2.4-10.9-2.7c-0.2,0.4-0.4,0.7-0.5,1.1c0,0,0,0,0,0c1.2,3.5,1.9,7.1,2.2,10.7C245.4,468.5,248.4,465.5,251,461.9z
			 M236.4,460.1c-3.1-8.3-8.5-16.2-16.5-20.4c-8.7-4.7-19.4-4.2-27.1,2.1c-0.6,0.5-1.2,0.4-1.6,0.1c-0.2,0.5-0.6,1-1.3,1
			c-0.1,0-0.2,0-0.3,0c-12,9.8-18.1,26.4-12.2,41.3c2.3,5.8,6,10.7,10.7,14.3c0.4,0.1,0.7,0.3,0.9,0.6c6,4.4,13.4,6.6,21,6.1
			c0.5-0.6,1.4-0.8,1.9-0.2c2.1-0.3,4.2-0.7,6.3-1.5C236.8,497.3,242.8,477.4,236.4,460.1z M251.4,482.7c-2.9-2.9-6-5.5-9.5-7.6
			c-0.1,2.9-0.5,5.7-1.2,8.4c0.1,0.1,0.2,0.3,0.3,0.5c0.2,0.4-0.2,0.8-0.6,0.6c0,0,0,0.1,0,0.1c0,0,0,0,0,0
			C244.2,484.5,247.7,484.1,251.4,482.7z M218,436c-0.7-2.7-0.2-6.9-1.6-8.6c-2.8-3.5-5.1,0.2-6.7,2.7c-0.8,1.3-1.6,2.5-2.4,3.7
			C211,433.8,214.6,434.6,218,436z M244.2,499.2c1.1,0.3,1-0.3-0.2-1.6c-1-3.4-3.5-6.5-4.8-9.8c-0.9,2.2-2.1,4.4-3.5,6.4
			c-0.4,0.5-0.7,1-1.1,1.5c0.1,0,0.1,0,0.2,0c2.1,0.8,4.2,1.6,6.3,2.4C242.1,498.4,243.1,498.8,244.2,499.2z M203.5,434
			c-2.4-3.2-6.2-10.2-9.4-8.6c-1.9,0.9-2.2,4.5-2.6,6.5c-0.4,2.4-0.4,4.7,0.3,7.1c0,0,0,0.1,0,0.1
			C195.4,436.2,199.4,434.6,203.5,434z M233.8,508.6c0.2-3.8,0-7.6-0.7-11.4c-2.2,2.3-4.7,4.3-7.4,5.9
			C228.2,505.2,230.9,507,233.8,508.6z M218.3,516.2c1.2-3.8,2.5-7.6,3.8-11.3c-2.9,1.3-6,2.2-9.2,2.6
			C214.4,510.7,216.1,513.6,218.3,516.2z M187.2,442.5c-4.1-1.1-7.9-4.5-12.1-4.1c0.8,4.3,2.4,8.2,4.1,12.3
			C181.4,447.6,184.1,444.8,187.2,442.5z M210.4,507.9C210.4,507.9,210.4,507.9,210.4,507.9c-3.8,0.3-7.6,0-11.3-0.9
			c2.2,3.4,3.9,6.9,5.3,10.7C206.7,514.6,208.7,511.4,210.4,507.9z M172.4,470.4c0.2-5.7,1.8-11.2,4.5-16c-5.2,0.6-10.2,2-15,4.3
			C165.2,462.7,168.7,466.6,172.4,470.4z M196.6,506.2c-2.8-1-5.5-2.3-8-4c-0.5,3.7-0.9,7.3-1.1,11
			C190.8,511.3,193.8,508.9,196.6,506.2z M176,487.4c-2.1-4.3-3.3-9-3.6-13.8c-2.9,3-5.9,5.8-9.1,8.4c3.3,1.5,6.7,2.9,10,4.4
			C174,486.7,175.1,487,176,487.4z M184.9,499.2c-2.5-2.3-4.8-4.9-6.6-7.8c-0.2,0.4-0.4,0.9-0.6,1.3c-1.5,3-3.2,6.1-4.8,9.1
			C176.9,501.4,180.9,500.6,184.9,499.2z"/>
		<path class="st17" d="M239.2,406.9c1.9-0.3,3.3,1.2,3.2,3.1c-0.1,1.3-0.8,2.6-2,3c-0.3-0.1-0.6,0-0.8,0.1c-0.2,0-0.5,0-0.7-0.1
			c-1.4-0.4-2.6-1.7-2.8-3.2C236.7,408.4,237.3,407.2,239.2,406.9z"/>
		<path class="st17" d="M238.5,445.7c1.8,0,4.2-1,4.5,1.4c0.1,0.9-2.1,4.3-2.4,5.1c-0.8,1.6-1.5,3.2-2.3,4.8
			c-1.2-2.9-2.8-5.7-4.5-8.4c-0.7-1-1.5-2-2.3-2.9C233.8,445.8,236.2,445.8,238.5,445.7z"/>
		<path class="st17" d="M230,434.6c1.9,1.7,1.2,2.3,0.6,4.6c-0.4,1.5-0.7,3.1-1.1,4.6c-2.6-2.6-5.7-4.9-9-6.5c1.5-0.7,3-1.5,4.5-2.2
			C227.3,433.9,228,432.7,230,434.6z"/>
		<path class="st17" d="M240.1,459.2c3.9,0.3,7.4,1.2,10.9,2.7c-2.6,3.6-5.6,6.6-9.2,9.1c-0.3-3.6-1.1-7.2-2.2-10.7c0,0,0,0,0,0
			C239.7,459.9,239.9,459.5,240.1,459.2z"/>
		<path class="st11" d="M220,439.7c7.9,4.3,13.4,12.1,16.5,20.4c6.4,17.3,0.3,37.2-18.2,43.5c-2.1,0.7-4.2,1.2-6.3,1.5
			c-0.5-0.7-1.5-0.4-1.9,0.2c-7.6,0.5-15-1.8-21-6.1c-0.2-0.3-0.5-0.6-0.9-0.6c-4.6-3.6-8.3-8.4-10.7-14.3
			c-5.9-14.8,0.3-31.5,12.2-41.3c0.1,0,0.2,0,0.3,0c0.7,0,1.1-0.5,1.3-1c0.4,0.3,1.1,0.4,1.6-0.1C200.5,435.5,211.3,435,220,439.7z
			 M225.8,492.5c4.7-4.6,5.9-14.9-0.9-18.3c-0.9-0.5-1.9,0.5-1.2,1.4c3.2,3.9,4.9,8.7,1.8,13.4c-1.4,2.1-3.5,3.7-5.8,4.6
			c-1.6,0.7-8,2.8-9.1,0.3c-0.2-0.4-0.9-0.4-1,0.1c-0.6,2.9,2.8,3.2,5,3.1C218.7,497,222.9,495.4,225.8,492.5z M218,471
			c-0.1-3.6-5.6-4-7.5-1.7c-1.9,2.2-0.9,6.3,2.1,7c0.8,0.2,1.6-1,0.7-1.4c-1.4-0.7-2.2-2.6-1.4-4c0.5-0.7,1.4-1,2.2-0.9
			c1.1,0.1,1.6,0.9,2.3,1.6C217,471.9,218.1,471.8,218,471z M209.8,481.6c0.2-1.4-1.9-2.2-3-2.3c-1.5-0.1-3,0.5-3.9,1.7
			c-1.8,2.5,0.1,6.2,3.1,6.4c0.7,0,1-1,0.3-1.2c-1.5-0.5-2.7-2.7-1.5-4.1c0.5-0.6,1.4-0.8,2.2-0.7c0.9,0.1,1.4,0.9,2.2,0.9
			C209.4,482.3,209.7,482,209.8,481.6z"/>
		<path class="st17" d="M241.8,475.1c3.5,2.1,6.7,4.7,9.5,7.6c-3.7,1.4-7.1,1.8-11,2.1c0,0,0,0,0,0c0,0,0-0.1,0-0.1
			c0.4,0.1,0.7-0.2,0.6-0.6c-0.1-0.2-0.2-0.4-0.3-0.5C241.4,480.8,241.8,478,241.8,475.1z"/>
		<path class="st17" d="M216.4,427.4c1.4,1.8,0.9,5.9,1.6,8.6c-3.4-1.4-7-2.2-10.6-2.2c0.8-1.2,1.6-2.5,2.4-3.7
			C211.2,427.5,213.6,423.9,216.4,427.4z"/>
		<path class="st17" d="M244,497.6c1.2,1.3,1.3,1.8,0.2,1.6c-1.1-0.4-2.1-0.8-3.2-1.2c-2.1-0.8-4.2-1.6-6.3-2.4c-0.1,0-0.1,0-0.2,0
			c0.4-0.5,0.8-0.9,1.1-1.5c1.5-2,2.6-4.2,3.5-6.4C240.5,491.1,243,494.2,244,497.6z"/>
		<path class="st0" d="M224.9,474.2c6.8,3.4,5.5,13.8,0.9,18.3c-2.9,2.9-7.1,4.4-11.1,4.5c-2.2,0-5.6-0.2-5-3.1
			c0.1-0.5,0.8-0.5,1-0.1c1.1,2.5,7.5,0.4,9.1-0.3c2.3-1,4.4-2.5,5.8-4.6c3-4.7,1.4-9.5-1.8-13.4C223,474.7,224,473.7,224.9,474.2z"
			/>
		<path class="st17" d="M194.1,425.4c3.2-1.6,7.1,5.4,9.4,8.6c-4.1,0.6-8.1,2.2-11.7,5.1c0,0,0-0.1,0-0.1c-0.7-2.3-0.7-4.7-0.3-7.1
			C191.9,429.9,192.2,426.3,194.1,425.4z"/>
		<path class="st0" d="M210.5,469.2c1.9-2.2,7.4-1.8,7.5,1.7c0,0.8-1,1-1.5,0.5c-0.8-0.7-1.2-1.4-2.3-1.6c-0.8-0.1-1.8,0.2-2.2,0.9
			c-0.9,1.4,0,3.3,1.4,4c0.9,0.5,0.1,1.7-0.7,1.4C209.6,475.5,208.6,471.5,210.5,469.2z"/>
		<path class="st17" d="M233.1,497.2c0.6,3.8,0.8,7.5,0.7,11.4c-2.9-1.5-5.6-3.3-8.1-5.5C228.4,501.5,230.9,499.6,233.1,497.2z"/>
		<path class="st0" d="M206.7,479.3c1.1,0.1,3.2,0.9,3,2.3c-0.1,0.4-0.4,0.7-0.8,0.6c-0.8-0.1-1.3-0.8-2.2-0.9
			c-0.8-0.1-1.7,0.1-2.2,0.7c-1.2,1.4,0,3.6,1.5,4.1c0.7,0.2,0.4,1.3-0.3,1.2c-3-0.2-4.9-3.9-3.1-6.4
			C203.7,479.8,205.3,479.2,206.7,479.3z"/>
		<path class="st17" d="M222.1,504.9c-1.4,3.7-2.6,7.5-3.8,11.3c-2.2-2.7-3.9-5.5-5.3-8.7C216.1,507.1,219.2,506.2,222.1,504.9z"/>
		<path class="st17" d="M175.1,438.4c4.2-0.4,8,3,12.1,4.1c-3.1,2.3-5.8,5.1-8,8.2C177.5,446.6,175.9,442.7,175.1,438.4z"/>
		<path class="st17" d="M210.4,507.9C210.4,507.9,210.4,507.9,210.4,507.9c-1.7,3.5-3.7,6.8-6.1,9.8c-1.3-3.8-3.1-7.3-5.3-10.7
			C202.7,507.9,206.6,508.1,210.4,507.9z"/>
		<path class="st17" d="M176.9,454.3c-2.7,4.8-4.3,10.3-4.5,16c-3.7-3.8-7.2-7.7-10.5-11.8C166.7,456.3,171.6,454.9,176.9,454.3z"/>
		<path class="st17" d="M188.6,502.2c2.5,1.7,5.1,3,8,4c-2.8,2.8-5.7,5.1-9.1,7C187.7,509.5,188.1,505.8,188.6,502.2z"/>
		<path class="st17" d="M172.4,473.6c0.3,4.8,1.5,9.5,3.6,13.8c-1-0.4-2-0.7-2.7-1c-3.3-1.5-6.7-2.9-10-4.4
			C166.5,479.3,169.5,476.6,172.4,473.6z"/>
		<path class="st17" d="M178.2,491.4c1.8,2.9,4.1,5.6,6.6,7.8c-3.9,1.3-7.9,2.1-12.1,2.5c1.6-3,3.3-6,4.8-9.1
			C177.8,492.3,178.1,491.9,178.2,491.4z"/>
		<path class="st0" d="M168.1,472.3l0.6,1.4c-11.5,6.1-27.3,2.3-33.8-9.4c-1.5,1.1-3.5,1.4-5.2,0.6c-2.7-1.3-3.4-4.9-1.8-7.3
			c0.1-0.2,0.3-0.3,0.4-0.2c0.9-1.1,2.1-1.8,3.5-1.8c2.9,0,5.4,3,4.8,5.8c-0.1,0.5-0.3,1-0.6,1.5
			C144.3,473.3,155.8,477.3,168.1,472.3z M134.7,461.2c0.4-1.5-0.9-3.4-2.5-3.5c-2-0.2-3.2,2-3,3.7c0,0.2,0,0.4-0.1,0.6
			c0.4,0.6,0.9,1,1.5,1.3C132.1,463.9,134.3,462.9,134.7,461.2z"/>
		<path class="st17" d="M132.2,457.7c1.6,0.2,2.9,2,2.5,3.5c-0.4,1.7-2.5,2.6-4.1,2.1c-0.7-0.2-1.2-0.7-1.5-1.3
			c0.1-0.2,0.2-0.3,0.1-0.6C129,459.7,130.2,457.5,132.2,457.7z"/>
	</g>
	<path class="st18" d="M20.5,182.5c4-1,8.1,3.7,6.1,8c-2.6,5.4-10.9,4.5-12.4-1.2c-0.6-2.4,0.5-4.9,2.7-6.1c0.9-0.5,2.1-0.9,3.1-0.7
		C20.2,182.4,20.4,182.4,20.5,182.5z"/>
	<path class="st18" d="M269.6,125.5c4-1,8.1,3.7,6.1,8c-2.6,5.4-10.9,4.5-12.4-1.2c-0.6-2.4,0.5-4.9,2.7-6.1
		c0.9-0.5,2.1-0.9,3.1-0.7C269.3,125.5,269.4,125.5,269.6,125.5z"/>
	<path class="st18" d="M616.2,79.4c4-1,8.1,3.7,6.1,8c-2.5,5.4-10.9,4.5-12.4-1.2c-0.6-2.4,0.5-4.9,2.6-6.1c0.9-0.5,2.1-0.9,3.2-0.7
		C615.9,79.3,616.1,79.4,616.2,79.4z"/>
	<path class="st18" d="M408.3,294.6c4-1,8.1,3.7,6.1,8c-2.5,5.4-10.9,4.5-12.4-1.2c-0.6-2.4,0.5-4.9,2.7-6.1
		c0.9-0.5,2.1-0.9,3.1-0.7C408,294.5,408.1,294.5,408.3,294.6z"/>
	<path class="st18" d="M18.6,120.9c0.9,1.2-0.6,2.9-1.9,2.5c-1.7-0.5-3.3-0.9-5-1.2c-0.7,1.2-1.3,2.3-2,3.5c-0.5,1-1.5,1-2.2,0.6
		c-0.6,0-1.2-0.4-1.3-1.2c-0.1-1.3-0.1-2.6-0.1-3.9c-1.5-0.2-2.9-0.4-4.4-0.4c-1.8-0.1-2.3-2.2-0.9-3.2c1.7-1.2,3.4-2.4,5.2-3.4
		c0-2.3,0-4.5-0.1-6.8c0-1.7,2.2-2.1,3-0.8c1,1.5,1.9,2.9,2.9,4.3c1.1-0.6,2.2-1.1,3.4-1.6c1.5-0.7,3.2,0.8,2.4,2.4
		c-0.8,1.4-1.6,2.8-2.4,4.3C16.3,117.6,17.5,119.3,18.6,120.9z"/>
	<path class="st18" d="M458.1,217c0.9,1.2-0.6,2.9-1.9,2.5c-1.7-0.5-3.3-0.9-5-1.2c-0.6,1.2-1.3,2.4-1.9,3.5c-0.5,1-1.5,1-2.2,0.6
		c-0.6,0-1.2-0.4-1.3-1.2c-0.1-1.3-0.1-2.6-0.1-3.9c-1.5-0.2-2.9-0.4-4.4-0.4c-1.8-0.1-2.3-2.2-0.9-3.2c1.7-1.2,3.4-2.4,5.2-3.4
		c0-2.3,0-4.5-0.1-6.8c0-1.7,2.2-2.1,3-0.8c1,1.5,1.9,2.9,2.9,4.3c1.1-0.6,2.2-1.1,3.4-1.6c1.5-0.7,3.2,0.8,2.4,2.4
		c-0.8,1.4-1.6,2.9-2.4,4.3C455.8,213.6,457,215.3,458.1,217z"/>
	<path class="st18" d="M271,443.5c0.9,1.2-0.6,2.9-1.9,2.5c-1.7-0.5-3.3-0.8-5-1.2c-0.6,1.2-1.3,2.4-1.9,3.5c-0.5,1-1.5,1-2.2,0.6
		c-0.6,0-1.2-0.4-1.3-1.2c-0.1-1.3-0.1-2.6-0.1-3.9c-1.5-0.2-2.9-0.4-4.4-0.4c-1.8-0.1-2.3-2.2-0.9-3.2c1.7-1.2,3.4-2.4,5.2-3.4
		c0-2.3,0-4.5-0.1-6.8c0-1.7,2.2-2.1,3-0.8c1,1.5,1.9,2.9,2.9,4.3c1.1-0.6,2.2-1.1,3.4-1.6c1.5-0.7,3.2,0.8,2.4,2.4
		c-0.8,1.4-1.6,2.9-2.4,4.3C268.8,440.2,269.9,441.9,271,443.5z"/>
	<path class="st18" d="M622.1,30c-0.4,2.8-3.5,4.4-5.6,5.6c-2.2,1.2-5.1,3-7.4,1c-2.4-2-3.9-6.5-4.7-9.3c-0.6-2.2-0.4-5.2,2.4-5.7
		c2.3-0.4,4.3,1.6,5.2,3.5c0.3,0.7,0.5,1.4,0.6,2.2c1.7-1.4,3.8-2.4,6-1.8C620.7,26,622.4,27.8,622.1,30z"/>
	<path class="st18" d="M490,421.6c-0.4,2.8-3.5,4.4-5.6,5.6c-2.2,1.2-5.1,3-7.4,1c-2.4-2-3.9-6.5-4.7-9.3c-0.6-2.2-0.4-5.2,2.4-5.7
		c2.3-0.4,4.3,1.6,5.2,3.5c0.3,0.7,0.5,1.4,0.6,2.2c1.7-1.4,3.8-2.4,6-1.8C488.6,417.6,490.3,419.5,490,421.6z"/>
	<path class="st18" d="M118.6,274.7c-0.4,2.8-3.5,4.4-5.6,5.6c-2.2,1.2-5.1,3-7.4,1c-2.4-2-3.9-6.5-4.7-9.3
		c-0.6-2.2-0.4-5.2,2.4-5.7c2.3-0.4,4.3,1.6,5.2,3.5c0.3,0.7,0.5,1.4,0.6,2.2c1.7-1.4,3.8-2.4,6-1.8
		C117.2,270.7,118.9,272.5,118.6,274.7z"/>
	<path class="st18" d="M160.8,161.3c-0.1,1.9-1.2,3.8-3.2,4.6c-3.4,1.3-5.9-1.1-7.5-3.9c-2.1,1.9-5.3,2.6-8,0.9
		c-2.9-1.9-3.3-5.4-1.9-8.2c-4.6-0.6-10-2.7-8-7.6c1.8-4.3,6.9-4.9,11.1-3.9c0.1-2.7,2.1-5.2,5.5-4.9c4.7,0.4,6.4,4.9,5.2,8.9
		c5.7-2.3,13.1-1.3,14.6,5.9C169.7,158.4,165.2,162,160.8,161.3z M137,150.8c0-0.2,0-0.4,0.1-0.5c-0.3-0.2-0.6-0.5-0.9-0.7
		C136,150.1,136.2,150.5,137,150.8z M141.4,146.4c0,0,0.1-0.1,0.1-0.1c0,0,0,0,0,0c-1-0.2-2-0.1-2.8,0.2c0.1,0.1,0.2,0.1,0.4,0.2
		C139.9,146.3,140.7,146.2,141.4,146.4z"/>
	<path class="st18" d="M329.9,321.2c1.3,1.4,2,3.4,1.2,5.5c-1.3,3.4-4.8,3.6-8,2.9c0,2.9-1.7,5.7-4.7,6.4c-3.4,0.9-6.2-1.3-7.3-4.2
		c-3.5,2.9-8.8,5.5-11,0.7c-1.9-4.2,1.1-8.4,4.7-10.8c-1.9-2-2.4-5,0.2-7.4c3.4-3.2,8-1.3,10,2.3c2.2-5.7,8-10.5,14.2-6.7
		C333.8,312.7,333.3,318.5,329.9,321.2z M305.9,331.5c-0.1-0.1-0.3-0.3-0.4-0.4c-0.4,0.1-0.7,0.1-1.1,0.1
		C304.7,331.8,305.2,331.9,305.9,331.5z M305.8,325.3c0-0.1,0-0.1,0-0.1c0,0,0,0,0,0c-0.8,0.6-1.5,1.4-1.8,2.2
		c0.1,0,0.3-0.1,0.4-0.1C304.6,326.4,305.1,325.7,305.8,325.3z"/>
	<path class="st18" d="M620.8,314.3c1.3,1.4,2,3.4,1.2,5.5c-1.3,3.4-4.8,3.6-8,2.9c0,2.9-1.7,5.7-4.7,6.4c-3.4,0.9-6.2-1.3-7.3-4.2
		c-3.5,2.9-8.8,5.5-11,0.7c-1.9-4.2,1.1-8.4,4.7-10.8c-1.9-2-2.4-5,0.2-7.4c3.4-3.2,8-1.3,10,2.3c2.2-5.7,8-10.5,14.2-6.7
		C624.7,305.8,624.2,311.6,620.8,314.3z M596.8,324.6c-0.1-0.1-0.3-0.3-0.4-0.4c-0.4,0.1-0.7,0.1-1.1,0.1
		C595.6,324.9,596.1,325,596.8,324.6z M596.6,318.3c0-0.1,0-0.1,0-0.1c0,0,0,0,0,0c-0.8,0.6-1.5,1.4-1.8,2.2c0.1,0,0.3-0.1,0.4-0.1
		C595.5,319.4,596,318.8,596.6,318.3z"/>
	<path class="st4" d="M279.2,15.8c4-1,8.1,3.7,6.1,8c-2.6,5.4-10.9,4.5-12.4-1.2c-0.6-2.4,0.5-4.9,2.6-6.1c0.9-0.5,2.1-0.9,3.2-0.7
		C278.9,15.8,279.1,15.8,279.2,15.8z"/>
	<path class="st4" d="M666.4,155.5c4-1,8.1,3.7,6.1,8c-2.6,5.4-10.9,4.5-12.4-1.2c-0.6-2.4,0.5-4.9,2.6-6.1c0.9-0.5,2.1-0.9,3.2-0.7
		C666.1,155.4,666.2,155.4,666.4,155.5z"/>
	<path class="st4" d="M523.7,407.6c4-1,8.1,3.7,6.1,8c-2.5,5.4-10.9,4.5-12.4-1.2c-0.6-2.4,0.5-4.9,2.7-6.1c0.9-0.5,2.1-0.9,3.1-0.7
		C523.4,407.5,523.6,407.6,523.7,407.6z"/>
	<path class="st4" d="M66.5,211.9c0.9,1.2-0.6,2.9-1.9,2.5c-1.7-0.5-3.3-0.9-5-1.2c-0.7,1.2-1.3,2.3-2,3.5c-0.5,1-1.5,1-2.2,0.6
		c-0.6,0-1.2-0.4-1.3-1.2c-0.1-1.3-0.1-2.6-0.1-3.9c-1.5-0.2-3-0.4-4.4-0.4c-1.8-0.1-2.3-2.2-0.9-3.2c1.7-1.2,3.4-2.4,5.2-3.4
		c0-2.3,0-4.5-0.1-6.8c0-1.7,2.2-2.1,3-0.8c1,1.4,1.9,2.9,2.9,4.3c1.1-0.6,2.2-1.1,3.4-1.6c1.5-0.7,3.2,0.8,2.4,2.4
		c-0.8,1.4-1.6,2.8-2.4,4.3C64.2,208.5,65.4,210.2,66.5,211.9z"/>
	<path class="st4" d="M255,161.1c0.9,1.2-0.6,2.9-1.9,2.5c-1.7-0.5-3.3-0.9-5-1.2c-0.7,1.2-1.3,2.3-2,3.5c-0.5,1-1.5,1-2.2,0.6
		c-0.6,0-1.2-0.4-1.3-1.2c-0.1-1.3-0.1-2.6-0.1-3.9c-1.5-0.2-2.9-0.4-4.4-0.4c-1.8-0.1-2.3-2.2-0.9-3.2c1.7-1.2,3.4-2.4,5.2-3.4
		c0-2.3-0.1-4.5-0.1-6.8c0-1.7,2.2-2.1,3.1-0.8c1,1.4,1.9,2.9,2.9,4.3c1.1-0.6,2.2-1.1,3.4-1.6c1.5-0.7,3.2,0.8,2.4,2.4
		c-0.8,1.4-1.6,2.8-2.4,4.3C252.7,157.8,253.8,159.5,255,161.1z"/>
	<path class="st4" d="M460.3,82c0.9,1.2-0.6,2.9-1.9,2.5c-1.7-0.5-3.3-0.8-5-1.2c-0.6,1.2-1.3,2.4-2,3.5c-0.5,1-1.5,1-2.2,0.6
		c-0.6,0-1.2-0.4-1.3-1.2c-0.1-1.3-0.1-2.6-0.1-3.9c-1.5-0.2-3-0.3-4.4-0.4c-1.8-0.1-2.3-2.2-0.9-3.2c1.7-1.2,3.4-2.4,5.2-3.5
		c0-2.3-0.1-4.5-0.1-6.8c0-1.7,2.2-2.1,3.1-0.8c1,1.5,1.9,2.9,2.9,4.3c1.1-0.6,2.2-1.1,3.4-1.6c1.5-0.7,3.2,0.8,2.3,2.4
		c-0.8,1.4-1.6,2.8-2.4,4.3C458,78.7,459.2,80.3,460.3,82z"/>
	<path class="st4" d="M599.5,273.8c0.9,1.2-0.6,2.9-1.9,2.5c-1.7-0.5-3.3-0.9-5-1.2c-0.7,1.2-1.3,2.4-2,3.5c-0.5,1-1.5,1-2.2,0.6
		c-0.6,0-1.2-0.4-1.3-1.2c-0.1-1.3-0.1-2.6-0.1-3.9c-1.5-0.2-3-0.4-4.4-0.4c-1.8-0.1-2.3-2.2-0.9-3.2c1.7-1.2,3.4-2.4,5.2-3.5
		c0-2.3,0-4.5-0.1-6.8c0-1.7,2.2-2.1,3-0.8c1,1.4,1.9,2.9,2.9,4.3c1.1-0.6,2.2-1.1,3.4-1.6c1.5-0.7,3.2,0.8,2.3,2.4
		c-0.8,1.4-1.6,2.9-2.4,4.3C597.2,270.5,598.4,272.2,599.5,273.8z"/>
	<path class="st4" d="M138.6,414.6c1.9,2.1,1.1,5.5,0.6,7.9c-0.5,2.5-1,5.8-4,6.3c-3,0.6-7.5-1.3-10.2-2.5c-2.1-0.9-4.3-3.1-2.8-5.5
		c1.2-2,4-2.3,6-1.8c0.8,0.2,1.4,0.5,2.1,0.9c0-2.2,0.6-4.5,2.5-5.8C134.7,413,137.2,413,138.6,414.6z"/>
	<path class="st4" d="M101.1,72c1.9,2.1,1.1,5.5,0.6,7.9c-0.5,2.5-1,5.8-4,6.3c-3,0.6-7.4-1.3-10.1-2.5c-2.1-0.9-4.3-3.1-2.8-5.5
		c1.2-2,4-2.3,6-1.8c0.8,0.2,1.4,0.5,2.1,0.9c0-2.2,0.6-4.5,2.5-5.8C97.1,70.5,99.6,70.4,101.1,72z"/>
	<path class="st4" d="M501.6,517.7c-1.1,2.6-4.5,3.3-6.9,3.9c-2.5,0.6-5.7,1.5-7.4-1c-1.8-2.5-2-7.3-2-10.3c0-2.3,1-5.2,3.8-4.9
		c2.3,0.2,3.8,2.7,4.1,4.7c0.1,0.8,0.1,1.5,0,2.3c2-0.9,4.3-1.3,6.3-0.1C501.3,513.4,502.5,515.7,501.6,517.7z"/>
	<path class="st4" d="M584.1,139.4c-1.1,2.6-4.5,3.3-6.9,3.9c-2.5,0.6-5.7,1.5-7.4-1c-1.8-2.5-2-7.3-2-10.3c0-2.3,1-5.2,3.8-4.9
		c2.3,0.2,3.8,2.7,4.1,4.7c0.1,0.8,0.1,1.5,0,2.3c2-0.9,4.3-1.3,6.3-0.1C583.9,135.1,585,137.4,584.1,139.4z"/>
	<path class="st4" d="M674.5,117.2c-1.1,2.6-4.5,3.3-6.9,3.9c-2.5,0.6-5.7,1.5-7.4-1c-1.8-2.5-2-7.3-2-10.3c0-2.3,1-5.2,3.8-4.9
		c2.3,0.2,3.8,2.7,4.1,4.7c0.1,0.8,0.1,1.5,0,2.3c2-0.9,4.3-1.3,6.3-0.1C674.2,112.9,675.4,115.2,674.5,117.2z"/>
	<path class="st4" d="M504.4,211.2c-0.8,1.8-2.5,3.1-4.6,3.2c-3.7,0-5.2-3.1-5.6-6.3c-2.7,1.1-5.9,0.5-7.8-2c-2-2.8-1.1-6.2,1.1-8.4
		c-4-2.2-8.4-6.1-4.7-9.9c3.2-3.4,8.2-2.1,11.8,0.4c1.1-2.5,3.8-4.1,6.9-2.6c4.2,2,4.2,6.9,1.6,10.1c6.2-0.1,12.7,3.5,11.5,10.7
		C513.7,211.7,508.2,213.4,504.4,211.2z M485.9,192.8c0.1-0.2,0.1-0.3,0.3-0.5c-0.2-0.3-0.4-0.6-0.6-1
		C485.2,191.8,485.3,192.3,485.9,192.8z M491.7,190.3c0,0,0.1-0.1,0.1-0.1c0,0,0,0,0,0c-0.9-0.5-1.8-0.8-2.7-0.8
		c0.1,0.1,0.2,0.2,0.3,0.3C490.2,189.7,491,189.9,491.7,190.3z"/>
	<path class="st4" d="M370.5,28.2c-0.8,1.8-2.5,3.1-4.6,3.2c-3.7,0-5.2-3.1-5.6-6.3c-2.7,1.1-5.9,0.5-7.8-2c-2-2.8-1.1-6.2,1.1-8.4
		c-4-2.2-8.4-6.1-4.7-9.9c3.2-3.4,8.2-2.1,11.8,0.4c1.1-2.5,3.8-4.1,6.9-2.6c4.2,2,4.2,6.9,1.6,10.1c6.2-0.1,12.7,3.5,11.5,10.7
		C379.9,28.7,374.3,30.4,370.5,28.2z M352,9.8c0.1-0.2,0.1-0.3,0.3-0.5c-0.2-0.3-0.4-0.6-0.6-1C351.3,8.8,351.4,9.3,352,9.8z
		 M357.8,7.3c0,0,0.1-0.1,0.1-0.1c0,0,0,0,0,0c-0.9-0.5-1.8-0.8-2.7-0.8c0.1,0.1,0.2,0.2,0.3,0.3C356.3,6.7,357.1,6.9,357.8,7.3z"/>
	<path class="st4" d="M245.6,395.9c-0.8,1.8-2.5,3.1-4.6,3.2c-3.7,0-5.2-3.1-5.6-6.3c-2.7,1.1-5.9,0.5-7.8-2c-2-2.8-1.1-6.2,1.1-8.4
		c-4-2.2-8.4-6.1-4.7-9.9c3.2-3.4,8.2-2.1,11.8,0.4c1.1-2.5,3.8-4.1,6.9-2.6c4.2,2,4.2,6.9,1.6,10.1c6.2-0.1,12.7,3.5,11.5,10.7
		C254.9,396.4,249.3,398.1,245.6,395.9z M227,377.5c0.1-0.2,0.1-0.3,0.3-0.5c-0.2-0.3-0.4-0.6-0.6-1
		C226.3,376.5,226.4,377,227,377.5z M232.8,375c0,0,0.1-0.1,0.1-0.1c0,0,0,0,0,0c-0.9-0.5-1.8-0.8-2.7-0.8c0.1,0.1,0.2,0.2,0.3,0.3
		C231.4,374.4,232.1,374.6,232.8,375z"/>
	<path class="st7" d="M15.9,220.4c4-1,8.1,3.7,6.1,8c-2.5,5.4-10.9,4.5-12.4-1.2c-0.6-2.4,0.5-4.9,2.6-6.1c0.9-0.5,2.1-0.9,3.2-0.7
		C15.6,220.4,15.8,220.4,15.9,220.4z"/>
	<path class="st7" d="M505,113c4-1,8.1,3.7,6.1,8c-2.6,5.4-10.9,4.5-12.4-1.2c-0.6-2.4,0.5-4.9,2.6-6.1c0.9-0.5,2.1-0.9,3.1-0.7
		C504.7,112.9,504.8,112.9,505,113z"/>
	<path class="st7" d="M277.1,489.1c4-1,8.1,3.7,6.1,8c-2.6,5.4-10.9,4.5-12.4-1.2c-0.6-2.4,0.5-4.9,2.6-6.1c0.9-0.5,2.1-0.9,3.2-0.7
		C276.8,489.1,276.9,489.1,277.1,489.1z"/>
	<path class="st7" d="M375.9,118.1c-0.4,1.5-2.5,1.4-3.1,0.2c-0.7-1.6-1.5-3.1-2.3-4.6c-1.3,0.3-2.6,0.5-3.9,0.8
		c-1.1,0.2-1.8-0.5-1.9-1.3c-0.4-0.5-0.5-1.2,0.1-1.7c0.9-0.9,1.9-1.8,2.9-2.6c-0.8-1.2-1.7-2.5-2.6-3.7c-1.1-1.4,0.2-3.2,1.9-2.8
		c2,0.5,4,1.1,6,1.7c1.7-1.5,3.4-3,5.1-4.5c1.3-1.1,3,0.3,2.6,1.8c-0.5,1.7-0.9,3.3-1.4,5c1.1,0.5,2.3,1,3.4,1.5
		c1.5,0.7,1.5,2.9-0.3,3.3c-1.6,0.3-3.2,0.7-4.8,1C376.9,114.2,376.4,116.2,375.9,118.1z"/>
	<path class="st7" d="M658.7,250c-0.4,1.5-2.5,1.4-3.1,0.2c-0.7-1.6-1.5-3.1-2.3-4.6c-1.3,0.3-2.6,0.5-3.9,0.8
		c-1.1,0.2-1.8-0.5-1.9-1.3c-0.4-0.5-0.5-1.2,0.1-1.7c0.9-0.9,1.9-1.8,2.9-2.6c-0.8-1.2-1.7-2.5-2.6-3.7c-1.1-1.4,0.2-3.2,1.9-2.8
		c2,0.5,4,1.1,6,1.7c1.7-1.5,3.4-3,5.1-4.5c1.3-1.1,3,0.3,2.6,1.8c-0.5,1.7-0.9,3.3-1.4,5c1.1,0.5,2.3,1,3.4,1.5
		c1.5,0.7,1.5,2.9-0.3,3.3c-1.6,0.3-3.2,0.7-4.8,1C659.8,246.1,659.2,248.1,658.7,250z"/>
	<path class="st7" d="M149.8,339c-0.4,1.5-2.5,1.4-3.1,0.2c-0.7-1.6-1.5-3.1-2.3-4.6c-1.3,0.3-2.6,0.5-3.9,0.8
		c-1.1,0.2-1.8-0.5-1.9-1.3c-0.4-0.5-0.5-1.2,0.1-1.7c0.9-0.9,1.9-1.8,2.9-2.6c-0.8-1.2-1.7-2.5-2.6-3.7c-1.1-1.4,0.2-3.2,1.9-2.8
		c2,0.5,4,1.1,6,1.7c1.7-1.5,3.4-3,5.1-4.5c1.3-1.1,3,0.3,2.6,1.8c-0.5,1.7-0.9,3.3-1.4,5c1.1,0.5,2.3,1,3.4,1.5
		c1.5,0.7,1.5,2.9-0.3,3.3c-1.6,0.3-3.2,0.7-4.8,1C150.9,335.1,150.3,337,149.8,339z"/>
	<path class="st7" d="M286.5,198.4c1.9,2.1,1.1,5.5,0.6,7.9c-0.5,2.5-1,5.8-4,6.3c-3,0.6-7.5-1.3-10.1-2.5c-2.1-0.9-4.3-3.1-2.8-5.5
		c1.2-2,4-2.3,6-1.8c0.8,0.2,1.4,0.5,2.1,0.9c0-2.2,0.6-4.5,2.5-5.8C282.5,196.8,285,196.8,286.5,198.4z"/>
	<path class="st7" d="M455.4,376.2c-2.1,1.8-5.5,1-7.9,0.5c-2.5-0.5-5.8-1.1-6.3-4.1c-0.5-3,1.4-7.4,2.7-10.1c1-2.1,3.1-4.2,5.6-2.7
		c2,1.2,2.2,4,1.6,6.1c-0.2,0.8-0.6,1.4-0.9,2c2.2,0.1,4.4,0.7,5.7,2.6C457,372.2,457,374.8,455.4,376.2z"/>
	<path class="st7" d="M537.7,272.5c1.2,2.5-0.4,5.6-1.5,7.8c-1.1,2.3-2.5,5.3-5.5,5c-3.1-0.3-6.8-3.2-9.1-5.1
		c-1.8-1.5-3.3-4.1-1.3-6.1c1.7-1.6,4.5-1.1,6.3-0.1c0.7,0.4,1.2,0.9,1.7,1.4c0.6-2.1,1.8-4.1,4-4.9
		C534.3,269.9,536.7,270.5,537.7,272.5z"/>
	<path class="st7" d="M208.5,18.7c1.5,1.3,2.3,3.3,1.6,5.4c-1.1,3.5-4.5,4-7.7,3.5c0.2,2.9-1.2,5.8-4.2,6.8
		c-3.3,1.1-6.3-0.8-7.6-3.5c-3.3,3.2-8.3,6.2-10.9,1.6c-2.3-4.1,0.4-8.5,3.8-11.1c-2.1-1.8-2.8-4.8-0.4-7.4c3.2-3.5,7.8-2,10.2,1.4
		c1.7-5.9,7.1-11.1,13.6-7.8C211.7,9.9,211.7,15.7,208.5,18.7z M185.5,31c-0.1-0.1-0.3-0.2-0.4-0.4c-0.4,0.1-0.7,0.2-1.1,0.2
		C184.3,31.4,184.8,31.4,185.5,31z M184.8,24.8c0-0.1,0-0.1-0.1-0.1c0,0,0,0,0,0c-0.7,0.7-1.3,1.5-1.6,2.3c0.1-0.1,0.3-0.1,0.4-0.2
		C183.7,25.9,184.2,25.3,184.8,24.8z"/>
	<path class="st7" d="M592.4,407.5c-0.6,1.9-2.1,3.4-4.2,3.7c-3.6,0.4-5.5-2.5-6.3-5.6c-2.5,1.4-5.8,1.2-7.9-1.1
		c-2.3-2.5-1.8-6.1,0.2-8.4c-4.3-1.7-9-5.1-5.8-9.3c2.8-3.7,7.9-3,11.7-1c0.8-2.6,3.3-4.5,6.6-3.3c4.4,1.5,4.9,6.4,2.8,9.9
		c6.1-0.8,13,2,12.6,9.3C601.7,406.8,596.4,409.2,592.4,407.5z M571.9,391.3c0.1-0.2,0.1-0.4,0.2-0.5c-0.2-0.3-0.5-0.6-0.7-0.9
		C571.1,390.4,571.2,390.9,571.9,391.3z M577.3,388.2c0,0,0.1-0.1,0.1-0.1c0,0,0,0,0,0c-0.9-0.4-1.9-0.6-2.8-0.5
		c0.1,0.1,0.2,0.2,0.3,0.3C575.8,387.7,576.6,387.8,577.3,388.2z"/>
	<path class="st5" d="M615.8,351.5c4-1,8.1,3.7,6.1,8c-2.5,5.4-10.9,4.5-12.4-1.2c-0.6-2.4,0.5-4.9,2.7-6.1c0.9-0.5,2.1-0.9,3.2-0.7
		C615.5,351.4,615.7,351.4,615.8,351.5z"/>
	<path class="st5" d="M59.9,86.4c0.9,1.2-0.6,2.9-1.9,2.5c-1.7-0.5-3.3-0.9-5-1.2c-0.7,1.2-1.3,2.3-2,3.5c-0.5,1-1.5,1-2.2,0.6
		c-0.6,0-1.2-0.4-1.3-1.2c-0.1-1.3-0.1-2.6-0.1-3.9c-1.5-0.2-3-0.3-4.4-0.4c-1.8-0.1-2.3-2.2-0.9-3.2c1.7-1.2,3.4-2.4,5.2-3.4
		c0-2.3-0.1-4.5-0.1-6.8c0-1.7,2.2-2.1,3.1-0.8c1,1.4,1.9,2.9,2.9,4.3c1.1-0.6,2.2-1.1,3.4-1.6c1.5-0.7,3.2,0.8,2.3,2.4
		c-0.8,1.4-1.6,2.8-2.4,4.3C57.6,83,58.7,84.7,59.9,86.4z"/>
	<path class="st5" d="M315.1,270.9c0.9,1.2-0.6,2.9-1.9,2.5c-1.7-0.5-3.3-0.8-5-1.2c-0.6,1.2-1.3,2.4-2,3.5c-0.5,1-1.5,1-2.2,0.6
		c-0.6,0-1.2-0.4-1.3-1.2c-0.1-1.3-0.1-2.6-0.1-3.9c-1.5-0.2-3-0.4-4.4-0.4c-1.8-0.1-2.3-2.2-0.9-3.2c1.7-1.2,3.4-2.4,5.2-3.4
		c0-2.3-0.1-4.5-0.1-6.8c0-1.7,2.2-2.1,3-0.8c1,1.5,1.9,2.9,2.9,4.3c1.1-0.6,2.2-1.1,3.4-1.6c1.5-0.7,3.2,0.8,2.3,2.4
		c-0.8,1.4-1.6,2.9-2.4,4.3C312.8,267.6,313.9,269.3,315.1,270.9z"/>
	<path class="st5" d="M490.8,245.9c0.9,1.2-0.6,2.9-1.9,2.5c-1.7-0.5-3.3-0.9-5-1.2c-0.6,1.2-1.3,2.3-1.9,3.5c-0.5,1-1.5,1-2.2,0.6
		c-0.6,0-1.2-0.4-1.3-1.2c-0.1-1.3-0.1-2.6-0.1-3.9c-1.5-0.2-2.9-0.4-4.4-0.4c-1.8-0.1-2.3-2.2-0.9-3.2c1.7-1.2,3.4-2.4,5.2-3.4
		c0-2.3,0-4.5-0.1-6.8c0-1.7,2.2-2.1,3-0.8c1,1.4,1.9,2.9,2.9,4.3c1.1-0.6,2.2-1.1,3.4-1.6c1.5-0.7,3.2,0.8,2.4,2.4
		c-0.8,1.4-1.6,2.8-2.4,4.3C488.5,242.5,489.6,244.2,490.8,245.9z"/>
	<path class="st5" d="M479.8,29.3c0.9,1.2-0.6,2.9-1.9,2.5c-1.7-0.5-3.3-0.8-5-1.2c-0.6,1.2-1.3,2.3-2,3.5c-0.5,1-1.5,1-2.2,0.6
		c-0.6,0-1.2-0.4-1.3-1.2c-0.1-1.3-0.1-2.6-0.1-3.9c-1.5-0.2-3-0.4-4.4-0.4c-1.8-0.1-2.3-2.2-0.9-3.2c1.7-1.2,3.4-2.4,5.2-3.4
		c0-2.3-0.1-4.5-0.1-6.8c0-1.7,2.2-2.1,3.1-0.8c1,1.4,1.9,2.9,2.9,4.3c1.1-0.6,2.2-1.1,3.4-1.6c1.5-0.7,3.2,0.8,2.3,2.4
		c-0.8,1.4-1.6,2.8-2.4,4.3C477.5,26,478.7,27.6,479.8,29.3z"/>
	<path class="st5" d="M614.7,210.3c1.9,2.1,1.1,5.5,0.6,7.9c-0.5,2.5-1,5.8-4,6.3c-3,0.6-7.5-1.3-10.2-2.5c-2.1-0.9-4.3-3.1-2.8-5.5
		c1.2-2,4-2.3,6-1.8c0.8,0.2,1.4,0.5,2.1,0.9c0-2.2,0.6-4.5,2.5-5.8C610.7,208.8,613.2,208.7,614.7,210.3z"/>
	<path class="st5" d="M538.5,374c1.9,2.1,1.1,5.5,0.6,7.9c-0.5,2.5-1,5.8-4,6.3c-3,0.6-7.5-1.3-10.1-2.5c-2.1-0.9-4.3-3.1-2.8-5.5
		c1.2-2,4-2.3,6-1.8c0.8,0.2,1.4,0.5,2.1,0.9c0-2.2,0.6-4.5,2.5-5.8C534.5,372.4,537,372.4,538.5,374z"/>
	<path class="st5" d="M279.1,343.7c1.9,2.1,1.1,5.5,0.6,7.9c-0.5,2.5-1,5.8-4,6.3c-3,0.5-7.4-1.3-10.1-2.5c-2.1-1-4.3-3.1-2.8-5.5
		c1.2-2,4-2.3,6-1.8c0.8,0.2,1.4,0.5,2.1,0.9c0-2.2,0.6-4.5,2.5-5.8C275.1,342.1,277.6,342.1,279.1,343.7z"/>
	<path class="st5" d="M151.8,98.8c1.5,1.3,2.3,3.3,1.6,5.4c-1.1,3.5-4.5,4-7.7,3.5c0.2,2.9-1.2,5.8-4.2,6.8
		c-3.3,1.1-6.3-0.8-7.6-3.5c-3.3,3.2-8.3,6.2-10.9,1.6c-2.3-4.1,0.4-8.5,3.8-11.1c-2.1-1.8-2.8-4.8-0.4-7.4c3.2-3.5,7.8-2,10.2,1.4
		c1.7-5.9,7.1-11.1,13.6-7.8C155,90.1,155,95.8,151.8,98.8z M128.8,111.1c-0.1-0.1-0.3-0.2-0.4-0.4c-0.4,0.1-0.7,0.2-1.1,0.2
		C127.7,111.5,128.2,111.5,128.8,111.1z M128.1,104.9c0-0.1,0-0.1-0.1-0.1c0,0,0,0,0,0c-0.7,0.7-1.3,1.5-1.6,2.3
		c0.1-0.1,0.3-0.1,0.4-0.2C127.1,106.1,127.5,105.4,128.1,104.9z"/>
	<path class="st5" d="M428.8,330.8c1.5,1.3,2.3,3.3,1.6,5.4c-1.1,3.5-4.5,4-7.7,3.5c0.2,2.9-1.2,5.8-4.2,6.8
		c-3.3,1.1-6.3-0.8-7.6-3.5c-3.3,3.2-8.3,6.2-10.9,1.6c-2.3-4.1,0.4-8.5,3.8-11.1c-2.1-1.8-2.8-4.8-0.4-7.4c3.2-3.5,7.8-2,10.2,1.4
		c1.7-5.9,7.1-11.1,13.6-7.8C432,322.1,432,327.9,428.8,330.8z M405.8,343.1c-0.1-0.1-0.3-0.2-0.4-0.4c-0.4,0.1-0.7,0.2-1.1,0.2
		C404.6,343.5,405.1,343.5,405.8,343.1z M405.1,336.9c0,0,0-0.1-0.1-0.1c0,0,0,0,0,0c-0.7,0.7-1.3,1.5-1.6,2.3
		c0.1-0.1,0.3-0.1,0.4-0.2C404.1,338.1,404.5,337.4,405.1,336.9z"/>
	<g>
		<path class="st0" d="M445.1,50.6c1.4,2.1,2,4.6,0.6,6.9c-1.8,2.9-5.9,2.5-8.4,0.7c-2.5-1.7-3.7-5.1-1.8-7.7c1.5-2,5-3.2,6.8-1
			c0.6,0.7-0.1,1.6-0.9,1.2c-1.6-0.8-3.8-0.3-4.4,1.6c-0.6,1.8,1,3.7,2.5,4.4c2.2,1,4.7,0.3,5.1-2.3c0.1-1.1-0.2-2.2-0.6-3.3
			c-0.2,0-0.4-0.2-0.6-0.4c-0.3-0.4-0.6-0.9-0.9-1.3c-3.8-5.4-7.4-11-10.6-16.8C429,42.5,415.7,47,406.8,47c-0.2,0-0.4-0.1-0.4-0.2
			c-0.1-0.3-0.1-0.7,0.3-0.8c5-1.5,10.2-2.2,14.9-4.9c4.4-2.5,6.7-6.1,8.8-10.5c-1.1-2.1-2.3-4.1-3.4-6.2c-8.1,5.7-17.1,10-26.6,13
			c1.9,3.2,3.9,6.3,5.8,9.5c3.9,6.3,7.7,12.6,11.3,19c0.3,0.4,0,0.8-0.4,1c0.1,1.8-0.8,3.8-1.8,4.8c-2.2,2.3-5.8,2-7.9-0.4
			c-2-2.3-2.1-5.9,0.4-7.8c1.7-1.4,4.2-1.4,6.1-0.4c-5.5-8.5-10.9-17.1-16.2-25.8c-0.4-0.6,0-1.4,0.6-1.6c10.2-3.3,19.5-8,28.4-13.9
			c0.5-0.3,1.3-0.1,1.5,0.4c4.8,9.7,10.4,18.9,16.6,27.7C445.1,50.1,445.1,50.4,445.1,50.6z M415.1,67.3c0-0.8-0.4-1.5-0.5-2.3
			c0-0.1,0-0.1,0-0.2c0,0-0.1,0-0.1-0.1c-3.2-2.4-8.3,1.6-5.3,5c1.3,1.5,3.5,1.7,4.9,0.1C414.8,69.2,415.1,68.2,415.1,67.3z"/>
		<path class="st19" d="M443.8,51.3c0.5,1,0.8,2.1,0.6,3.3c-0.3,2.6-2.9,3.3-5.1,2.3c-1.5-0.7-3.1-2.6-2.5-4.4
			c0.6-1.9,2.8-2.5,4.4-1.6c0.8,0.4,1.5-0.5,0.9-1.2l0,0c0.3,0.4,0.6,0.9,0.9,1.3C443.3,51.1,443.5,51.2,443.8,51.3z"/>
		<path class="st19" d="M427,24.3c1.1,2.1,2.2,4.2,3.4,6.2c-2.1,4.4-4.4,8-8.8,10.5c-4.7,2.7-9.8,3.4-14.9,4.9
			c-0.4,0.1-0.5,0.5-0.3,0.8l-0.1,0.1c-1.9-3.2-3.9-6.3-5.8-9.5C409.9,34.3,418.8,30,427,24.3z"/>
		<path class="st19" d="M414.7,65c0,0.8,0.5,1.5,0.5,2.3c0,0.9-0.4,1.9-1,2.6c-1.4,1.6-3.5,1.4-4.9-0.1c-3.1-3.4,2.1-7.5,5.3-5
			c0,0,0.1,0,0.1,0.1C414.7,64.8,414.7,64.9,414.7,65z"/>
	</g>
	<g>
		<path class="st0" d="M68.3,161.5c-1.5,2-3.5,3.6-6.2,3c-3.3-0.7-4.5-4.6-3.7-7.6c0.7-2.9,3.4-5.3,6.5-4.5c2.4,0.7,4.8,3.5,3.4,6
			c-0.4,0.8-1.6,0.5-1.5-0.4c0.2-1.8-1.1-3.6-3.1-3.5c-1.9,0.1-3.1,2.2-3.2,4c-0.2,2.4,1.4,4.5,4,3.9c1.1-0.3,2-1,2.8-1.8
			c0-0.2,0-0.5,0.2-0.7c0.3-0.5,0.6-0.9,0.9-1.4c3.7-5.5,7.6-10.9,11.8-16c-10.1,1.1-19-9.6-22.3-17.9c-0.1-0.2,0-0.4,0.1-0.5
			c0.2-0.2,0.6-0.3,0.9,0c3.3,4.1,5.8,8.7,10,12.1c4,3.2,8.1,4,13,4.4c1.5-1.8,3-3.6,4.6-5.4c-8.3-5.5-15.6-12.3-21.8-20
			c-2.2,3-4.5,5.9-6.7,8.9c-4.5,5.9-9,11.7-13.6,17.5c-0.3,0.4-0.8,0.3-1,0c-1.6,0.7-3.9,0.6-5.1,0.1c-3-1.2-4-4.7-2.5-7.5
			c1.4-2.7,4.7-4.1,7.5-2.4c1.9,1.1,2.9,3.4,2.6,5.5c5.9-8.3,12-16.4,18.1-24.5c0.4-0.6,1.3-0.5,1.7,0c6.8,8.3,14.5,15.3,23.3,21.4
			c0.5,0.3,0.6,1.1,0.2,1.5c-7.3,8-13.8,16.6-19.8,25.6C68.8,161.4,68.6,161.5,68.3,161.5z M41.9,139.7c0.8-0.3,1.3-0.9,2-1.3
			c0.1,0,0.1,0,0.2-0.1c0,0,0-0.1,0-0.1c1.1-3.9-4.5-7.2-6.6-3.1c-0.9,1.8-0.3,3.9,1.6,4.6C40,140,41,140,41.9,139.7z"/>
		<path class="st19" d="M67.2,160.6c-0.8,0.8-1.7,1.5-2.8,1.8c-2.5,0.7-4.1-1.5-4-3.9c0.1-1.7,1.3-3.8,3.2-4c2-0.1,3.3,1.7,3.1,3.5
			c-0.1,0.9,1,1.2,1.5,0.4l0,0c-0.3,0.4-0.6,0.9-0.9,1.4C67.2,160.1,67.2,160.3,67.2,160.6z"/>
		<path class="st19" d="M86.2,135.1c-1.6,1.8-3.1,3.6-4.6,5.4c-4.9-0.4-9-1.2-13-4.4c-4.2-3.4-6.7-7.9-10-12.1
			c-0.2-0.3-0.7-0.2-0.9,0l-0.1-0.1c2.2-3,4.5-5.9,6.7-8.9C70.7,122.8,78,129.6,86.2,135.1z"/>
		<path class="st19" d="M43.9,138.4c-0.7,0.3-1.2,1-2,1.3c-0.9,0.3-1.9,0.3-2.8,0c-2-0.7-2.6-2.8-1.6-4.6c2.1-4.1,7.7-0.8,6.6,3.1
			c0,0,0,0.1,0,0.1C44,138.4,43.9,138.4,43.9,138.4z"/>
	</g>
	<g>
		<path class="st0" d="M193,403.5c-0.6,2.4-2,4.6-4.7,5.1c-3.3,0.6-5.8-2.7-6.2-5.7c-0.4-3,1.3-6.2,4.5-6.5c2.4-0.2,5.7,1.6,5.3,4.4
			c-0.1,0.9-1.3,1-1.5,0.1c-0.5-1.7-2.3-3-4.2-2.2c-1.8,0.8-2.1,3.2-1.6,4.8c0.7,2.3,3,3.7,5.1,2.2c0.9-0.7,1.5-1.6,2-2.7
			c-0.1-0.2-0.2-0.4-0.1-0.7c0.1-0.5,0.2-1.1,0.3-1.6c1.4-6.5,3.2-12.9,5.2-19.2c-9,4.7-21.2-2.2-27.2-8.7c-0.1-0.2-0.2-0.3-0.1-0.5
			c0.1-0.3,0.5-0.5,0.8-0.3c4.5,2.7,8.5,6,13.7,7.7c4.9,1.5,9,0.8,13.7-0.6c0.7-2.2,1.5-4.5,2.3-6.7c-9.7-2.2-19-5.9-27.5-10.8
			c-1,3.6-2.1,7.2-3.1,10.7c-2,7.1-4.1,14.2-6.4,21.2c-0.1,0.5-0.6,0.6-1,0.4c-1.2,1.2-3.4,1.9-4.8,1.9c-3.2-0.1-5.4-3-5-6.1
			c0.3-3.1,2.9-5.5,6.1-5c2.2,0.4,3.9,2.2,4.4,4.2c2.5-9.8,5.3-19.6,8.1-29.4c0.2-0.7,1-0.9,1.6-0.6c9.3,5.3,19,9,29.4,11.5
			c0.6,0.1,0.9,0.8,0.7,1.4c-3.9,10.1-6.9,20.4-9.3,31C193.4,403.2,193.2,403.4,193,403.5z M160.5,392.7c0.6-0.6,0.9-1.3,1.4-1.9
			c0.1,0,0.1-0.1,0.2-0.1c0,0,0-0.1,0-0.1c-0.4-4-6.8-5.1-7.3-0.5c-0.2,2,1.1,3.7,3.2,3.7C158.9,393.7,159.8,393.3,160.5,392.7z"/>
		<path class="st19" d="M191.6,403c-0.5,1-1,2-2,2.7c-2.1,1.5-4.4,0.1-5.1-2.2c-0.5-1.6-0.2-4,1.6-4.8c1.8-0.8,3.7,0.4,4.2,2.2
			c0.2,0.9,1.4,0.7,1.5-0.1l0,0c-0.1,0.5-0.2,1.1-0.3,1.6C191.5,402.6,191.5,402.8,191.6,403z"/>
		<path class="st19" d="M200.2,372.4c-0.8,2.2-1.6,4.4-2.3,6.7c-4.7,1.4-8.9,2.1-13.7,0.6c-5.1-1.6-9.1-5-13.7-7.7
			c-0.3-0.2-0.7,0-0.8,0.3l-0.1,0c1-3.6,2.1-7.1,3.1-10.7C181.3,366.6,190.5,370.3,200.2,372.4z"/>
		<path class="st19" d="M161.9,390.8c-0.6,0.6-0.8,1.3-1.4,1.9c-0.7,0.6-1.6,1-2.6,1c-2.1,0-3.4-1.7-3.2-3.7
			c0.5-4.6,6.9-3.5,7.3,0.5c0,0,0,0.1,0,0.1C162,390.7,162,390.7,161.9,390.8z"/>
	</g>
	<g>
		<path class="st0" d="M429,232.7c1.6,13.6-10.5,27.7-24,22.7c2.8,9.5-2,20.4-11.2,24.6c-10.5,4.8-22.8-0.3-29.3-9.1
			c-4.6,10.3-17.9,16.1-28.3,10.6c-10.5-5.5-13.1-19.9-7-29.5c-11.3-1.4-18.5-13.1-14.9-24.1c4.2-12.9,17.9-17.7,30.2-14.7
			c-0.6-7,3.3-14.1,10.3-16.3c6.8-2.1,14,1.4,17.2,7.4c2.9-9.6,15-15.3,24-10.1c7.1,4.1,9.4,13.2,6.8,20.5
			C414.4,209.4,427.5,219.8,429,232.7z M403.3,251.8c12.9,7.4,24.6-6.3,23.2-18.8c-1.4-12.2-15.2-23.1-26.3-13.6
			c-1.3,1.1-2.8-0.5-1.8-1.8c5-6.4,3.4-16.9-3.8-21.1c-7.7-4.4-17.8,0.6-20.4,8.7c-0.2,0.8-1,1-1.5,0.8c0,0.1,0.1,0.2,0.2,0.4
			c0.3,0.8-1,1.3-1.3,0.6c-2.8-5.6-9.1-9.6-15.5-7.9c-6.7,1.7-10.4,9-9.1,15.5c0.2,0.8-0.5,1.7-1.4,1.4
			c-10.8-3.3-23.4-0.2-28.3,10.8c-4.7,10.5,2,23.3,14,23.3c1,0,1.4,1.2,0.8,1.9c-6.7,8.4-4.4,22.6,5.3,27.7
			c9.8,5.1,22.7-1.1,25.8-11.4c0.3-0.9,1.6-1.1,2.1-0.3c5.4,8.6,16.5,14.2,26.6,10.4c9.5-3.6,14.6-15.7,9.9-24.8
			C401,252.5,402.1,251.2,403.3,251.8z"/>
		<path class="st20" d="M426.4,233.1c1.4,12.5-10.2,26.2-23.2,18.8c-1.1-0.6-2.3,0.6-1.7,1.7c4.7,9.1-0.4,21.2-9.9,24.8
			c-10,3.8-21.2-1.8-26.6-10.4c-0.5-0.9-1.8-0.7-2.1,0.3c-3.1,10.2-16,16.5-25.8,11.4c-9.8-5.1-12-19.3-5.3-27.7
			c0.6-0.7,0.3-1.9-0.8-1.9c-12.1,0-18.8-12.8-14-23.3c4.9-11,17.5-14.1,28.3-10.8c0.9,0.3,1.5-0.6,1.4-1.4
			c-1.3-6.5,2.4-13.8,9.1-15.5c6.4-1.6,12.8,2.3,15.5,7.9c0.4,0.7,1.6,0.2,1.3-0.6c-0.1-0.1-0.1-0.2-0.2-0.4c0.6,0.2,1.3,0,1.5-0.8
			c2.6-8,12.7-13.1,20.4-8.7c7.2,4.1,8.8,14.7,3.8,21.1c-1,1.3,0.5,2.9,1.8,1.8C411.2,210,425.1,220.8,426.4,233.1z M387.7,239
			c2-0.6,2.1-3.5,1.7-5.1c-0.5-1.9-2.1-3.6-4.1-4c-4.3-0.8-7.7,4.7-5.1,8.2c0.6,0.9,2,0.1,1.4-0.8c-1.1-2,0.8-5.6,3.3-5
			c1.1,0.3,1.9,1.4,2.1,2.4c0.3,1.3-0.4,2-0.6,3.2C386.5,238.6,387,239.3,387.7,239z M370.5,250.6c5-1.3,7.5-7.8,4.7-12.1
			c-0.8-1.3-2.8-0.1-2,1.2c1.7,3,0.5,7.4-2.9,8.6c-4.4,1.6-8.1-3.3-7.6-7.2c0.1-0.8-1.2-0.9-1.4-0.2
			C359.6,246.2,364.9,252.1,370.5,250.6z M354.7,242.3c1.8-1.1,0.8-4.1-0.2-5.5c-1.2-1.6-3.2-2.7-5.2-2.1c-3.3,0.9-4.6,6.3-1.2,8
			c1.1,0.5,1.9-0.9,0.9-1.6c-1.3-1-0.4-3.7,1.2-4c1-0.2,2,0.6,2.5,1.5c0.6,1.1,0.2,2.3,0.7,3.4C353.6,242.4,354.2,242.6,354.7,242.3
			z"/>
		<path class="st0" d="M389.4,233.9c0.5,1.7,0.3,4.5-1.7,5.1c-0.8,0.2-1.3-0.5-1.2-1.2c0.2-1.2,0.9-1.9,0.6-3.2
			c-0.3-1.1-1-2.2-2.1-2.4c-2.5-0.6-4.4,2.9-3.3,5c0.5,1-0.8,1.7-1.4,0.8c-2.6-3.5,0.8-9,5.1-8.2C387.3,230.3,388.8,232,389.4,233.9
			z"/>
		<path class="st0" d="M375.2,238.5c2.8,4.3,0.3,10.8-4.7,12.1c-5.5,1.5-10.9-4.4-9.2-9.8c0.2-0.7,1.5-0.6,1.4,0.2
			c-0.5,4,3.2,8.9,7.6,7.2c3.4-1.3,4.6-5.6,2.9-8.6C372.4,238.3,374.4,237.2,375.2,238.5z"/>
		<path class="st0" d="M354.5,236.9c1,1.4,2,4.4,0.2,5.5c-0.4,0.3-1.1,0.1-1.3-0.3c-0.6-1.1-0.1-2.3-0.7-3.4
			c-0.5-0.8-1.5-1.7-2.5-1.5c-1.5,0.3-2.5,3-1.2,4c0.9,0.7,0.1,2.1-0.9,1.6c-3.4-1.7-2.1-7,1.2-8
			C351.2,234.2,353.3,235.2,354.5,236.9z"/>
	</g>
</g>
</svg>
