<svg xmlns="http://www.w3.org/2000/svg" viewBox="-250 347.2 109.7 99.8" enable-background="new -250 347.2 109.7 99.8"><style type="text/css">.st0{fill:#DBD159;} .st1{fill:#D25486;} .st2{fill:#202020;} .st3{enable-background:new ;}</style><path class="st0" d="M-159.9 349.7l4.8 51.9-78 6.8-6.2-54.4 40.4-4.3h39z"/><path class="st1" d="M-152.1 436.5l-25.8.3-69.4 2-2.5-41.7 2.1-24.5 22.4 12.5 26 20.7 25.9-17.2 23.4-20.4.6 60-2.7 8.3z"/><path class="st2" d="M-158.4 347.2c.8.8 1.3 1.6 1.2 2.8 0 1.4.2 2.8.3 4.3h3.3c1.8 0 2 .2 2 1.9v10c.2.1.3.3.4.2 2.4-.3 2.9.1 2.9 2.6v7.7c.9-.6 1.4-.9 1.9-1.3 1.4-.9 2.8-2 4.3-2.8 1.1-.6 1.7-.2 1.7 1-.1 7.2-.3 14.5-.5 21.7-.2 7-.6 14.1-.9 21.1l-.7 14.1c-.1 3-.1 6-.1 9 0 .8.3 1.7.6 2.5-.1.9-.9 1.1-1.6 1.2-2.2.3-4.4.4-6.6.8-4.9.8-9.8.3-14.6.8-9.4 1-18.9.9-28.4.7-10.8-.3-21.5.5-32.2.7-4.4.1-8.8.4-13.1.7-.5 0-1 .1-1.5 0-1.3-.1-1.8-.4-2-1.8-.2-1.6-.3-3.1-.5-4.9h-2.6c-2.2.1-3.2-.5-3.6-2.7-.3-1.6-.4-3.3-.5-4.9-.4-7-.6-14.1-1.2-21.1-.8-8.9-.6-17.8-.2-26.7.2-4.4.7-8.7 1-13.1 0-.3 0-.5.1-.8.3-1.2 1.2-1.6 2.3-1l7.5 4.6c.5.3 1 .5 1.8 1-.2-1.8-.3-3.3-.7-4.8-.8-3.4-1.5-6.8-2-10.3-.3-2.2-1-4.4-1.6-6.6-.5-1.9 0-2.4 2-2.4 2.8 0 5.6-.1 8.4-.4 5-.6 9.9-1.5 14.9-2 5-.6 10.1-.9 15.2-1.3l5.5-.3c.3 0 .6-.2.9-.3h5c1.9.3 3.8.7 5.8.7 6.8-.1 13.5-.3 20.3-.5.2 0 .4-.2.7-.3 1.6.2 3.3.2 5.1.2zm2.6 9.7l-1.1-.5c.1 1 0 2 .3 2.7 1 1.8 2.1 3.5 3.4 5.5.4-1.3.2-2.1-.3-3-.7-1.3-1.3-2.6-1.9-3.9.7 1 1.4 2 2.3 3.3.2-2.2.4-3.9-1-5.3h-2.3c.3.5.4.9.6 1.2zm12.7 25.8l1.4.7c0-.5.1-.9 0-1.2-1.2-1.8-2.5-3.6-3.9-5.5-.9.6-1.6 1-2.2 1.5-.1 1.8.4 3.2 1.6 4.4 1.4 1.4 2.7 2.9 4.2 4.4.5-1.4.4-2.5-.5-3.4-.4-.2-.5-.6-.6-.9zm-102.8 55.2c1.4-.1 2.4-.2 3.4-.2l19.1-.2c5.4-.1 10.8-.4 16.2-.6 4.3-.2 8.6-.2 13-.4 7.1-.3 14.2-.8 21.3-1 6.4-.2 12.7 0 19.1-.1.6 0 1.3.4 1.8-.7-2 .5-3-.8-4.1-1.9-2.2-2.2-4.3-4.5-6.5-6.6-3.4-3.2-6.9-6.4-10.4-9.5-3.9-3.4-7.7-6.8-11-10.8-1.3-1.6-2.8-3.1-4.3-4.6-2.6 1.5-5.1 2.8-7.6 4.3-1.1.7-2.1.8-3.2.2l-1.7-.9-4.8-2.7c-4.7 4.1-9.4 8.1-13.9 12.2-6.5 5.9-12.8 12-19.1 18.1l-2.7 3.2c-.7.5-1.2 1.2-1.9 1.5-.4.2-1.1-.2-1.5-.5-.2-.1-.1-.9.1-1.2 1.1-1.4 2.1-2.9 3.3-4.2 4.1-4.1 8.2-8.1 12.5-12 5.1-4.7 10.2-9.3 15.4-13.9 1.8-1.6 3.7-3.1 5.6-4.6-12.6-10.2-25.6-19.8-39.9-28.2 0 2 .1 3.7 0 5.4-.2 5.3-.6 10.5-.6 15.8 0 5.3.3 10.7.5 16 .4 7.7.8 15.3 1.3 23 .1 1.7.4 3.3.6 5.1zm6.6-83.9c.4 1.8.8 3.5 1.2 5.1.7 3.5 1.3 7 1.9 10.5.3 2 .7 4 .7 6 0 1.4.4 2.2 1.6 2.9 8.3 5.1 15.9 11.2 23.6 17.1 3.5 2.7 7 5.3 10.9 7.3.8.4 1.4.6 2.3.2 5.2-2.9 10.5-5.7 15.1-9.6 3.7-3 7.2-6.2 10.8-9.4 4.3-3.9 8.6-7.9 12.7-11.7-.8-7.6-1-15.1-1.4-22.9-2.4.1-4.6.2-6.8.3-6.2.7-12.3.9-18.5.5-3.5-.2-7-.5-10.5-.5-2.4 0-4.8.3-7.2.5-5.9.5-11.8 1.1-17.6 1.7-5.2.5-10.4 1.2-15.7 1.8-1 .2-2 .1-3.1.2zm88.5 15.7c-1.1.8-1.9 1.3-2.6 1.9l-16 14.4c-5.3 4.8-10.5 9.7-16.5 13.5-.2.1-.4.3-.5.5 1.9 2 3.7 3.9 5.6 5.8 1.4 1.5 2.7 3 4.2 4.4 4.7 4.3 9.5 8.5 14.2 12.7 1.3 1.1 2.4 2.5 3.6 3.7 2.2 2.2 4.5 4.4 7 6.7.2-.7.3-1.1.4-1.4.4-3.9.8-7.8 1-11.7.2-3.6.1-7.2.2-10.9l.3-18.9c0-1.4 0-2.8-.1-4.2l-.7-10.8c-.2-1.7-.1-3.4-.1-5.7zm-3.4 73.5c0-.2 0-.3.1-.5-1.4-1.2-2.9-2.3-4.2-3.6-1.7-1.7-3.6-1.3-5.9-1.1 1.9 1.7 3.5 3.3 5.1 4.7.3.2.7.5 1 .5 1.3.1 2.6 0 3.9 0zm6.9-60.8c-.2 1.9-.4 3.7 1.1 5.2.9.9 1.6 2.1 2.5 3.1.4.6.9 1.1 1.4 1.7l.4-.2v-3.2c0-.4-.1-.8-.3-1-1.7-1.9-3.4-3.8-5.1-5.6zm-30.3 61.6c-1.6-1.6-3-3-4.4-4.5-1.5-1.5-2.4-1.7-4.7-.6 1.4 1.3 2.9 2.5 4.1 3.8 1.4 1.6 2.9 1.6 5 1.3zm18.8-6c1.7 1.4 3.1 2.4 4.4 3.6 1.5 1.5 3.1 1.4 5.1.8-1.1-1.1-2.3-1.9-3.1-3-1.8-2.1-3.8-1.6-6.4-1.4zm-23.3.3c.5.6.7 1 1.1 1.3 1.2 1.2 2.4 2.3 3.5 3.5 1.2 1.4 2.5 1.1 4.2.9-1.6-1.7-3.1-3.1-4.4-4.7s-2.6-1.4-4.4-1zm37.8-4.5l.4-.2v-3.4c0-.4-.1-.9-.4-1.2-1-1.1-2.1-2.1-3.4-3.4-.2 1.6-.3 2.8-.4 4 0 .3.1.8.3 1 1.1 1.2 2.3 2.2 3.5 3.2zm-41.6 10.2c-1.2-1.3-2.5-2.5-3.6-3.9-1.2-1.6-2.6-1.5-4.4-1.1 1 1.5 2.4 2.4 3.5 3.6 1.3 1.3 2.6 1.9 4.5 1.4zm16.1-.3c-1.6-1.6-3-3-4.3-4.5-1-1.2-2.1-1.4-3.7-.9 1.6 1.7 3.1 3.2 4.6 4.8.8.9 1.8 1.2 3.4.6zm22.6-22.7l-.5.1c.1 1.3-.3 2.8.3 3.8.7 1.3 2 2.4 3.5 3.3.1-1 .2-1.8.2-2.6 0-.4-.1-.9-.4-1.2-.9-1.2-2-2.3-3.1-3.4zm-70 18.8c1.5 1.4 2.7 2.4 3.7 3.6 1.2 1.3 2.5 1.1 4.1.8-1.1-1.1-2.2-2-3-3.1-1.1-1.6-2.6-1.8-4.8-1.3zm72.3 2.3c-1.9-1.6-3.6-3-5.1-4.4-.9.1-1.8.3-3 .5 1.5 1.4 2.8 2.6 4.2 3.7.4.3 1 .5 1.5.5.7.1 1.4-.1 2.4-.3zm-80.4-1.9c1.4 1.3 2.6 2.3 3.6 3.5 1.2 1.2 2.5 1.3 3.8.9-.8-1-1.7-1.9-2.5-3-1.2-1.6-2.6-2-4.9-1.4zm77.1-9c-1 1.9-.5 3.2 1 4.2.8.5 1.4 1.3 2.1 1.9.3.2.7.4 1.1.7 0-.9.1-1.5 0-2.1-.1-.5-.2-1-.5-1.3-1.2-1.2-2.4-2.2-3.7-3.4zm4.4 9.9c-.2-.9-.2-1.8-.6-2.2-1.4-1.5-3-2.8-4.9-4.5-.1 1.2-.5 2.4-.1 2.8 1.6 1.6 3 3.4 5.6 3.9zm-69.4 3.1c-1.4-1.2-2.6-2.1-3.5-3.2-1.2-1.5-2.5-1.4-4-1.1l3 3.4c1.1 1.2 2.4 1.6 4.5.9zm69.7-32.9c.2-.1.4-.2.6-.2-.1-1.2 0-2.5-.5-3.4-.8-1.4-2.2-2.6-3.5-4.1 0 1.5-.8 2.7 0 3.8 1 1.3 2.2 2.6 3.4 3.9zm-61.8 32.7c-1.1-1.2-2.1-2.2-3-3.2-1.5-1.6-2.1-1.8-4.4-.9 1.1 1.1 2.2 2 3.2 3.1 1 1.2 2.4 1.4 4.2 1zm58.1-36c-.2 1.6-.6 2.9.1 3.9 1 1.4 2.2 2.7 3.9 3.9-.1-1.4.5-2.6-.4-3.7-1.1-1.2-2.2-2.5-3.6-4.1zm-35 36c-1.5-1.6-2.9-3-4.2-4.4s-1.4-1.4-3.4-.6c1.4 1.4 2.8 2.7 4.1 4 .9 1 1.9 1.4 3.5 1zm19.1-.8c-1.6-1.6-3.2-2.9-4.6-4.4-1-1-2-1-3.4-.6 1.3 1.3 2.5 2.5 3.6 3.7 1.1 1.2 2.3 1.9 4.4 1.3zm-37.9-3.9c1.4 1.4 2.6 2.6 3.8 3.9 1 1.1 2.2 1 3.1.8-.9-1.1-2-2.2-2.9-3.4-1-1.3-2.2-1.8-4-1.3zm-4.1.2c1.5 1.4 2.8 2.5 4 3.7 1 1.1 2.1.9 3.7.6-1.3-1.2-2.4-2.2-3.4-3.3-1.1-1.2-2.2-1.7-4.3-1zm30.8-1.3l5.1 5.1c.7.7 1.4.5 2.3 0-1.5-1.5-2.9-2.9-4.2-4.4-.9-.9-1.7-1.3-3.2-.7zm-27.3 5.6c-1.2-1.3-2.4-2.3-3.4-3.5-1-1.2-2-1.2-3.6-.8 1.2 1.3 2.3 2.3 3.2 3.4 1 1.2 2.2 1.4 3.8.9zm58-23.9c.3-1.3.7-2.4-.1-3.3-1.1-1.2-2.4-2.4-3.7-3.7-.3 1.2-.7 2.4 0 3.3 1.2 1.2 2.5 2.3 3.8 3.7zm-3-20.3l-.5.1c.1 1 0 2.1.4 3.1.5 1.3 2.9 3.4 3.8 3.7.2-2.1.3-2.1-.4-2.9-1.1-1.4-2.2-2.7-3.3-4zm3 24.4c0-1.4.4-2.5-.1-3.2-1-1.5-2.3-2.7-4.1-4.1.1 1.3-.1 2.4.4 3.1 1 1.4 2.3 2.5 3.8 4.2zm-53.9 15.3c1.5 1.4 2.9 2.7 4.3 4 .9.9 1.9 1 2.9.8-1.2-1.3-2.4-2.6-3.6-4-.9-1.2-2-1.3-3.6-.8zm54.7-40.4c.2-.1.4-.2.5-.2-.1-.7 0-1.6-.3-2.2-1.2-1.7-2.7-3.3-4.1-5.1-.4 1.9-.5 2.4.1 3.1 1.2 1.5 2.5 3 3.8 4.4zm-24.7 39.2c1.8 1.6 3.4 3.1 5 4.6.7.7 1.5.6 2.6.3-1.5-1.6-2.9-2.9-4.3-4.3-.9-1-1.9-1-3.3-.6zm20.8-42.5l-.3.1c.1.8-.1 1.9.3 2.5 1.1 1.7 2.5 3.1 3.7 4.7l.5-.2c-.1-1 .1-2.1-.4-2.8-1.1-1.6-2.5-2.9-3.8-4.3zm-.2-7.9l-.4.1c.1.7-.1 1.5.3 2 1.3 2 2.8 3.9 4.7 5.6.1-.7.2-1.5-.2-2-1.4-2-2.9-3.8-4.4-5.7zm-84.5 52.7c1.2 1.3 2.4 2.5 3.5 3.7.8.9 1.8 1 3.1.7-1.2-1.3-2.3-2.4-3.3-3.6-.8-1.2-1.8-1.2-3.3-.8zm-1.7 4.6c-1.5-1.5-3-2.9-4.4-4.3-.7-.7-1.3-.8-2.4-.2 1.5 1.6 2.9 3.1 4.4 4.5.7.8 1.4.5 2.4 0zm-3.1.3l-4.6-4.9c-.2 3.8 1.4 5.5 4.6 4.9zm83.2-77.1c.1-2.1-1.8-5.9-3.4-7-.2 2.6 1.1 5.4 3.4 7zm-74.6 71.8l-.2.5c1.1 1.2 2.3 2.3 3.4 3.6.7.8 1.5.9 2.7.4-1.5-1.4-2.8-2.8-4.2-4-.3-.4-1.1-.3-1.7-.5zm-3.2 5.1c-1.5-1.6-2.8-3.1-4.2-4.6-.5-.5-1.2-.5-1.8 0 4.3 4.6 4.3 4.6 6 4.6zm88.9-64c.7-2.6-.7-4-2-5.6-.5.3-.8.6-1.3 1 1.1 1.5 2.1 2.9 3.3 4.6zm-86.2 63.7l-3.9-4.2c-.5-.6-1.1-.6-1.8-.2 3.1 4.1 3.9 4.8 5.7 4.4zm72.3-78.6l-.5.1c.2 1.2-.3 2.5.6 3.8.6-.5 1-.9 1.5-1.4-.5-.8-1-1.7-1.6-2.5zm13.7 10.5l.4-.2c-.1-.7-.1-1.4-.2-2.4-.6.5-1 .7-1.4 1 .5.7.8 1.2 1.2 1.6zm-2.9 3.7l1.9 2.3c-1-.5-1.6-1.3-1.9-2.3zm0 0c-.2-.1-.4-.1-.5-.2-.2-.3-.4-.6-.5-.9.6.1.9.5 1 1.1z"/><path d="M-193.4 378.4c-.3.9-.4 1.4-.2 1.7.1.2.4.3.8.2s.8-.4 1.3-.8.8-.7 1.1-1.1c.7-.8 1.3-1.8 2-2.8s1.2-2.2 1.7-3.4.8-2.4 1.1-3.6.2-2.3.1-3.4-.6-2-1.3-2.8-1.7-1.4-3.1-1.8c-1.2-.3-2.4-.3-3.7-.1-1.3.2-2.6.6-3.8 1.2-1.2.6-2.4 1.3-3.5 2.1-1.1.9-2 1.8-2.8 2.7-.8 1-1.5 2.1-2.2 3.5-.7 1.4-1.3 2.9-1.8 4.4-.5 1.5-.7 3.1-.8 4.6s.1 2.9.6 4.1c.5 1.2 1.3 2.2 2.4 3 1.1.8 2.7 1.1 4.8 1.1 1.1 0 2.2-.3 3.4-.8 1.2-.6 2.1-1.2 2.9-1.9.1-.1.2-.1.3 0 .1.1.2.3.3.5.1.2.2.4.2.7.1.2.2.4.2.5-.5.4-1 .7-1.6 1.1-.6.4-1.2.7-1.8.9-.7.3-1.4.5-2.2.6-.8.1-1.8.2-2.8.1-2.6-.1-4.7-.7-6.3-1.6-1.6-.9-2.8-2.1-3.5-3.6-.7-1.5-1-3.1-1-4.9.1-1.8.5-3.7 1.2-5.5.7-1.9 1.7-3.7 3-5.5 1.3-1.8 2.7-3.4 4.4-4.8 1.6-1.4 3.4-2.5 5.4-3.4 1.9-.9 4-1.3 6.1-1.3 1.3 0 2.7.1 3.9.4 1.3.3 2.4.7 3.4 1.3s1.8 1.5 2.4 2.6c.6 1.1.9 2.5.9 4.2 0 1.1-.1 2.2-.4 3.2s-.6 1.9-.9 2.8c-.4.9-.8 1.7-1.3 2.5s-1 1.5-1.5 2.2c-1.1 1.4-2.3 2.6-3.5 3.4-1.2.8-2.6 1.3-4.2 1.4-1.6.1-2.7-.2-3.3-1-.6-.8-.6-1.9-.2-3.4-.4.5-.7 1-1 1.4-.3.4-.7.9-1.1 1.3-.4.4-.9.7-1.4 1s-1.2.5-2 .7c-1.4.3-2.4.1-3-.6s-.7-1.7-.5-2.9c.2-1.2.7-2.6 1.4-4.2.8-1.5 1.8-3 3-4.3 1.2-1.3 2.5-2.4 4.1-3.3 1.5-.9 3.1-1.2 4.7-1.1 1 .1 1.9.2 2.6.4s1.4.4 2.2.8l-5.2 11.3zm-.2-10.3c-.7.2-1.5.5-2.3 1.1-.8.6-1.6 1.3-2.3 2.2-.7.8-1.4 1.7-2.1 2.7-.6.9-1.2 1.8-1.5 2.6-.4.8-.6 1.5-.7 2.1s.1.9.5.9c.4-.1.8-.4 1.2-.7.4-.3.8-.7 1.1-1.2.4-.4.7-.9 1.1-1.4.3-.5.7-1 1-1.4.6-1.1 1.2-2.3 2-3.4.8-1.3 1.4-2.4 2-3.5z" class="st3"/></svg>