<svg xmlns="http://www.w3.org/2000/svg" viewBox="0 0 121.4 79.5" enable-background="new 0 0 121.4 79.5"><style type="text/css">.st0{fill:#E697B6;} .st1{fill:#EBD197;} .st2{fill:#D25486;} .st3{fill:#DBD159;} .st4{fill:#202020;}</style><path class="st0" d="M118.5 53.4c0 1.7.2 3.4.1 5.1-.1 2.6-.2 5.2-.5 7.8-.4 3-1 6-1.5 9-.3 1.6-.8 2-2.5 1.9l-.9-.1c-1.5-.3-3-.6-4.5-.8-1.7-.3-3.2-1.1-4.9-1.8.2-.6.4-1.2.5-1.9l1.2-5.9c.4-2.1.6-4.1.9-6.2.2-1.6.2-3.1-.2-4.7-.3-1.1-.9-2-1.9-2.6l-3.6-2.2c-1.5-.9-3.1-.6-4.6-.1-1.1.3-2.1.8-3.2.3-.9-.4-1.8-.9-2.7-1.4-.9-.6-1.9-1.3-2.6-2.2-2.1-2.3-4.7-2.9-7.7-2.4h-.2c0-1.5.1-3 0-4.5-.1-2.7-.3-5.5-.5-8.2l-.3-4.7c-.1-2-.3-4-.5-6l-.4-5.5c0-.2 0-.4.1-.5 1.1-1.6 2.2-3.2 3.4-4.8.9-1.3 1.9-2.5 2.9-3.8.3-.4.6-.8.9-1.3 3.2 1.6 6.3 3.3 9.7 4.2 2.6.7 5.2 1.3 7.8 1.9l6.5 1.5 7.2 1.6c.5.1.9.1 1.5.2l-.1 2.1v7.3l.1 5.1c.1 2.6.1 5.2.3 7.9.3 5.2.2 10.5.2 15.7z"/><path class="st1" d="M105.4 57.2c.1 1.8-.1 3.6-.4 5.4-.3 1.6-.4 3.3-.8 4.9-.3 1.7-.7 3.3-1.1 5-.1.4-.2.9-.4 1.5-1.8-1.1-3.5-2.2-5.3-3.1-2.2-1.2-4.5-2.3-6.7-3.6-2.2-1.2-4.3-2.6-6.5-3.9-1.2-.7-2.5-1.3-3.8-1.9l-.7-.4c-.9-.3-.9-1-.8-1.7l.5-3c.1-1.8.2-3.6.2-5.4v-4.3c0-.4.1-.6.5-.6 2.5-.5 4.7 0 6.5 1.9 1.6 1.6 3.4 2.8 5.4 3.8 1.3.6 2.5.6 3.8.2l2.4-.6c.8-.2 1.6.1 2.3.5l3.2 1.9c1.1.8 1.6 2 1.7 3.4zM84.6 5.5c-.7.9-1.1 1.9-2 2.7-1 .8-1.7 1.9-2.5 2.8-.7.9-1.4 1.8-2 2.7-.1 0-.1 0-.2-.1-.1-3.9-.3-7.7-.4-11.8 2.4 1.3 4.8 2.5 7.1 3.7z"/><path class="st2" d="M78.4 45.2c0 .4-.1.6-.5.8-1.2.5-2.3 1.1-3.1 2.1-.2.2-.4.4-.5.7-1 2.3-2 4.5-2.9 6.8-.7 1.9-1.3 3.9-1.7 5.9-.2 1-.7 1.4-1.3 1.8-2.4 1.4-4.9 2.8-7.3 4.3l-8.4 5.6c-1.6 1.1-3.3 2-4.9 3v-4.5l-.4-9.8c-.1-1.2-.1-2.3-.1-3.5v-.5c-.4-1.1.2-1.5 1.1-2 2.5-1.4 5.1-2.7 7.8-3.7 2.3-.9 3.6-2.6 4.4-4.8.5-1.6 1-3.3 1.4-4.9.2-.5.5-.9 1-1.1l4.7-1.8c1.2-.5 2.1-1.3 3-2.1 1.2-1.1 1.5-2.6 1.8-4 .8-4.7 2.4-9.3 4.2-13.7l.2-.5c.1.7.2 1.3.2 1.8l.4 5.3.5 8.1c.1 1.4.2 2.7.2 4.1 0 2.1.1 4.4.2 6.6z"/><path class="st3" d="M78.2 46.8c.1 4.5.5 8.8-.9 13.1-2.5-.9-4.4.6-6.6 1.9.3-1.1.7-2 .9-3 .8-3.2 2.1-6.2 3.3-9.2.7-1.5 2-2.1 3.3-2.8zM76.6 15.6c.2 1.3-.2 2.4-.6 3.6-1.1 3.1-2.2 6.2-3.1 9.3-.7 2.1-1.2 4.3-1.7 6.5-.2 1.1-1.1 1.6-1.8 2.3-1.2 1.2-2.8 1.6-4.3 2.1-1.1.4-2.1.8-3.1 1.3-.7.3-.9 1-1.1 1.6-.5 1.7-.9 3.5-1.6 5.2-.6 1.7-1.7 3-3.5 3.7-3 1.1-5.9 2.6-8.6 4.2h-.1c-.1-1.3-.3-2.6-.4-4-.2-1.8-.3-3.6-.5-5.5 0-.4.1-.7.4-1 1.2-.9 2.3-1.9 3.4-2.8l4.2-3.3c.5-.4.9-.8 1.3-1.3.1-.1.2-.3.2-.5.1-1.1.9-1.6 1.9-1.9l3-.9c.7-.2 1.4-.4 2.1-.7 1.8-.6 3.2-1.7 4.4-3.1.5-.7.8-1.5.9-2.3.2-2 .3-4 .5-5.9l.7-5.6.3-3.6c.1-1.8.4-3.6.4-5.4 0-1.1.3-1.8 1.2-2.3 1.6-.9 3.1-2 4.7-3 .2-.1.3-.2.4-.2l.2 8.7c0 1.7 0 3.3.2 4.8z"/><path class="st2" d="M68.5 7.1h.2l-.1 2.5-.3 3.8-.6 5.4-.4 3.8-.6 6c-.1 1.2-1.1 1.9-1.9 2.6-1.3 1.1-2.9 1.6-4.4 2.1l-1.6.5c-1 .3-2.2.4-3 1.2-.6.5-1 1.1-1.1 1.9 0 .3-.4.6-.7.8-1.5 1.2-3.1 2.4-4.7 3.6-.9.7-1.7 1.6-2.6 2.4l-.5.5c-.1-1.1-.1-2.1-.2-3.1-.1-3.6-.2-7.2-.3-10.9l-.2-6.2-.4-3.3c1.8-.3 3.4-1 5-1.9 3.2-1.8 6.4-3.9 9.4-6l8.5-5.6c.1.1.3 0 .5-.1z"/><path class="st0" d="M46.3 74.1v2.5c0 .2-.2.4-.4.5-.1.1-.4-.1-.5-.1-.3-.2-.6-.4-.9-.5-2.7-.8-5.1-2.3-7.6-3.5-3.7-1.8-7.5-3.4-11.4-4.8l-.1-.1c1-2.3 2.5-4.3 4.1-6.2 1.8-2.1 3.6-4.1 5.4-6.1.6-.7 1.1-1.4 1.6-2.1.1-.1.3-.3.4-.3 2.8.4 5.4 1.3 7.9 2.3.7.3.9.7.9 1.4.1 2.9.3 5.9.5 8.8.1 2.9.1 5.5.1 8.2z"/><path class="st1" d="M45.5 54v.9c-2.3-1.2-4.6-1.9-7-2.4-.8-.1-1.6-.2-2.3-.2-.5 0-.8.3-.7.8.1.6-.2 1-.6 1.4l-3.7 3.9c-1.4 1.6-2.7 3.3-4.1 5-1 1.1-1.7 2.4-2.3 3.7-.4.7-.5.7-1.3.4-3.4-1.4-6.8-3-9.8-5.1-.2-.2-.5-.4-.8-.6l4.6-5 6-6.8c1.1-1.2 2.1-2.4 3.1-3.6 1-1.1 1-2.3.5-3.5-.6-1.5-1.6-2.7-2.6-3.9-.7-.8-1.5-1.6-2.3-2.4-.4-.4-.3-.6 0-.9l3.1-2.4 3.9-2.7s.1-.1.2-.1c1.3-.7 1.5-.7 2.3.6.4.7.9 1.3 1.4 2 .6 1 1.3 2 1.8 3.1.8 1.7 1.9 3.3 3.1 4.7 1.2 1.4 2.2 3.1 3.2 4.7.3.5.7.9 1.3.8.6-.1 1.1-.1 1.7-.1.4 0 .6 0 .7.5.1 2.4.3 4.8.6 7.2z"/><path class="st0" d="M43.9 20.9c.2 8 .4 16 .7 24.2-.7.1-1.4.1-2.2.2-.1 0-.3-.2-.3-.3-1.2-2.2-2.8-4.1-4.4-6-.9-1.1-1.5-2.6-2.3-3.9-.5-.9-1.1-1.7-1.7-2.6l-.8-1.2c-.3-.5-.6-1-.9-1.4-.7-.9-1.4-1.2-2.4-.6-1.2.6-2.4 1.4-3.5 2.2-1.5 1.1-3 2.2-4.4 3.3l-.1.1c-1.1.9-1.1 1.6-.1 2.5 1.7 1.5 2.9 3.5 4.1 5.4.7 1.2.5 2.2-.3 3.4-2.4 3.2-5 6.3-7.7 9.2-1.8 1.9-3.7 3.8-5.2 5.9-1.7-.7-2-2.3-2.3-3.8-.4-1.9-.6-3.8-.9-5.7l-.9-6.1c-.5-2.7-.8-5.2-1.2-7.7-.5-3.3-1.2-6.6-1.7-9.8l-1.6-9c-.4-2.6-.7-5.3-1.1-8-.2-1.6-.6-3-.8-4.5-.1-.5 0-1.1 0-1.7 0-.1.3-.3.5-.3.9.3 1.8.5 2.6.8 2.1.7 4.2 1.5 6.3 2.4 1.4.6 2.8 1.3 4.1 2.1 2.8 1.5 5.8 2.8 8.8 3.9l11.8 4.6c2.2.8 4.4 1.5 6.6 2.2.4.1.8.1 1.3.2z"/><path class="st4" d="M121.3 54.1l.1 4.3c-.1 2.7-.2 5.3-.5 8-.4 3.1-1 6.2-1.5 9.3-.2 1-.6 2-1.4 2.7-.7.7-1.5 1-2.5 1.1-1.5.1-3-.4-4.4-.7-1.7-.3-3.4-.8-5.1-1-1-.1-2-.6-3-1-2.4-1.1-4.7-2.5-6.9-3.9-1.9-1.2-3.9-2-5.8-3.1-2.5-1.5-5.2-2.8-7.5-4.6-1.1-.8-2.4-1.3-3.6-2-.4-.2-.9-.5-1.3-.8-.8-.6-1.7-.5-2.5-.1l-5.4 3c-2 1.1-4 2.1-5.9 3.3-3 1.8-6 3.7-9.1 5.4l-7.7 4.4c-1.5.8-3.1.6-4.6-.1-1.9-.8-3.8-1.7-5.6-2.7-3.8-2-7.8-3.7-11.8-5.2-4.5-1.7-8.9-3.6-12.9-6.4-1-.7-2-1.3-2.8-2.1-.6-.6-1.1-1.3-1.3-2.1-.4-1.6-.7-3.3-1-4.9-.3-1.8-.5-3.6-.7-5.4l-.6-4.9-.7-4.8c-.3-.8-.4-1.7-.5-2.5l-.6-4.5-.7-5-.9-5.7-.5-4.1-1.2-6.3c-.4-1.7-1-3.5-.9-5.3.1-.8.3-1.6.5-2.3.2-.6.7-.8 1.3-.9 1.6-.3 3 .4 4.5.9 2.4.8 4.7 1.5 7 2.5 2.4 1 4.6 2.3 7 3.4 1.7.8 3.4 1.4 5.2 2.1 5 1.9 10 3.8 15 5.6 1.1.4 2.2.8 3.3.9 1.6.1 3.1-.5 4.4-1.3 3.4-1.9 6.6-4 9.8-6.2l11.3-7.4c1.2-.8 2.4-1.7 3.7-2.4.9-.7 2-.9 2.9-1.3h1.3c1.2.4 2.4.8 3.5 1.3l4.8 2.3 4.9 2.3c2.6 1.2 5.3 2.1 8 2.8l6.9 1.5 11 2.5 2.5.4c1.7.4 2.1 1.2 1.8 2.7-.2 1.1-.1 2.2-.2 3.4v4.5l.1 6.4.2 7.4c.6 5.4.5 11 .6 16.6zm-2.7 4.5c.1-1.7-.1-3.4-.1-5.1 0-5.3 0-10.6-.3-15.8-.2-2.6-.2-5.2-.3-7.9l-.1-5.1v-7.3l.1-2.1-1.5-.2-7.2-1.6-6.5-1.5c-2.6-.6-5.2-1.2-7.8-1.9-3.4-.9-6.5-2.6-9.7-4.2l-.9 1.3c-.9 1.3-1.9 2.5-2.9 3.8l-3.4 4.8c-.1.1-.1.3-.1.5l.4 5.5.5 6 .3 4.7.5 8.2c.1 1.5 0 3 0 4.5h.2c2.9-.4 5.5.2 7.7 2.4.8.8 1.7 1.5 2.6 2.2.8.6 1.8 1 2.7 1.4 1.1.5 2.2 0 3.2-.3 1.5-.5 3.1-.8 4.6.1 1.2.7 2.4 1.4 3.6 2.2 1 .6 1.6 1.5 1.9 2.6.5 1.5.4 3.1.2 4.7l-.9 6.2c-.3 2-.8 3.9-1.2 5.9-.1.6-.3 1.2-.5 1.9 1.7.7 3.2 1.5 4.9 1.8l4.5.8c.3.1.6.1.9.1 1.6.1 2.2-.3 2.5-1.9.6-3 1.2-6 1.5-9 .5-2.5.5-5.1.6-7.7zm-13.7 4.1c.3-1.8.6-3.6.4-5.4-.1-1.4-.6-2.7-1.9-3.4l-3.2-1.9c-.7-.4-1.5-.6-2.3-.5l-2.4.6c-1.3.4-2.5.4-3.8-.2-2-1-3.8-2.2-5.4-3.8-1.8-1.8-4-2.4-6.5-1.9-.4.1-.5.3-.5.6v4.3c0 1.8-.1 3.6-.2 5.4-.1 1-.3 2-.5 3-.1.7-.1 1.4.8 1.7.3.1.5.3.7.4 1.3.6 2.6 1.2 3.8 1.9 2.2 1.3 4.3 2.7 6.5 3.9l6.7 3.6 5.3 3.1c.1-.6.3-1 .4-1.5.4-1.7.8-3.3 1.1-5 .6-1.7.7-3.3 1-4.9zm-22.3-54.5c.9-.7 1.4-1.7 2-2.7l-7.1-3.6c.1 4.1.3 7.9.4 11.8.1 0 .1 0 .2.1l2-2.7c.8-1.1 1.5-2.1 2.5-2.9zm-4.7 37.8c.4-.2.5-.4.5-.8-.1-2.2-.2-4.4-.3-6.7l-.2-4.1-.5-8.1c-.1-1.8-.2-3.5-.4-5.3 0-.5-.1-1.1-.2-1.8l-.2.5c-1.7 4.5-3.3 9-4.2 13.7-.3 1.5-.5 2.9-1.8 4-.9.8-1.9 1.6-3 2.1l-4.7 1.8c-.5.2-.9.6-1 1.1l-1.4 4.9c-.7 2.2-2.1 4-4.4 4.8-2.7 1-5.3 2.3-7.8 3.7-.9.5-1.5.9-1.1 2 .1.2 0 .4 0 .5l.1 3.5.4 9.8c.1 1.5 0 3 0 4.5 1.6-1 3.3-1.9 4.9-3 2.8-1.9 5.5-3.8 8.4-5.6l7.3-4.3c.7-.4 1.2-.8 1.3-1.8.3-2 1-4 1.7-5.9.9-2.3 1.9-4.6 2.9-6.8.1-.2.3-.5.5-.7.9-.9 2-1.5 3.2-2zm-.5 13.9c1.4-4.3 1-8.6.9-13.1-1.3.7-2.6 1.3-3.2 2.8-1.2 3-2.6 6-3.3 9.2-.2 1-.6 1.9-.9 3 2-1.2 4-2.8 6.5-1.9zm-1.4-40.7c.4-1.2.8-2.3.6-3.6-.2-1.6-.2-3.2-.3-4.8-.1-2.9-.2-5.8-.2-8.7-.1 0-.2.1-.4.2-1.6 1-3.1 2.1-4.7 3-1 .6-1.3 1.2-1.2 2.3 0 1.8-.2 3.6-.4 5.4l-.3 3.6-.7 5.6c-.2 2-.3 4-.5 5.9-.1.8-.3 1.6-.9 2.3-1.2 1.4-2.7 2.5-4.4 3.1l-2.1.7-.3-1c1.6-.5 3.1-1.1 4.4-2.1.9-.7 1.8-1.4 1.9-2.6l.6-6 .4-3.8.6-5.4.3-3.8c.1-.8.1-1.7.1-2.5h-.2l-.5.3c-2.8 1.8-5.7 3.6-8.5 5.6-3.1 2.1-6.2 4.2-9.4 6-1.6.9-3.2 1.6-5 1.9l.4 3.3c.1 2.1.2 4.1.2 6.2.1 3.6.2 7.2.3 10.9 0 1 .1 2 .2 3.1l.5.8c-.4.3-.5.6-.4 1 .2 1.8.3 3.6.5 5.5.1 1.3.3 2.6.4 4h.1c2.8-1.6 5.6-3.1 8.6-4.2 1.8-.7 2.9-2 3.5-3.7l1.6-5.2c.2-.7.4-1.3 1.1-1.6 1-.4 2-.9 3.1-1.2 1.6-.5 3.2-.9 4.3-2.1.7-.7 1.5-1.3 1.8-2.3.5-2.2 1-4.4 1.7-6.5 1-3.4 2.1-6.5 3.2-9.6zm-29.7 57.5c0-.8.1-1.7 0-2.5 0-2.7 0-5.4-.1-8-.1-2.9-.3-5.9-.5-8.8 0-.7-.2-1.1-.9-1.4-2.6-1-5.2-2-7.9-2.3-.1 0-.3.1-.4.3-.5.7-1 1.4-1.6 2.1-1.8 1.9-3.7 3.9-5.4 5.9-1.6 1.9-3.1 3.9-4.1 6.2l.1.1c3.9 1.4 7.7 3 11.4 4.8 2.5 1.2 4.9 2.6 7.6 3.5l.9.5c.2.1.4.2.5.1.2-.1.4-.3.4-.5zm-.8-21.8v-.9c-.2-2.4-.5-4.8-.7-7.3 0-.5-.3-.6-.7-.5l-1.7.1c-.6.1-1-.3-1.3-.8-1-1.6-2-3.2-3.2-4.7-1.2-1.5-2.3-3-3.1-4.7-.5-1.1-1.2-2.1-1.8-3.1l.8-.5 1.7 2.6c.8 1.3 1.3 2.7 2.3 3.9 1.6 1.9 3.2 3.8 4.4 6 .1.1.2.3.3.3.7 0 1.5-.1 2.2-.2-.2-8.2-.5-16.2-.7-24.2-.5-.1-.9-.1-1.3-.3-2.2-.7-4.4-1.4-6.6-2.2-4-1.5-7.9-3.1-11.8-4.6-3-1.2-6-2.4-8.8-3.9-1.4-.7-2.7-1.5-4.1-2.1-2.2-.8-4.3-1.6-6.4-2.3-.8-.3-1.7-.5-2.6-.7-.1-.1-.5.1-.5.2 0 .6-.1 1.2 0 1.7l.8 4.4 1.1 8c.5 3 1 6 1.6 9 .6 3.3 1.2 6.6 1.7 9.8l1.1 7.6.9 6.1c.3 1.9.5 3.8.9 5.7.3 1.5.6 3.1 2.3 3.8l.6.5c.4.3.6.5.8.6 3 2.1 6.4 3.7 9.8 5.1.8.3.9.3 1.3-.4.7-1.3 1.4-2.5 2.3-3.7l4.1-5c1.2-1.4 2.4-2.6 3.7-3.9.4-.4.6-.8.6-1.4-.1-.5.3-.8.7-.8.8 0 1.6 0 2.3.2 2.4.7 4.7 1.4 7 2.6zM60.3 33.4l.3 1-3 .9c-1 .3-1.7.8-1.9 1.9 0 .2-.1.3-.2.5-.4.4-.8.9-1.3 1.3l-4.2 3.3c-1.1.9-2.2 1.9-3.4 2.8l-.5-.8c.2-.2.4-.3.5-.5.9-.8 1.7-1.7 2.6-2.4 1.5-1.2 3.1-2.4 4.7-3.6.3-.2.6-.5.7-.8.1-.8.6-1.4 1.1-1.9.9-.8 2-.9 3-1.2l1.6-.5zM33.8 32.5l-.8.5c-.4-.7-.9-1.3-1.4-2-.8-1.2-1-1.3-2.3-.6l-.2.1-3.9 2.7c-1.1.8-2.1 1.6-3.1 2.4-.4.3-.4.6 0 .9.8.8 1.6 1.6 2.3 2.4 1 1.2 2 2.4 2.6 3.9.5 1.3.5 2.4-.5 3.5-1.1 1.2-2.1 2.4-3.1 3.6l-6 6.8c-1.5 1.7-3 3.3-4.6 5l-.6-.5c1.5-2.2 3.4-4 5.2-5.9 2.8-2.9 5.3-6 7.7-9.2.9-1.1 1-2.2.3-3.4-1.1-2-2.3-3.9-4.1-5.4-1.1-1-1-1.6.1-2.5l.1-.1 4.4-3.3c1.1-.8 2.3-1.5 3.5-2.2 1-.5 1.8-.3 2.4.6l.9 1.4c.5.5.8.9 1.1 1.3z"/></svg>