<svg xmlns="http://www.w3.org/2000/svg" viewBox="-130 245 351 304" enable-background="new -130 245 351 304"><style type="text/css">.st0{fill:#CD96B2;} .st1{fill:#0D0F0F;}</style><path class="st0" d="M219.9 464.8l.3-48-1.3-43.6.7-48.7-.3-33.8s.7-29.6-.7-34.8c-1.3-5.1-4.6-10-18.6-10.3l-63.1 1s-12.4-1-18.3-.7c-5.9.2-16.7.2-23.2.5s-16.4-.5-22.6 0h-46.8s-13.7-1.2-20.6-.7-36 .5-41.2.5l-26.6-.7s-6.6.8-12.2.5h-23.8l-12.8.3s-7.5-1-10.5 1.7c0 0-7.9 3.2-7.9 10.5s1.3 77.6 1.3 77.6v94l-.7 48.7.5 37.2.3 22.3s1.3 7.6 12.4 9.1l46.5.2 88.7 1h62.8l40.2-.5 34.4-.5 14.4.5 24.9-.5s11.8 2.9 17-1.7c5.2-4.7 7.2-8.6 6.9-15.9-.4-7.4-.1-65.2-.1-65.2zm-57.6 73.2l-66.7.2s-6.9-.7-12.1-.7l-18.6 1-46.1.2-37 1.2-24.9-1.7-30.8-.7-41.9 1-.7-14v-32.8l1-52.1-.7-45v-31.3l.7-31.1-1.3-30.4 1-44.3h41.6l42.9-.2 30.8-.2s9.8 1.2 12.1 1.2l14.1-1.2 13.7.2 41.9-1 28.1-.2 29.1 2h20l46.5-.5.7 18.8.7 15.2-.7 19.6-1 55.1.7 79.5.3 50.2 1 42.1-44.4-.1z"/><path class="st1" d="M206.5 245.8c-1.3-.2-2.6-.4-4.2-.5l-28.4.1h-7.1c-4.1.2-6.3.3-6.6.3h-1.9c-1.6.1-2.9.1-3.8.2l-16.5-.1h-3.8c-.3 0-.7-.1-1.2-.1h-3.8c-.6-.1-2.3-.2-5.1-.2-2.1 0-4.5.1-7 .2h.1c-.7 0-1.4.1-2.2.1l-7.3.2h.4-.7-1.8-16.1c-1.6-.1-2.5-.1-2.6-.2l-12.3-.2c-1.4.1-2.2.1-2.5.2h-9c-1.2 0-2.8.1-4.8 0h-13.600000000000001c-4.1.1-6.6.1-7.4.1h-.1l-12.4-.1c-.5 0-2.2-.2-5.2-.3-2.9-.2-4.5-.3-4.8-.3h-17.6l-.9.1h-13.9l-6.1.1h-13.1c-2.7.1-4.1.2-4.3.2l-2.9-.1c.8.1-.1.1-2.6 0-4.3-.1-6.7-.2-7.1-.2h-8.3c-1.4.1-2.7.2-3.7.2h-9.3c-1.2 0-3.1-.1-5.7-.4-2.1-.1-3.8-.1-5.2-.1h-4.3l-.3.1h-3.2c-.4.1-1.4.2-2.8.2l-3.2.1h-1.6c-1 0-2 .1-2.9.2h-8.7c-1.3.1-2.2.3-2.7.3-3.8.2-7.1 1.6-10.1 4-2.7 2.2-4.1 4.3-4.1 6.2v.2l.1.4v3.7c.1.3.2.7.3 1.4v8.7c.2 1.7.2 2.9.2 3.7 0 1.1 0 1.9-.1 2.4v5.2c-.1.6-.2 1.5-.3 2.7v11.5c0 1.1 0 1.9.1 2.4v4c0 .2-.1 1.3-.2 3.1-.1 1.7-.1 2.8-.1 3.3 0 .2.1 2.9.2 8.4v5.8c-.1.5-.1 1.1 0 1.8 0 1.4.1 2.7.3 3.7s.3 1.8.3 2.3c0 2-.1 3.8-.3 5.5-.2 1.7-.3 4.1-.3 7.3v2.5c0 1.7.1 3.1.2 3.9.3 2.7.4 4.8.4 6.5l-.2 3.1v8.8c-.2 1.8-.3 3.4-.3 4.7 0 0 0 .5.1 1.3.1.4.1.6.2.8l-.1.6c0 .4-.1 1-.2 1.9l.5 10.7c0 1.2-.1 2.6-.2 4.2-.2 1.6-.3 2.9-.3 3.8 0 .8.1 1.5.2 1.8v6.9l.2.3v8.3c-.1.9-.1 1.7 0 2.6v3.7l-.2.3v4.3c.1.2.1.5.1 1v.2c0 .4.1 1.1.2 2.3s.2 1.9.2 2.2c0 .6 0 1.1-.1 1.4v6c-.2 2-.2 3.6-.2 4.6l.2 8.8c0 2.2-.2 5.4-.5 9.6-.4 4.3-.6 7.5-.6 9.6 0 .6.1 1.7.2 3.3 0 .3 0 1-.1 2v.3c0 .3.1 1.3.3 3.2.2 1.9.3 3 .4 3.5v7c.2 1.7.4 3.3.4 5 0 .8-.2 2.8-.5 6.1-.3 3.2-.5 6-.5 8.3 0 0 0 1 .1 3 .1.9.2 1.7.4 2.2v.3c0 .7 0 1.8-.1 3.3 0 .5 0 1.3.1 2.5.1 1.4.1 2.3.2 2.6v6.2c-.2 1.7-.3 3.6-.2 5.9 0 .6.1 1.1.1 1.5 0-.3-.1-.3-.1.2s.2 1.5.6 2.8c.4 1.4 1.1 2.6 2.1 3.6 2.4 2.7 5.6 4.2 9.7 4.5 2.5.7 5.2 1 8 .9h12c.4 0 2.3 0 5.6.1.5 0 1.1.1 1.8.2.6.1 1.4.1 2.4.1h5c.1 0 2.3-.2 6.6-.4h4.3l4.1-.2c2.8.1 5.3.3 7.3.3 1.5.1 2.7.1 3.5.1s1.9-.1 3.3-.2c1.7-.2 2.5-.3 2.7-.3 1.8-.1 3.3-.1 4.4 0 .3 0 1 .1 2 .2s2.3.2 4 .3h6.7c1.4 0 3.1 0 5-.1s3.4-.2 4.5-.4c2 0 3.7.1 5.3.2 2.8.1 5.5.2 8.3.2h14.8c1.5.1 2.7.1 3.5.2s1.8.1 3.1.1l4.9.1 7-.1c.2 0 1.3 0 3.4-.1h5.8c.5 0 1.4-.1 2.7-.2 1.9-.1 3.2-.2 4.2-.2l9.7-.1c1.7 0 2.9.1 3.7.2.8.2 2.2.2 4.3.2 1.3 0 2.2 0 2.8-.1.5 0 1.9-.1 4-.3h-.6.6 1.2 1.8c.2 0 2 .1 5.4.3 2 0 3.4.1 4.3.1h12.799999999999999l6.3-.6h4c.8 0 1.5 0 2-.1 2.8.1 4.9.2 6.4.1h-.4 3 1.7c1.2 0 2.2.1 2.9.3 2.5.2 4.1.4 5.1.4.6 0 1.2 0 2-.1s1.8-.1 3.2-.2h5.3c2.2-.1 3.5-.2 3.9-.3l19.9-.3h1c1.3 0 2.4.1 3.3.1.9.1 1.5.1 1.9.1h.5c.7.1 2.2.2 4.2.4l5.4.1.5-.1h5.7l2-.2 13.7-.1c.4 0 2.7.1 6.9.2l2 .2s2.5.2 4.4.3c1 0 1.9-.1 2.8-.4l1.2-.3c2.2-.7 4.3-2.1 6.1-4 1.1-1.2 2.1-2.5 3-4.1l.3-.5c.8-3.2 1.2-6 .9-8.3-.1-.6-.1-1.7 0-3.4v-4.4c0-2.1 0-3.6-.1-4.7v-4.7c.1-.6.2-1 .2-1.5v-1.4c.1-.5.1-.9 0-1.4 0-.1 0-.2-.1-.3v-9.5l.1-.2v-5.4c-.1-.7-.1-1.5 0-2.3l-.1-22.1c.2-1.8.3-2.8.4-3.1v-2.2c0-1.1-.1-2.4-.2-3.9 0-.4-.1-1.1-.1-2v-1c0-.7 0-1.2-.1-1.5v-5.8c-.1-1-.2-1.8-.3-2.3v-10.4c-.1-2.4-.1-3.7-.1-3.9 0-1.5.2-3.8.5-6.8s.5-4.8.5-5.4v-7.8999999999999995c0-.7 0-1.3-.1-1.6v-2.5c-.1-.2-.4-2.7-.8-7.5v-5.3c-.1-3-.1-4.5-.1-4.7 0-2.1 0-3.6.1-4.7v-7.6c.2-.9.2-1.7.2-2.5s0-1.3-.1-1.7v-3.7c.1-.3.1-.7.2-1.2v-2.4l-.2-7.5.2-10.4c0-2.5-.1-4.8-.2-6.8-.1-2.1-.2-3.9-.2-5.5v-2.9c0-1.2.2-2.4.4-3.5v-7.1c.1-.4.2-1.1.2-2 0-.6-.1-1.3-.2-2.3s-.2-1.9-.2-2.7c0-.7-.1-1.4-.2-1.9v-8.7c0-.1 0-.2-.1-.3 0-.6.1-1.7.1-3.1l-.1-9.7c0-.7.1-1.4.3-2.3v-5.9l.1-.1.1-5.4v-.2c0-.2.1-.6.1-1.4.1-.9.1-1.5.1-1.7v-2.1c0-.5-.1-1-.2-1.5l-.3-6.2v-9.4c-1-5-2.9-8.1-5.8-9.5-2.8-1.4-5-2.2-6.4-2.4l-1.4-.1m-3.2.6c1.5 0 3.7.4 6.4 1.1 2.7.7 4.7 2.1 6 4.2 1.3 2.1 2.1 4.3 2.5 6.7v-.5l.1 3.7v2.4c0 1.6.1 2.9.1 3.8l.1 17.4-.1.4v5.8c-.2 1-.3 1.9-.3 2.6l.1 9.5v12-.6c0 .8.1 2.1.3 3.9.1.9.2 1.7.3 2.3.1.3.1.8.1 1.6s0 1.4-.1 1.8v7.9c-.1.4-.2 1.4-.3 2.8-.1 1.4-.1 2.4-.1 3.1 0 .1.1 1.7.2 4.9.1 3.4.2 5.9.2 7.4l-.2 10.5c0 2.6.1 4.3.2 4.9v4.9l-.2 2.5c0 .3 0 .2.1-.5v3.2c.1.9.1 2.3 0 4.2-.1 1.4-.1 1.7-.1.8v6.4c-.1 1.1-.2 2.7-.2 4.9v1.9c0 1.3.1 2.3.1 3v5.4c.4 3.1.6 5.1.8 5.9v4.1c.1.3.2.7.2 1.3v7.9c0 .6-.2 2.3-.5 5.1s-.5 5.2-.5 7.1c0 .2 0 1.5.1 4v10.5c.1.5.2 1.3.3 2.3v5.8c0 .1.1.6.1 1.4 0 .3.1 1.1.2 2.3.1 1.6.2 3 .2 4.4v2.1c0 .3-.1 1.3-.4 3.1l.1 19.4c0-.2 0-.3.1-.4 0-.1 0 1.8-.1 5.8v4.8l-.1.2-.1 11c0 .2.1.5.1.8 0 .8-.1 1.5-.1 2.1 0 .2 0 .5-.1.7-.1.6-.1 1.3-.1 2.2 0 1.3.1 2.2.2 2.8v8.2c-.1.5-.2 1.3-.2 2.3-.1 1-.1 1.8-.2 2.2v5.7c0 .3-.4 1-.9 2.2-.6 1.2-1.7 2.5-3.2 3.9-1.6 1.4-3.7 2.6-6.5 3.6h-3.2c-.7 0-1.7-.1-3.1-.3-1-.1-2.1-.2-3.5-.3l-19 .2c-1.2.1-1.8.1-2 .2l-8.3-.1c-3.5-.3-7.3-.4-11.6-.6l-23 .3c-.3 0-.8.1-1.7.1-.8 0-2 .1-3.5.1l-5.5.1c-2.8.1-5 0-6.6-.1l-2.7-.1c-2.2-.1-3.4-.2-3.6-.2l-4.3-.1h.4l-11.3.1-6.2.5-17-.1c-.8-.1-2.1-.2-4-.3h.3c-2-.1-3-.1-3.2-.1l-5.7.3h-2.7c-1.3 0-3-.1-4.9-.3-1.6-.2-3-.2-4.4-.1l-5.8.2c-1.5-.1-2.3-.2-2.5-.2-.8 0-2.1.1-4 .2-1.6.1-2.6.2-2.8.2h-9.2c-.2 0-1.8.1-4.8.1h-6.7c-.3 0-1.4-.1-3.4-.3-1.5-.1-2.7-.1-3.6-.1h-14.1c-4.8-.1-7.4-.2-7.9-.3h-1.4c-1.2 0-2.8-.1-4.8 0-1.5.2-3 .3-4.3.3-1.4.1-2.1.1-2.3.1h-1.3l-8.4-.1c-1.9-.1-3.2-.2-4-.2l-2-.2c-1-.2-2.5-.2-4.4 0-.8.1-1.5.2-2.2.3-1.3.2-2.6.2-3.8.2l-7.4-.5-7.9-.1h-.8999999999999999c-.1 0-1 0-2.5.1s-3.9.3-7.2.6h-3.2c-.4 0-.9.1-1.7.1-.8 0-2.2-.1-4.3-.3l-4.6-.1h-15.100000000000001l-3-.6c-2-.4-3.8-.9-5.5-1.4-3.1-1.1-5.2-2.2-6.3-3.5-.8-1.5-1.4-3.4-1.7-5.6v-3.6c-.1-.5-.1-1.1-.1-1.9 0-.8.1-1.2.1-1.3v-6.8l-.6-.5v-6.4c0-1.7-.1-2.8-.2-3.2-.1-.6-.2-1.6-.2-3 0-1.3.2-3.8.5-7.6.3-3.7.5-6 .5-6.7 0-1.9-.1-3.6-.4-5.2v-6.9c-.3-1.2-.4-2.5-.4-4v-2c0-.1 0-.2-.1-.4v-.1l-.3-5.7c0-1 .2-3.9.5-8.8s.5-8.4.5-10.3l-.2-8.8.2-10.4c.1-.4.1-.9.1-1.6-.1-1.4-.1-2.4-.1-3.1v-1.7000000000000002c0-.4-.1-.8-.2-1.2v-3.7c.1-.2.1-.4.1-.7 0-.3-.1-.5-.1-.6 0-2.4.1-4.2.2-5.4v-8.8l-.2-.3v-6.9c-.1-.4-.1-.9-.1-1.7 0-.9.1-2.2.3-3.8.2-1.5.2-2.9.2-4.2 0-.9-.1-2.5-.2-4.7s-.2-3.8-.2-4.8c.1-1.7.1-3 .1-3.8 0-.1-.1-.2-.2-.3v-.3c-.1-1.3-.2-2.2-.2-2.9-.1-1.2 0-2.2.3-2.9v-8.6l.2-3.3c0-1.9-.1-3.8-.2-5.8-.2-2-.3-4.4-.3-7.3 0-3 .1-5.4.3-7.2.2-1.8.3-3.7.3-5.6 0-.9-.2-2.2-.7-3.7v-4.8l-.1-.1c0-.2 0-.3.1-.5v-1.8l-.1-11 .3-8.4c0-1.2 0-2-.1-2.6v-3.7l.1-.3v-8.9c.1-1.2.2-2.1.3-2.7v-5.2c.1-.6.1-1.5.1-2.6 0-.9-.1-2.2-.2-4v-8.5c-.2-.7-.2-1.2-.3-1.6v-3.9c.4-.5.7-1.1 1-1.9.6-1.6 1.2-2.6 1.9-3.2 2-1.8 4.1-3.1 6.2-3.9.8-.1 2.3-.3 4.6-.6l18-.4c.7-.1 1.6-.2 2.8-.3h3.1l.4-.1h4.2c.4 0 1-.1 1.8-.1 1.3 0 2.8 0 4.4.1 2 .1 4.1.2 6.2.4h7.8c.3 0 .9-.1 1.9-.1.9 0 1.5-.1 1.8-.2h8.2c5.3.2 7.7.3 7.1.2 1.3.1 3.1.1 5.4.1.2 0 1.6-.1 4.3-.2h33.3c.2 0 .6-.1 1.4-.1l3.7-.1c.2.1.5.1.9.1h3.7l.5.1h8.4c5.1.3 8.4.5 10.1.7h7.4l.5.1h4.6l.4-.1h24.000000000000004l10.2-.1c.2 0 1.1-.1 2.6-.2h7.9c.1 0 .5.1 1.2.2l5.9.2h14.5c3.5-.1 5.7-.2 6.8-.3l2-.1h2.5c2.2-.2 4.5-.4 7.1-.4 2.9 0 5.6.1 8 .4h2.6c.6 0 1.2 0 1.7.1.6.1 1.6.1 3.1.1l13.9.1c1.3 0 3.5 0 6.4-.1l5.5-.1c.9 0 1.9-.1 3.2-.2l35.2-.2h-.2 1.3z" id="Layer2_10_FILL"/><path class="st1" d="M206 256.7l-2.8.2-5.1-.1c-.2.1-3.1.1-8.8.2-5.3.1-13 .1-23 .2-.4.1-9.7.2-27.8.3-.2-.1-2.5-.2-6.9-.4-1.5-.2-5.6-.5-12.4-.9-6.1-.4-9.3-.6-9.6-.7l-16.4-.1c0 .1-.2.1-.7.2l-15 .2c-.5.1-7 .2-19.6.4-.1 0-4 .2-11.5.4h-20.8c-.4.2-3 .3-7.6.6-3.9.2-8.2.3-12.9.5-.1-.1-.8-.2-2.1-.3s-2-.2-2.1-.3l-9.9-.2c-.2-.1-4-.2-11.4-.3 0 .1-.2.1-.5.2l-78 .2c-.3 0-.5-.1-.6 0-.1 0-.1.1-.1.1-3.6-.2-9.1-.3-16.5-.5 0 0-.1-.1-.1 0-.1 0-.1.3-.1.6 0 .4.1.6.2.6s.1 0 .2-.1c5.9.3 11.6.4 17.2.4l77.8.1c.2-.1 2.1-.1 5.8-.2l5.4-.1c.1.1 1.8.2 5.2.3l5.1.1c.1.1.8.2 2.1.3l1.9.1c.1.1 1.6.1 4.4.2 2.2 0 3.9.1 5.1.1.7 0 2.8-.1 6.4-.4 3.7-.3 5.6-.4 5.9-.5l33.8-.2c.2 0 .3 0 .6.1.1 0 3.6-.2 10.5-.5h5.1c.3-.1 3-.2 8.1-.3 2.6 0 5.1-.1 7.6-.1.3-.1 3.3-.1 9-.2 2.9 0 5.7-.1 8.5-.1.3.2 3.5.5 9.8.9 5.8.4 9.7.5 11.7.6.1.1 1.3.2 3.5.3l3.3.1c.1.1 4.7.1 13.9.2l13.7.1c.3-.1 5.7-.2 16.4-.3h13.8c3.9 0 6.9-.1 9-.3h.3c0 .2 0 .5-.1.8-.1 1-.1 2.7-.1 5 0 1 .1 3.5.2 7.5 0 .4 0 .9.1 1.4 0 .6 0 1-.1 1.3v5.9c.1.6.2 1.8.3 3.6.1 2.1.2 3.5.2 4.3v3.7c0 .5 0 .9.1 1.3v1.7c0 .6-.2 5.4-.5 14.4-.3 9.9-.5 17.3-.5 22.1v60c.4 3.7.6 9.3.4 17l-.1 6.8c.1-1.3.2 1.6.3 8.7.2 8 .2 14.2 0 18.6-.2 3.3-.4 7.9-.6 13.9s-.1 10.8.1 14.5.5 13.8.6 30.5c.2 16.7.2 27.1.1 31.1-.2 4.1.3 6 1.3 5.8l1-.2c-1.1-2.7-1.4-7.5-.8-14.4.6-6.9.6-16.8 0-29.6-.5-12.8-.9-19.7-1.1-20.7-.1-1 0-9.8.5-26.5.5-16.6.6-29.3.5-37.9s-.4-14.7-.8-18.4v-59.1c.3-3.3.5-8.3.5-15.1 0-6.8.2-11.8.5-15.1v-6.3s.1-.1.1-.2.1-.3.1-.7l-.2-11.2-.2 1-.1-2.4c-.1-2.6-.2-4.1-.2-4.6l.1-4v-1.6c0-.3 0-.5-.1-.8-.1-1-.2-1.5-.2-1.6.1-2.1.1-3.6 0-4.6v-7.6h-.3z" id="Layer2_10_MEMBER_0_FILL"/><path class="st1" d="M205.7 537.9c-.1 0-.1 0-.2.1-7.3-.4-12.9-.7-16.7-.9-.1.2-.3.3-.5.5l-77.8-.1c-.2.1-2.1.1-5.8.2l-5.4.1c-.1-.1-1.8-.2-5.2-.3l-5.1-.1c-.1-.1-.8-.2-2.1-.3l-1.9-.1c-.1-.1-1.6-.1-4.4-.2-2.2 0-3.9-.1-5.1-.1-.7 0-2.8.1-6.4.4-3.7.3-5.6.4-5.9.5l-33.8.2c-.2 0-.3 0-.6-.1-.1 0-3.6.2-10.5.5h-5.1c-.3.1-3 .2-8.1.3-2.6 0-5.1.1-7.6.1-.3.1-3.3.1-9 .2-2.9 0-5.7.1-8.5.1-.3-.2-3.5-.5-9.8-.9-5.8-.4-9.7-.5-11.7-.6-.1-.1-1.3-.2-3.5-.3l-3.3-.1c-.1-.1-4.7-.1-13.9-.2l-13.7-.1c-.3.1-5.7.2-16.4.3h-13.8c-3.9 0-6.9.1-9 .3h-.3c0-.2.1-.5.1-.8.1-1 .1-2.7.1-5 0-1-.1-3.5-.2-7.5v-1.4c0-.6 0-1 .1-1.3v-5.9c-.1-.6-.2-1.8-.3-3.6-.1-2.1-.2-3.5-.2-4.3v-3.7c0-.5-.1-.9-.1-1.3 0-.6.1-1.2.1-1.7 0-.6.2-5.4.5-14.4.3-9.9.5-17.3.5-22.1v-60c-.4-3.7-.6-9.3-.4-17l.1-6.8c-.1 1.3-.2-1.6-.3-8.7-.1-8-.1-14.2 0-18.6.2-3.3.4-7.9.6-13.9.2-6 .2-10.8-.1-14.5-.2-3.7-.5-13.8-.7-30.5-.2-16.7.1-27.3.9-32 .7-4.6 0-6.6-2.3-5.9h-.3c.6 3.4.7 8.6.1 15.5s-.6 16.8 0 29.6.9 19.7 1.1 20.7c.2 1 0 9.8-.5 26.5-.5 16.6-.6 29.3-.5 37.9.1 8.6.4 14.7.8 18.4v58.9c-.3 3.3-.5 8.3-.5 15.1s-.2 11.8-.5 15.1v6.3s-.1.1-.1.2-.1.3-.1.7l.2 11.2c.1-.3.1-.6.2-1l.1 2.4c.1 2.6.2 4.1.2 4.6l-.1 4v1.6c0 .3 0 .5.1.8.1 1 .2 1.5.2 1.6-.1 2.1-.1 3.6 0 4.6v7.5h-.1l2.9-.2 5.1.1c.2-.1 3.1-.1 8.8-.2 5.3 0 13-.1 23-.2.4-.1 9.7-.2 27.8-.3.2.1 2.5.2 6.9.4 1.5.2 5.6.5 12.4.9 6.1.4 9.3.6 9.6.7l16.4.1c0-.1.2-.1.7-.2l15-.2c.5-.1 7-.2 19.6-.4.1 0 4-.2 11.5-.4l20.9.1c.4-.2 3-.3 7.6-.6 3.9-.2 8.2-.3 12.9-.5.1.1.8.2 2.1.3s2 .2 2.1.3l9.9.2c.2.1 4 .2 11.4.3 0-.1.2-.1.5-.2l78-.2c.3 0 .5.1.6 0 .1 0 .1-.1.1-.1 3.6.2 9.1.3 16.5.5 0 0 .1.1.1 0 .1 0 .1-.3.1-.6.1-.1 0-.3-.1-.3z" id="Layer2_10_MEMBER_1_FILL"/></svg>