<svg xmlns="http://www.w3.org/2000/svg" viewBox="-130 245 351 304" enable-background="new -130 245 351 304"><style type="text/css">.st0{fill:#0D0F0F;} .st1{fill:#280303;stroke:#000000;stroke-miterlimit:10;}</style><path class="st0" d="M205.7 537.9c-.1 0-.1 0-.2.1-7.3-.4-12.9-.7-16.7-.9-.1.2-.3.3-.5.5l-77.8-.1c-.2.1-2.1.1-5.8.2l-5.4.1c-.1-.1-1.8-.2-5.2-.3l-5.1-.1c-.1-.1-.8-.2-2.1-.3l-1.9-.1c-.1-.1-1.6-.1-4.4-.2-2.2 0-3.9-.1-5.1-.1-.7 0-2.8.1-6.4.4-3.7.3-5.6.4-5.9.5l-33.8.2c-.2 0-.3 0-.6-.1-.1 0-3.6.2-10.5.5h-5.1c-.3.1-3 .2-8.1.3-2.6 0-5.1.1-7.6.1-.3.1-3.3.1-9 .2-2.9 0-5.7.1-8.5.1-.3-.2-3.5-.5-9.8-.9-5.8-.4-9.7-.5-11.7-.6-.1-.1-1.3-.2-3.5-.3l-3.3-.1c-.1-.1-4.7-.1-13.9-.2l-13.7-.1c-.3.1-5.7.2-16.4.3h-13.8c-3.9 0-6.9.1-9 .3h-.3c0-.2.1-.5.1-.8.1-1 .1-2.7.1-5 0-1-.1-3.5-.2-7.5v-1.4c0-.6 0-1 .1-1.3v-5.9c-.1-.6-.2-1.8-.3-3.6-.1-2.1-.2-3.5-.2-4.3v-3.7c0-.5-.1-.9-.1-1.3 0-.6.1-1.2.1-1.7 0-.6.2-5.4.5-14.4.3-9.9.5-17.3.5-22.1v-60c-.4-3.7-.6-9.3-.4-17l.1-6.8c-.1 1.3-.2-1.6-.3-8.7-.1-8-.1-14.2 0-18.6.2-3.3.4-7.9.6-13.9.2-6 .2-10.8-.1-14.5-.2-3.7-.5-13.8-.7-30.5-.2-16.7.1-27.3.9-32 .7-4.6 0-6.6-2.3-5.9h-.3c.6 3.4.7 8.6.1 15.5s-.6 16.8 0 29.6.9 19.7 1.1 20.7c.2 1 0 9.8-.5 26.5-.5 16.6-.6 29.3-.5 37.9.1 8.6.4 14.7.8 18.4v58.9c-.3 3.3-.5 8.3-.5 15.1s-.2 11.8-.5 15.1v6.3s-.1.1-.1.2-.1.3-.1.7l.2 11.2c.1-.3.1-.6.2-1l.1 2.4c.1 2.6.2 4.1.2 4.6l-.1 4v1.6c0 .3 0 .5.1.8.1 1 .2 1.5.2 1.6-.1 2.1-.1 3.6 0 4.6v7.5h-.1l2.9-.2 5.1.1c.2-.1 3.1-.1 8.8-.2 5.3 0 13-.1 23-.2.4-.1 9.7-.2 27.8-.3.2.1 2.5.2 6.9.4 1.5.2 5.6.5 12.4.9 6.1.4 9.3.6 9.6.7l16.4.1c0-.1.2-.1.7-.2l15-.2c.5-.1 7-.2 19.6-.4.1 0 4-.2 11.5-.4l20.9.1c.4-.2 3-.3 7.6-.6 3.9-.2 8.2-.3 12.9-.5.1.1.8.2 2.1.3s2 .2 2.1.3l9.9.2c.2.1 4 .2 11.4.3 0-.1.2-.1.5-.2l78-.2c.3 0 .5.1.6 0 .1 0 .1-.1.1-.1 3.6.2 9.1.3 16.5.5 0 0 .1.1.1 0 .1 0 .1-.3.1-.6.1-.1 0-.3-.1-.3z" id="Layer2_10_MEMBER_1_FILL"/><path class="st1" d="M-114.6 257.8s.5 3.8-.5 8.3c0 0-1.8 34.6 0 43.8l.4 16.8s.5 3.5.3 5.3c-.2 1.8-.9 40.8-.9 40.8s.3 4.7.3 7.7-.5 18.8.3 23.8 0 57.5 0 57.5l-.4 20.3-.7 20.3s.1 10.7.7 14.4c0 0 .2 3.3-.2 5.7 0 0 .4 11.8 0 14.7 0 0 64-1.4 68.3-.3 0 0 23 .9 27.1 1.9 0 0 42.8-.6 48.8-1.2l34.4-.1s12.9-2 25.8-.2c0 0 7.8.2 10.3.4 0 0 9.8-.3 12.9-.3l76.1.1.5-.5 17.3 1s-.8-1.2-.7-4.6c.1-3.5.1-17.3.1-17.3s-.6-41.1-.6-41.6-1.2-5.3.4-32.7c0 0 .2-23.2-.3-27.3 0 0 .3-20.3-.3-22.9v-62.3s.7-26.8.9-32.9c.3-6.1-.6-16.2-.6-16.2s.2-13.2-.2-15.4c-.4-2.1.2-6.5.2-6.5l-6.4.3-35 .3s-40.9-.1-54-2.2c0 0-48.1.6-48.8 1.2l-.6-.1-33.8.2s-13.4 1.7-25.8.2c0 0-8.6.1-10.3-.4 0 0-46.9.8-49.2.3-.1.1-54.1.2-55.8-.3z"/></svg>