<?xml version="1.0" encoding="utf-8"?>
<!-- Generator: Adobe Illustrator 19.1.0, SVG Export Plug-In . SVG Version: 6.00 Build 0)  -->
<svg version="1.1" id="Isolation_Mode" xmlns="http://www.w3.org/2000/svg" xmlns:xlink="http://www.w3.org/1999/xlink" x="0px"
	 y="0px" viewBox="0 0 1310.5 536.4" style="enable-background:new 0 0 1310.5 536.4;" xml:space="preserve">
<style type="text/css">
	.st0{fill:#330317;}
</style>
<path class="st0" d="M1285,364.5l-2.5-56.3l-0.5-70.2c0,0-2-20.4-2-28.4s1.5-18.4,1.5-18.4L1281,89.7V22.5l-768.8,1.7l-102.1,0.5
	l-161.8,1l-112-1.5l-39.8-1l-30.9,1l-38.3,1l1,70.7v30.4l-4,44.3l0.5,42.8l2,63.7l-0.5,20.9c0,0,2.5,17.9,2.5,21.4
	c0,3.5-2.5,18.4-2.5,18.4l0.5,46.8l0.5,65.2v63.2l90.1,1.5l61.7-2l63.2,1h63.7l91.6-1l106,1.5l749.9-0.2l28.4-1l-2-63.7l1.5-46.8
	L1285,364.5z"/>
</svg>
