<?xml version="1.0" encoding="utf-8"?>
<!-- Generator: Adobe Illustrator 19.1.0, SVG Export Plug-In . SVG Version: 6.00 Build 0)  -->
<svg version="1.1" id="Isolation_Mode" xmlns="http://www.w3.org/2000/svg" xmlns:xlink="http://www.w3.org/1999/xlink" x="0px"
	 y="0px" viewBox="0 0 1310.5 536.4" style="enable-background:new 0 0 1310.5 536.4;" xml:space="preserve">
<style type="text/css">
	.st0{fill:#E798B7;}
	.st1{fill:#330317;}
</style>
<path class="st0" d="M451,3l-97.6-0.5l-88.6,2l-99.1-1L97,4c0,0-60.2-1-70.7,1s-20.4,7-20.9,28.4s2,96.1,2,96.1s-2,18.9-1.5,27.9
	s0.5,25.4,1,35.3s-1,24.9,0,34.4c1,9.5,0,41.8,0,41.8v29.4c0,0-2.5,20.9-1.5,31.4s1,54.8,1,62.7c0,8-1.5,40.3-1.5,40.3
	s1.5,10,1,18.4c-0.5,8.5,0,36.3,0,36.3l0.5,19.4c0,0-2,11.5,3.5,15.9c0,0,6.5,11.9,21.4,11.9s157.8-2,157.8-2s41.8,0,43.3,0
	c1.5,0,147.9,0,147.9,0l99.1,1l758.9-0.7l45.3-0.5c0,0,15.4-2,18.4-18.9c3-16.9,0.5-70.7,0.5-70.7l2-134.9v-95.6l-1-61.2l-1-52.3
	l1-21.9l-1-37.8c0,0,6-17.9-3.5-25.9c-9.5-8-17.4-11-32.4-10.5C1251.7,3.2,451,3,451,3z M1283,90.4l0.5,101.6c0,0-1.5,10.5-1.5,18.4
	c0,8,2,28.4,2,28.4l0.5,70.2l2.5,56.3l-3.5,37.8l-1.5,46.8l2,63.7l-28.4,1l-749.9,0.2l-106-1.5l-91.6,1h-63.7l-63.2-1l-61.7,2
	l-90.1-1.5v-63.2l-0.5-65.2l-0.5-46.8c0,0,2.5-14.9,2.5-18.4s-2.5-21.4-2.5-21.4l0.5-20.9l-2-63.7l-0.5-42.8l4-44.3V96.6l-1-70.7
	l38.3-1l30.9-1l39.8,1l112,1.5l161.8-1l102.1-0.5l768.8-1.7V90.4z"/>
<g transform="matrix( 1, 0, 0, 1, 0,0) ">
	<g>
		<g id="Layer2_10_FILL">
			<path d="M5.3,23.4c-0.4,1.9-0.8,4-1,6.3L4.5,73l0.1,0.5l0.1,10.3c0.3,6.3,0.6,9.6,0.7,10c0,0.8,0,1.8,0,2.9
				c0.2,2.5,0.3,4.4,0.3,5.8l-0.3,25.1c0,3,0,4.9-0.1,5.7c-0.1,0.5-0.2,1.1-0.2,1.8l0,5.7c-0.2,0.9-0.4,3.5-0.5,7.8
				c0,3.2,0.1,6.8,0.5,10.7c0,0,0-0.1,0-0.1c0.1,1,0.2,2.1,0.3,3.4l0.4,11.1c0-0.2,0-0.4,0-0.7v1.1c0.1,3.1,0.1,4,0,2.7v24.6
				c-0.2,2.4-0.3,3.7-0.3,4L5,224.2c0.2,2.1,0.3,3.4,0.3,3.7l0,12.5c0,0.2,0,0.6,0,1.2c0.1,1.8,0.1,4.2,0.1,7.3v12.6l-0.1,0.5v7.6
				c0.2,6.2,0.3,10,0.3,11.2l0,0.1l-0.2,18.9c-0.1,0.7-0.3,3.4-0.7,7.9c-0.3,4.4-0.6,6.8-0.7,7.3l0,12.8l0,0.3
				c0,0.5,0.1,0.7,0.1,0.8v1.8l0,0v3.3l0,0v7.2l0,0.5v0.1l0.1,1.4v13.8c0,0-0.1,0-0.1,0.1v1.3l0,0v5.5l0.1,0.4l0.1,9.3
				c0,0,0,0.1,0,0.1l0,0.1c0,0.1,0,0.1,0,0.1l0.1,9.2l0.1,0.5l0.1,9.9c0.2,4.1,0.4,6.3,0.4,6.6l-0.2,4.1c0.2-1.2,0.2,0.1,0,4
				c-0.2,6.6-0.4,10.2-0.5,10.8v12.7c0.2,2.2,0.3,4.1,0.5,5.6v14.1c0,1.8-0.3,4.7-0.7,8.7c-0.3,3.2-0.4,5.8-0.2,7.9l0,6.5l0.1,0.5
				l0.1,4.9c0.2,0.7,0.3,2.1,0.5,4.3l0.1,4.9c0,0.8,0,1.7,0,2.5c0,1.6,0.2,3,0.5,4.4v13.2c0.3,1.9,0.5,3.3,0.7,4.1
				c0.5,5.8,3.2,10.9,8.2,15.3c4.5,4.1,8.8,6.2,12.7,6.2h0.1c0.1,0,0.1,0,0.2,0h0.2h0c0.2-0.1,0.5-0.1,0.8-0.2h7.5
				c0.6-0.1,1.5-0.3,2.8-0.4h17.7c3.4-0.2,5.9-0.4,7.6-0.4c2.2,0,3.9,0.1,4.9,0.2h10.6c1.2,0.1,3.1,0.3,5.5,0.4h18
				c1.1,0.1,2.7,0.2,4.8,0.2c2.2,0,3.8-0.1,4.9-0.2h8.2c0.5,0.1,2.5,0.1,6.2,0.2c3.5,0.1,5.7,0.1,6.8,0.1c0.3,0,6-0.1,17-0.4h11.5
				c0.1,0,0.1,0,0.2,0c1.1,0.1,2.3,0.1,3.7,0c2.9,0,5.4-0.2,7.6-0.5c2.1-0.3,3.7-0.5,4.7-0.5c4,0,7.7,0.2,11.1,0.5
				c3.5,0.3,8.4,0.5,14.9,0.5c0.2,0,1.9,0,5.1,0c3.5,0,6.2-0.1,8-0.2c5.4-0.4,9.8-0.6,13.3-0.6l6.3,0.4H255c3.8,0.3,6.9,0.4,9.5,0.4
				c0,0,0.9-0.1,2.7-0.2c0.7-0.1,1.3-0.2,1.7-0.4c0.4,0.1,0.8,0.1,1.3,0.1c0.8,0,2.1,0.1,3.8,0.2l21.5-0.6c2.4,0,5.2,0.1,8.5,0.4
				c3.2,0.3,5.8,0.4,7.8,0.4c1.7,0,3-0.1,3.7-0.2h14.1l0.6-0.2h16.9c1.8,0.2,3.6,0.2,5.4,0h7.5l0.6,0.2h8.8c0.3-0.1,1-0.1,2.1-0.1h0
				c0.1,0,0.3,0,0.4,0c0.8,0,2.3-0.1,4.7-0.3c2.4-0.2,3.8-0.3,4.4-0.3c1.3,0,2.3,0.1,2.8,0.2h12.1c4.2,0.2,7.3,0.4,9.4,0.4l18-0.4
				c4.5,0,11,0.2,19.6,0.7c8.6,0.5,15,0.7,19.4,0.7c1.2,0,3.4-0.1,6.7-0.4c0.7-0.1,2,0,4.2,0.1c0,0,0.1,0,0.1,0c0.2,0,0.4,0,0.6,0
				c0.6,0,2.7-0.1,6.4-0.4c3.8-0.3,6.2-0.5,7.2-0.6h14.2c3.4-0.4,6.8-0.6,10.2-0.6c1.6,0,5.8,0.3,12.3,0.8
				c6.6,0.5,695.4,0.6,700,0.6c0,0,2-0.1,6-0.2c1.9-0.1,3.4-0.3,4.4-0.6c0.2,0,0.4,0,0.7,0c1.5,0,3.7,0,6.7,0.1c1,0,2.7,0,5-0.1
				c2.9-0.1,4.7-0.2,5.4-0.3h12.7c3.4,0.3,7.4,0.4,12,0.3c1.1,0,2.2-0.1,3-0.1c-0.6,0.1-0.5,0.1,0.3,0.1c1.1,0,3-0.3,5.7-1
				c2.8-0.7,5.2-1.7,7.3-3.1c5.4-3.7,8.5-8.6,9.2-14.8c1.5-3.9,2.1-7.9,1.9-12.1l0.1-9.9l0.1-0.4l0.1-7.9c0-0.7,0.1-3.5,0.2-8.5
				c0.1-0.7,0.2-1.6,0.4-2.8c0.2-0.9,0.3-2.1,0.3-3.6c0-1.5,0-2.3-0.1-2.6l0-5.1c0-0.2-0.3-3.5-0.9-10.1c0-0.3-0.1-0.5-0.1-0.7
				c0-3.3,0-5.3,0-5.9l-0.3-6.2c0.3-4.3,0.5-8,0.7-11.1c0.1-2.3,0.2-4.1,0.2-5.4c0-1.2-0.2-2.9-0.5-5c-0.3-2.5-0.5-3.9-0.6-4.1
				c-0.2-2.8-0.2-5.1,0-6.7c0-0.5,0.2-1.5,0.4-3c0.2-1.5,0.4-3.5,0.5-6.2v-9c0-0.1,0.1-0.5,0.1-1.2c0.1-2.2,0-4.7-0.2-7.6
				c-0.2-2.9-0.4-5.2-0.8-6.9c0.1-3,0.2-5.7,0.3-8c0.2-4.2,0.3-8.4,0.4-12.7v-22.6c0.1-2.3,0.2-4.1,0.4-5.3c0.1-1.2,0.2-2.8,0.2-4.8
				l0.2-7.5l-0.2-10.6c0-0.3-0.1-2-0.2-5.1V288c-0.1-0.8-0.2-2.2-0.5-4.2c-0.3-2.8-0.4-4.9-0.4-6.3l-0.2-14.7c0-2.5,0.2-4.4,0.5-5.6
				c0.3-1.2,0.5-3.4,0.5-6.6c0-1.9,0-3.4-0.1-4.3c-0.1-0.8-0.3-2.8-0.6-6c0,0.3,0,0.7,0,1v-1h0c0-0.1,0-0.7,0-1.9c0-1.2,0-2.1,0-2.8
				c0-0.3,0.2-3,0.7-8.3c0.1-3,0.1-5.2,0.1-6.5l0.1-0.3v-19.1l-1.1-9.5l-0.1-6c0.1-1.3,0-2.3-0.3-3c0.3-4.2,0.3-7.5,0.1-9.8l0,0.7
				l0.1-4.6c0-0.1,0-0.9,0-2.6c0-1.8,0.2-3.3,0.6-4.5c0.5-3.7,0.7-6.3,0.7-7.7c0-0.8-0.1-1.8-0.2-3c-0.1-1.2-0.3-2.8-0.4-4.9v-8.1
				c-0.3-3.4-0.4-5.4-0.5-5.9l-0.7-30.4c0,0.5,0.1,0,0.1-1.5c0-2,0.1-3.6,0.2-5c0.1-1.4,0.2-2.4,0.2-2.8c0-0.2,0-0.3,0-0.5
				c0-0.2,0.1-0.3,0-0.4c0.1-1.1,0.4-3.3,0.8-6.4l0.1-8.3l-0.1-0.7l0-8.7c-0.1-0.3-0.2-1.4-0.4-3.1l-0.2-20.8
				c0-0.6,0.2-4.1,0.4-10.5c0.1-0.4,0.2-1.3,0.4-3c0.2-1.6,0.4-3.9,0.7-6.7c0-1.5-0.3-2.9-0.7-4.2c-0.2-0.6-0.4-1.3-0.7-1.9
				c-1.5-3.4-4.2-6.5-8.1-9.3c-2.4-1.7-5.1-3.2-8.3-4.6c-0.3-0.2-0.6-0.3-0.9-0.4c-6.5-1.3-12.1-1.8-16.9-1.4
				c-1.2,0.1-3.6,0.1-6.9,0c-1.3,0-4.3,0-9,0c-4.2,0-7.4,0.1-9.5,0.2h-9.6c-1.1-0.2-2.1-0.3-3-0.4c-0.4,0-1.4,0-2.9,0
				c-1-0.1-1.9-0.1-2.8,0c-0.2,0-0.4,0.1-0.6,0.1L522.7,2.1l-0.5-0.2h-10.9c-1.5,0.2-3.1,0.2-4.6,0l-44.9,0.2
				c-3.6-0.3-5.7-0.5-6.3-0.6c-0.4,0-1.9,0-4.5,0c-2.2,0-4.8,0.1-8,0.3c-0.9,0.1-2.2,0.1-4,0.1h0c0,0-0.7,0-2.1,0
				c-1.3,0-2.3,0.1-3,0.2H422c-2.1,0.2-3.6,0.3-4.6,0.5h-21.2c-4.9,0.1-7.6,0.1-7.9,0.1c-3.1,0-7.7-0.2-13.8-0.7
				c-6.1-0.5-9.7-0.7-11-0.7c-3.2,0-8.1,0-14.8,0c-0.8,0-1.3,0-1.3,0c-1.5,0-2.5,0.1-3.3,0.2h-5c-0.3,0.2-5.4,0.6-15.3,1.2h-10.7
				c-6,0.1-9.2,0.2-9.5,0.2c-4.2,0-7.4-0.1-9.5-0.2h-15.5c-1.7-0.2-3.4-0.4-5.1-0.4c-1.6,0-2.7,0.1-3.5,0.2h-7.6c0,0-0.1,0-0.1,0
				c-0.6-0.1-1.4-0.2-2.4-0.2c-3.2,0-4.8,0-4.8,0l-15.2,0.4l-21.2-0.4c-5,0-9.7,0.1-13.9,0.3c-4.2,0.2-8,0.3-11.3,0.3
				c-3,0-5,0-5.8,0c-2.4-0.1-4.8-0.2-7.2-0.6h-14.4c-0.9-0.2-2.3-0.2-4.1-0.2c-1.1,0-2.7,0.1-4.7,0.3c-2,0.2-3.8,0.3-5.4,0.3
				c-1.5,0-2.8,0.1-3.9,0.3c0.4,0,0.3,0-0.4,0c-0.1,0-0.3,0-0.5,0c0,0-0.1,0-0.1,0c-1,0-1.6,0-1.6,0h-15.2c-0.2,0-0.4,0.1-0.6,0.1
				c-1.3,0-3.4-0.1-6.3-0.1l-19.8,0.2c-1.3,0-2.9-0.1-4.7-0.4h-12l-0.3-0.1L75.6,2.6c-0.1,0-0.3,0-0.4,0c-0.3,0-1.3-0.1-2.8-0.2
				c-1.8-0.1-3-0.1-3.5-0.1c-2.2,0-3.7,0-4.2,0c-1.1,0-2.1,0.1-3.1,0.3L48.8,3.1h-19c-10.1,1.5-16.5,4.5-19.3,8.8
				c-2.8,4.3-4.4,7.6-4.9,9.8L5.3,23.4 M6.7,28.2c0-2.3,0.8-5.6,2.2-9.7c1.4-4.2,4.2-7.2,8.5-9.1c4.3-2,8.8-3.3,13.7-3.9
				c-0.2,0-0.5,0-1,0l7.6-0.1c1.6,0,3.2,0,4.9,0c3.3,0,5.9-0.1,7.6-0.2l35.4-0.2l0.7,0.2h11.8c2.1,0.3,3.9,0.4,5.3,0.4l19.4-0.2
				c4.4,0,7.4,0,9,0h-1.2h14c0.4,0,0.9,0,1.4,0c1.6,0,4.2-0.1,8-0.4c1.8-0.1,3.4-0.3,4.7-0.4c0.6-0.1,1.7-0.1,3.3-0.1
				c1.6,0,2.9,0.1,3.7,0.2h16c0.9,0.1,2.8,0.3,5.7,0.4c2.8,0.1,4.8,0.2,6.2,0.2c0.2,0,3.5-0.1,9.9-0.3c6.9-0.2,12-0.3,15.1-0.3
				L239.9,5c5.3,0,8.7-0.1,10-0.4h10c2.8,0.2,4.5,0.3,5.1,0.3c0.7,0,0.3,0-1-0.1h6.4c1.9-0.1,4.7-0.1,8.6,0c2.9,0.1,3.5,0.1,1.6,0.2
				h12.9c2.2,0.2,5.5,0.2,9.9,0.2c1.3,0,2.6,0,3.9,0c2.6,0,4.6-0.1,6-0.2h11.1c6.3-0.6,10.3-0.9,12.1-1.2h8.3
				c0.6-0.2,1.4-0.2,2.6-0.2l15.3,0l0.7,0c1.1,0,4.6,0.2,10.4,0.7c5.8,0.5,10.6,0.7,14.4,0.7c0.3,0,3,0,8.2-0.1h21.4
				c1.1-0.2,2.7-0.3,4.8-0.4h11.8c0.2-0.1,1.1-0.1,2.9-0.1c0.7-0.1,2.2-0.2,4.7-0.3c3.2-0.2,6.2-0.3,8.9-0.3c2.5,0,3.9,0,4.2,0
				c0.5,0,2.6,0.2,6.3,0.6L501,4.2c-0.4,0-0.7-0.1-0.9-0.1c-0.3-0.1,3.6,0,11.7,0.1h9.8l0.5,0.2l705.6-0.1c0.5-0.1,1-0.1,1.6-0.2
				c1.6,0,3,0.1,4.3,0.2c0.5,0,0.9,0.1,1.4,0.1c1.2,0.1,2.7,0.2,4.4,0.2c2.5,0,4.5-0.1,5.7-0.2h16.7c1.1,0.1,2.7,0.2,4.7,0.3
				c2.1,0.1,3.6,0.2,4.6,0.3h11.6c0.6,0.1,2.1,0.5,4.5,1.4c2.4,0.9,5,2.5,7.9,4.9c2.8,2.4,5.3,5.6,7.3,9.8c0,0,0,0.1,0,0.1v4.7
				c-0.1,1.1-0.3,2.6-0.6,4.7c-0.2,1.5-0.4,3.2-0.5,5.3l0.4,28.9c0.2,1.8,0.3,2.8,0.3,3.1l-0.3,12.6c-0.5,5.3-0.9,11.1-1.1,17.6
				l0.7,35.1c0.1,0.4,0.1,1.3,0.2,2.6c0.1,1.3,0.2,3,0.2,5.3l0.2,8.3c0.2,4.3,0.1,7.6-0.2,10l-0.1,4.2c-0.2,3.3-0.3,5.1-0.4,5.5
				l-0.1,6.5l0-0.7l0.3,17.2l1.1,9.5l-0.2,25.8c-0.3,1.2-0.5,3.2-0.5,6.2v-0.5c-0.1,3-0.2,4.6-0.2,4.8l0.7,8.6c0,1.1,0,2.5,0,4.1
				c0,2-0.2,4.5-0.6,7.5c-0.3,2.4-0.4,4.6-0.2,6.8l0.5,8.9c-0.2,2.2-0.4,3.5-0.4,3.8c0,1.2,0.2,3.2,0.5,6.2c0.2,2.5,0.4,3.9,0.5,4.2
				l0,14c0,0.3,0.1,2.7,0.2,7.4v1.8c0.1,0.2,0.1,0.7,0.1,1.5c0,0.8,0,1.3-0.1,1.4l0,5.5c0,0.4-0.2,2.1-0.5,5.2
				c-0.2,2.3-0.3,4.2-0.1,5.5v21.5c-0.2,7.3-0.4,11.2-0.5,12v2.2c-0.1,1.8-0.1,4.2-0.1,7.4c0.3,2.3,0.5,4.5,0.7,6.6
				c0.2,2.1,0.2,3.2,0.2,3.5c0,0.2,0,0.8,0,1.9l-0.1,12.8c-0.2,2.9-0.3,4.9-0.5,6.2l-0.4,3c-0.3,1.5-0.3,3.8,0,6.8
				c0.2,1.2,0.5,2.3,0.7,3.4c0.3,2.1,0.5,4,0.5,5.7l-0.9,11.2l-0.2,12c0,0.2,0,0.5,0,0.8c0,0.1,0,0.2,0,0.3c0,0.1,0,0.2,0,0.3
				c0,0.2,0.1,1.5,0.3,3.8c0.2,2.3,0.6,5.9,1.2,10.9l0.1,4.9c0.1,0.6,0.1,1.4,0.1,2.7c0,1.2-0.2,3.4-0.7,6.5l-0.1,7l-0.1,0.4l-0.1,9
				l-0.1,0.4l0,9.7c0.1,2,0.1,3.1,0.1,3.4c0,0.2,0,0.3,0,0.4c0,0-0.4,1.5-1.2,4.6c-0.8,3-1.7,5.8-2.9,8.3c-2.2,4.8-4.5,8-7,9.6
				c-3.1,1.2-6.9,2.1-11.4,2.6h-7.3c-0.9,0.1-2.3,0.1-4,0.1c-1.6-0.1-2.5-0.1-2.6-0.1h-13.9l-2.2,0.4h-13c-3.5,0-5.7,0.1-6.6,0.3
				c-1.2,0.2-3.2,0.3-6,0.3c-2.7,0-691,0-698.6-0.6c-7.6-0.5-12.1-0.8-13.6-0.8c-3.8,0-7.4,0.2-10.6,0.6h-14.1
				c-2.5,0.4-5.2,0.7-8.1,0.7h-4c-0.2,0-0.5,0.1-0.7,0.2c-0.1,0-0.2,0-0.3,0l-11.7,0.4c-2,0-8-0.2-18-0.7c-10-0.5-17-0.7-20.9-0.7
				l-18,0.4l-21.1-0.4c-0.7-0.1-1.8-0.2-3.2-0.2c-2.9,0.1-5,0.2-6.3,0.2h-3.3c-0.1,0-0.2,0-0.2,0c-0.8,0-1.6,0.2-2.4,0.4h-7.5
				c-0.4-0.1-0.9-0.1-1.5-0.1c-0.7,0.1-1.1,0.1-1.2,0.1c-4.9,0-8.5-0.1-10.9-0.2h-17.9l-0.6,0.2h-13.9c-0.7,0.1-1.8,0.2-3.4,0.2
				c-1.9,0-4.5-0.1-7.6-0.4c-3.1-0.2-6-0.4-8.5-0.4c-1.9,0-5.1,0.1-9.5,0.3c-4.4,0.2-7.6,0.3-9.8,0.3c-3.5-0.2-6-0.2-7.7-0.2
				c-0.2,0.1-0.4,0.1-0.6,0.2c-0.3,0-0.5,0-0.5,0c-2.5,0.2-4.5,0.2-5.8,0.3c-2.4,0.1-4.4,0-5.9-0.5h-18.1l-6.7-0.4
				c-3.8,0-7.7,0.1-11.7,0.4c-4,0.3-8.9,0.4-14.8,0.4c-6.1,0-11-0.2-14.6-0.5c-3.6-0.3-7.4-0.5-11.4-0.5c-1.9,0-4.4,0.3-7.6,1H161
				c0,0-0.1,0.1-0.1,0.1c-0.3,0-0.7-0.1-1-0.1c-2.3,0-3.5,0-3.6,0l-22.6,0.4l-17.1-0.4c-2.4,0-4.1,0.1-5.2,0.2h-7.6l-0.5-0.2h-18
				c-2.5-0.2-4.4-0.3-5.5-0.4H69.1c-1.2-0.1-3-0.2-5.3-0.2c-1.8,0-4.5,0.1-8.1,0.4H38.3c-1.4,0.2-2.4,0.3-3.1,0.4h-7.8
				c-1-0.5-2.2-1.1-3.8-1.5c-3.2-0.9-5.3-1.9-6.4-2.8c-3.6-3.1-6.2-6.2-7.9-9.4c-0.2-1.2-0.6-3.6-1.3-6.9l-0.8-27.4
				c-0.2-1-0.4-2.4-0.5-4.3l-0.1-4.8l-0.1-0.7l0-6.4c-0.1-0.6-0.1-1.5-0.1-2.7c0-2,0.1-4.2,0.3-6.8c0.2-3.1,0.5-6.2,0.8-9.5v-11.9
				c-0.1-0.4-0.1-1.4-0.2-2.9c0-1.3-0.1-2.2-0.3-2.8v-12.5c0.5-8.1,0.6-11.7,0.5-10.8c0.2-2,0.2-4.7,0.2-8.2c0-0.3-0.1-2.5-0.3-6.5
				L7,384.1l-0.1-0.4l-0.1-11.5l-0.1-0.5L6.6,364l-0.1-0.5v-5.1l0.1-0.5v-14.5c-0.1-0.2-0.2-1-0.3-2.2l-0.1-5.6
				c0.1-0.3,0.2-0.8,0.1-1.4l0-5.7l0.1-0.7l0-12.7c0.6-7.7,1-12.8,1.4-15.3l0-11.3l0.2-0.7v-6.9L8,280.3l-0.1-5l-0.1-0.4V262
				l0.1-0.5V249c0-1.6,0-2.9,0-4c0-0.1,0-0.2,0-0.3c0-0.1,0-0.3,0-0.4c0-0.2,0-0.3,0-0.5l-0.1-15.6c-0.1-0.3-0.2-1.7-0.3-4v-12.1
				c0-0.1,0.1-0.7,0.3-1.9l0.4-9v-22.1c-0.3-5.3-0.4-8.7-0.6-10.4l-0.1-3.1c0,0,0-0.1,0-0.1c0.1-0.9,0-1.4,0-1.7v-2
				c-0.5-3.3-0.7-6.9-0.8-10.8c0-4.4,0.3-8.5,0.9-12.2V135c0-0.9,0-1.8,0.1-2.7c0.2-0.9,0.2-2.5,0.2-4.8l0.1-21.1
				c0.1-2,0-5.3-0.1-9.8l-0.1-8.4c0-1.3-0.2-2.9-0.5-4.8L6.7,29.9c0,0.1,0,0.2,0,0.3L6.7,28.2z"/>
		</g>
	</g>
</g>
<g transform="matrix( 1, 0, 0, 1, 0,0) ">
	<g>
		<g id="Layer2_10_MEMBER_0_FILL">
			<path d="M27.6,24.1C27.6,24.1,27.6,24,27.6,24.1l0.4,4.3l-0.2,7.8c0.1,0.3,0.3,4.7,0.4,13.4c0.1,8.1,0.3,19.8,0.4,35.1
				c0.2,0.6,0.4,14.7,0.6,42.3c-0.2,0.4-0.5,3.9-0.7,10.4c-0.4,2.2-1,8.5-1.9,18.8c-0.8,9.4-1.3,14.2-1.5,14.5l-0.2,25
				c0.1,0,0.2,0.4,0.4,1.1l0.4,22.8c0.2,0.7,0.5,10.7,0.7,29.8c0.1,0.2,0.4,6.1,0.8,17.5l-0.1,31.7c0.3,0.7,0.7,4.5,1.1,11.5
				c0.3,6,0.7,12.5,0.9,19.6c-0.1,0.2-0.3,1.3-0.6,3.3s-0.4,3.1-0.6,3.3l-0.4,15.1c-0.2,0.4-0.4,6.2-0.6,17.3c0.1,0,0.2,0.2,0.4,0.7
				l0.4,118.6c-0.1,0.4-0.1,0.7-0.1,0.8c0,0.1,0.1,0.1,0.3,0.2c-0.4,5.5-0.7,13.9-0.9,25.1c-0.1,0.1-0.1,0.1-0.1,0.2
				c0.1,0.1,0.5,0.2,1.3,0.2c0.8,0,1.2-0.1,1.1-0.3c0-0.1-0.1-0.2-0.3-0.3c0.6-8.9,0.9-17.7,0.8-26.2c0,0-0.1,0-0.1,0l0.2-118.4
				c-0.2-0.3-0.3-3.2-0.4-8.8c-0.1-2.8-0.1-5.5-0.1-8.2c0.2-0.2,0.3-2.8,0.5-8c0.1-2.6,0.2-5.1,0.2-7.7c0.2-0.2,0.3-1.2,0.5-3.1
				c0.1-1,0.2-1.9,0.2-2.8c0.2-0.2,0.3-2.4,0.4-6.6c0.1-3.3,0.1-5.9,0.1-7.7c0-1-0.3-4.3-0.8-9.7c-0.5-5.6-0.9-8.6-1.1-8.9
				l-0.4-51.5c0-0.2,0.1-0.5,0.2-0.8c0-0.1-0.3-5.5-1-15.9v-7.8c-0.2-0.5-0.3-4.6-0.5-12.4c-0.1-3.9-0.2-7.7-0.2-11.5
				c-0.2-0.5-0.3-5.1-0.4-13.8c-0.1-4.4-0.1-8.7-0.1-12.9c0.4-0.4,1-5.4,1.8-15c0.7-8.8,1.1-14.7,1.2-17.9c0.2-0.2,0.3-1.9,0.5-5.4
				c0.1-1.7,0.2-3.4,0.2-5.1c0.2-0.2,0.3-7.2,0.4-21.1c0.1-7,0.1-13.9,0.1-20.8c-0.2-0.4-0.3-8.7-0.5-25c0-4.1-0.1-8-0.1-11.6
				c0-3.4,0-6.6,0-9.4c0-5.9-0.2-10.5-0.5-13.7c0-0.2,0-0.3,0-0.5c0.5,0,1,0.1,1.5,0.1c2,0.1,5.4,0.2,10.2,0.2
				c2.1,0,7.2-0.1,15.2-0.3c0.9,0,1.8-0.1,2.8-0.1c1.2,0,2.1,0.1,2.7,0.2h12c1.2-0.1,3.7-0.2,7.4-0.4c4.2-0.2,7.1-0.3,8.7-0.3
				c0.1,0,2.6,0,7.6,0c1,0,1.9-0.1,2.7-0.1c1.2,0,2.3,0,3.4,0c1.2,0,11,0.2,29.4,0.7c20.1,0.5,35.1,0.7,45,0.7h122
				c7.5-0.6,19-0.9,34.5-0.7l13.8,0.2c-2.7-0.1,3.2-0.3,17.7-0.5c16.3-0.3,28.9-0.3,37.9,0c6.7,0.3,16.1,0.6,28.3,0.9
				c12.2,0.3,22,0.2,29.5-0.1c7.4-0.4,28.1-0.7,62-1c33.9-0.3,738.3-0.6,746.5-0.4c8.3,0.2,12.3-0.5,11.8-2.1l-0.4-1.5
				c-5.5,1.7-15.2,2.1-29.3,1.3c-14-0.9-717.3-0.6-743.4,0.2c-26.1,0.8-40.1,1.4-42.2,1.6c-2,0.2-20,0-53.9-0.7
				c-33.9-0.7-59.5-1-77-0.8c-17.5,0.2-30,0.6-37.4,1.3H179.7c-6.7-0.5-17-0.7-30.8-0.7s-24.1-0.2-30.8-0.7h-12.7
				c-0.1-0.1-0.2-0.1-0.3-0.1c-0.2-0.1-0.7-0.1-1.4-0.1l-22.8,0.2c0.7,0.1,1.3,0.2,2,0.3c-1.6,0-3.2,0.1-4.8,0.1
				c-5.2,0.2-8.3,0.3-9.4,0.3l-8.2-0.2c-0.8,0-1.9,0-3.3,0c-0.5,0-1.1,0.1-1.7,0.1c-2,0.2-3.1,0.2-3.3,0.2C48.1,24,45,24,43,24.1
				H27.6z"/>
		</g>
	</g>
</g>
<g transform="matrix( 1, 0, 0, 1, 0,0) ">
	<g>
		<g id="Layer2_10_MEMBER_1_FILL">
			<path d="M1282.9,24.4c0,0.1,0.1,0.2,0.3,0.3c-0.7,11.1-1.4,19.6-1.8,25.5c0.3,0.2,0.7,0.5,1.1,0.7l-0.2,118.4
				c0.2,0.3,0.3,3.2,0.4,8.8c0.1,2.8,0.1,5.5,0.1,8.2c-0.2,0.2-0.3,2.8-0.5,8c-0.1,2.6-0.2,5.1-0.2,7.7c-0.2,0.2-0.3,1.2-0.5,3.1
				c-0.1,1-0.2,1.9-0.2,2.8c-0.2,0.2-0.3,2.4-0.4,6.6c-0.1,3.3-0.1,5.9-0.1,7.7c0,1,0.3,4.3,0.8,9.7c0.5,5.6,0.9,8.6,1.1,8.9
				l0.4,51.5c0,0.2-0.1,0.5-0.2,0.8c0,0.2,0.3,5.5,1,15.9v7.8c0.2,0.5,0.3,4.6,0.5,12.4c0.1,3.9,0.2,7.7,0.2,11.5
				c0.2,0.5,0.3,5.1,0.4,13.8c0.1,4.4,0.1,8.7,0.1,12.9c-0.4,0.4-1,5.4-1.8,15c-0.7,8.8-1.1,14.7-1.2,17.9c-0.2,0.2-0.3,1.9-0.5,5.4
				c-0.1,1.7-0.2,3.4-0.2,5.1c-0.2,0.2-0.3,7.2-0.4,21.1c-0.1,7-0.1,13.9-0.1,20.8c0.2,0.4,0.3,8.7,0.5,25c0,4.1,0.1,8,0.1,11.6
				c0,3.4,0,6.6,0,9.5c0,5.9,0.2,10.4,0.5,13.7c0,0.2,0,0.3,0,0.5c-0.5-0.1-1-0.1-1.5-0.1c-2-0.1-5.4-0.2-10.2-0.2
				c-2.1,0-7.2,0.1-15.2,0.3c-0.9,0-1.8,0-2.8,0c-1.2,0-2.1-0.1-2.7-0.2h-12c-1.2,0.1-3.7,0.2-7.4,0.4c-4.2,0.2-7.1,0.3-8.7,0.3
				c-0.1,0-2.6,0-7.6,0c-1,0-685.1,0.3-685.9,0.4c-1.2-0.1-2.3-0.1-3.4-0.1c-1.2,0-11-0.2-29.4-0.7c-20.1-0.5-35.1-0.7-45-0.7h-122
				c-7.5,0.7-19,0.9-34.6,0.7l-13.8-0.1c2.7,0.1-3.2,0.2-17.7,0.5c-16.3,0.2-28.9,0.2-37.9,0c-6.7-0.3-16.1-0.6-28.3-0.8
				c-12.2-0.3-22-0.3-29.4,0.1c-7.4,0.4-28.1,0.7-62.1,1c-33.9,0.3-55.6-0.2-65.1-1.3c-9.4-1.1-13.4,0-11.9,3.5v0.4
				c6.9-1,17.4-1,31.5-0.2c14.1,0.9,34.2,0.9,60.2,0c26.1-0.9,40.1-1.4,42.2-1.6c2.1-0.2,20,0,53.9,0.7c33.9,0.7,59.5,1,77,0.8
				c17.5-0.2,30-0.6,37.4-1.3h119.8c6.7,0.5,17,0.7,30.8,0.7s24.1,0.2,30.8,0.7h12.7c0.1,0.1,0.2,0.1,0.3,0.1
				c0.2,0.1,0.7,0.1,1.4,0.1l706-0.5c-0.6-0.1-1.3-0.2-2-0.3c1.6,0,3.2-0.1,4.8-0.1c5.2-0.2,8.3-0.3,9.4-0.3l8.2,0.2
				c0.8,0,1.9,0,3.3,0c0.5,0,1.1-0.1,1.7-0.1c2-0.2,3.1-0.2,3.3-0.2c4.2,0.1,7.3,0.1,9.4,0h15.3c0,0,0,0.1,0,0.1l-0.4-4.4l0.2-7.8
				c-0.1-0.2-0.3-4.7-0.4-13.4c-0.1-8.1-0.2-19.7-0.3-35.1c-0.2-0.6-0.4-14.7-0.6-42.3c0.2-0.4,0.5-3.9,0.7-10.4
				c0.4-2.2,1-8.5,1.9-18.8c0.8-9.4,1.3-14.2,1.5-14.5l0.2-25c-0.1,0-0.2-0.4-0.4-1.1l-0.4-22.8c-0.2-0.7-0.5-10.7-0.7-29.8
				c-0.1-0.2-0.4-6-0.9-17.5l0.1-31.8c-0.3-0.7-0.7-4.5-1.1-11.5c-0.3-6-0.7-12.5-0.9-19.6c0.1-0.2,0.3-1.3,0.6-3.3
				c0.2-2,0.4-3.1,0.6-3.3l0.4-15.1c0.2-0.4,0.4-6.2,0.6-17.3c-0.1,0-0.2-0.2-0.4-0.7l-0.4-118.6c0.1-0.4,0.1-0.7,0.1-0.8
				c0-0.1-0.1-0.2-0.3-0.2c0.4-5.5,0.7-13.9,0.9-25.1c0.1-0.1,0.1-0.1,0.1-0.2c-0.1-0.1-0.5-0.2-1.3-0.2S1282.9,24.2,1282.9,24.4z"
				/>
		</g>
	</g>
</g>
<path class="st1" d="M1285-187.5l-2.5-56.3L1282-314c0,0-2-20.4-2-28.4s1.5-18.4,1.5-18.4l-0.5-101.6v-67.2l-768.8,1.7l-102.1,0.5
	l-161.8,1l-112-1.5l-39.8-1l-30.9,1l-38.3,1l1,70.7v30.4l-4,44.3l0.5,42.8l2,63.7L26.3-254c0,0,2.5,17.9,2.5,21.4
	c0,3.5-2.5,18.4-2.5,18.4l0.5,46.8l0.5,65.2v63.2l90.1,1.5l61.7-2l63.2,1h63.7l91.6-1l106,1.5l749.9-0.2l28.4-1l-2-63.7l1.5-46.8
	L1285-187.5z"/>
</svg>
