<svg xmlns="http://www.w3.org/2000/svg" viewBox="0 0 74.4 100.1" enable-background="new 0 0 74.4 100.1"><style type="text/css">.st0{fill:#EBD197;} .st1{fill:#D25486;} .st2{fill:#E697B6;}</style><ellipse transform="matrix(.925 .381 -.381 .925 36.506 -1.254)" class="st0" cx="21.4" cy="91.6" rx="3.2" ry="7.5"/><ellipse transform="matrix(.796 -.606 .606 .796 -41.506 54.095)" class="st0" cx="59.4" cy="88.6" rx="3.2" ry="7.5"/><path class="st1" d="M19.7 23c5.1 2 5.6 6.4 5.4 7.8-.3 2.6-10.9 8-13.8 9.8-4.3 2.8-6.8.4-8.9-2.9s-.3-8.2 4-11 9.7-5.1 13.3-3.7zM73.1 36.6c.8 5.5-2.9 8.3-4.2 8.8-2.4 1.1-12.7-5.7-15.8-7.3-4.7-2.4-3.8-5.8-2-9.4 1.8-3.5 7.1-4.4 11.8-2s9.6 6 10.2 9.9z"/><ellipse class="st2" cx="38.8" cy="59.6" rx="32" ry="29.8"/><path d="M31.6 28.5c-10.8 3.2-20.3 8.6-24.3 19.7-4.3 11.6-1.7 24.6 7.3 33.2 9 8.6 23.1 10.1 34.8 7.7 13.1-2.7 21.2-15.1 22-27.9.7-10.5-4.9-20.7-13-27.1-7.5-5.9-17.3-6.3-26.4-5.7-1.4.1-1.4 2.3 0 2.2 6.3-.4 12.6-.4 18.6 1.6 6 2.1 10.4 6.7 13.9 11.8 8.5 12.5 5.2 31.8-7.9 39.9-5.9 3.6-13.4 4-20.1 3.6-7-.4-13.6-2.3-19.1-6.9-10.8-8.5-12.6-24.2-6.1-36 4.3-7.8 12.7-11.5 20.9-13.9 1.4-.5.8-2.6-.6-2.2zM21.3 84.9c-1.7 3.2-8.1 10.6-4.6 14.3 1.9 2 5.2.4 6.5-1.5 1.9-2.8 2-7 4.3-9.5 1-1.1-.6-2.7-1.6-1.6-1.9 2.1-3.6 12.9-7.6 11-2.2-1 4.2-10.2 4.9-11.6.7-1.3-1.2-2.4-1.9-1.1zM59.2 85.4c1.2 1.2 7.2 6.1 4.5 7.7-1.7.9-3.7-.8-4.9-1.8-1.1-1-3.2-2.8-3.3-4.4-.1-1.4-2.3-1.4-2.2 0 .2 2.5 2.6 4.7 4.3 6.2 1.9 1.6 4.4 3.1 6.9 2 5.9-2.6-1.3-9-3.6-11.4-1.2-.9-2.7.7-1.7 1.7zM39.3 57.9c-1.6-6.1-1.8-12.4-2.3-18.6-.1-1.4-2.4-1.4-2.2 0 .5 6.5.7 12.9 2.3 19.2.4 1.4 2.5.8 2.2-.6zM37.6 57.2c-5.3 3.3-10.9 6-16.6 8.6-1.3.6-.2 2.5 1.1 1.9 5.7-2.5 11.3-5.3 16.6-8.6 1.3-.7.2-2.6-1.1-1.9zM10.7 62.2h4.6c1.4 0 1.4-2.2 0-2.2h-4.6c-1.5 0-1.5 2.2 0 2.2zM60.8 59.3c1.6.5 3.2.6 4.9.6 1.4 0 1.4-2.2 0-2.2-1.5 0-2.9-.1-4.3-.5-1.4-.5-1.9 1.7-.6 2.1zM37.2 78.3c-.5 1-1 1.9-1.1 3-.1 1.4.2 2.8.4 4.2.2 1.4 2.4.8 2.2-.6-.2-1.1-.4-2.3-.3-3.4 0-.7.5-1.4.8-2 .6-1.4-1.3-2.5-2-1.2zM37.7 33c0 1.5.5 3 .6 4.6 0 1.4 2.3 1.4 2.2 0 0-1.6-.5-3-.6-4.6 0-1.4-2.3-1.5-2.2 0zM26.4 31.6c1.8-4.5-2-8.3-6-9.8-5.8-2.2-10.7.5-15.3 4.1-4.2 3.2-6.4 8-3.6 13.1 2.1 3.8 7.2 5.4 11 3.5 1.3-.6.2-2.6-1.1-1.9-3.3 1.6-7.1-.5-8.5-3.7-1.9-4.5 1.4-7.5 4.5-10 3.2-2.6 6.8-4.5 11.1-3.5 3.3.8 7.2 3.8 5.7 7.5-.5 1.4 1.6 2 2.2.7zM51.9 31c-1.5-7.6 9.7-4.3 13.4-2.5 7 3.3 10.4 13.5 1.3 16.7-1.4.5-.8 2.6.6 2.2 4.6-1.6 7.7-5.2 7.3-10.2-.4-4.7-4-8.5-8.1-10.6-5.5-2.8-18.7-5.1-16.6 5.1.2 1.3 2.4.7 2.1-.7zM7.8 25.8c-3.2-16.7 14.8-23.5 28.4-23.7 12.6-.1 31.6 5.9 27.9 22-.2.8-.4 1.5-.7 2.2-.5 1.4 1.7 2 2.2.6 10.3-30.5-46.8-35.6-58.5-13.5-2.1 4-2.4 8.6-1.5 13 .3 1.4 2.4.8 2.2-.6zM35.3 26.9c-2.1-1.5-3.9-3.9-5-6.2-.5-1.1-.8-2.3.1-3.3 0 0 .6.8.8 1.2 1.2 2 1.9 4.3 2.6 6.4.5 1.4.8 3.1 1.8 4.3.9 1.1 2.5-.5 1.6-1.6-.4-.4-.7-1.9-1-2.6-.5-1.5-1-2.9-1.6-4.4-.7-1.7-1.9-5.5-4.2-5.5-2.7 0-3.1 3.6-2.5 5.5 1 3.1 3.6 6.3 6.2 8.1 1.3.8 2.4-1.1 1.2-1.9zM3.6 30.6c-1.2 4.8 1.8 8.1 5.8 10.3.3.1.4-.2.2-.4-1.9-1.5-3.6-3-4.9-5.1-.4-.7-.6-1.4-.8-2.1 0-.8-.1-1.6-.5-2.4-.1.8.1 1.5.2 2.2.7 3.1 3.9 5.3 6.3 6.9.2.1.4-.2.3-.3-1.3-1.1-2.5-2.3-3.6-3.6-1.1-1.3-1.9-2.8-2.1-4.5.4-1.2.4-1.7 0-1.2l.1.9c.7 3.4 3 5.6 5.1 8.1.1.2.4 0 .4-.2-.8-2-2.3-3.7-3.4-5.6-1-1.6-1.6-3.4-.8-5.3.5-1.1.1 1.4.1 1.4-.1.8-.1 1.5-.1 2.3 0 3 4 8.6 7.5 7.2.3-.1.1-.5-.1-.4-2.3.9-4.7-1.8-5.8-3.6-1.6-2.8-.9-5-.8-7.9 0-.2-.2-.3-.4-.2-2.3 2.6-1 5.4.6 7.9l1.4 2.1c.3.4 1.8 2.3.6.8-2.2-2.6-3.9-4.8-4.1-8.4 0-.2-.3-.3-.4-.1-1.1 3.2.8 5.8 2.9 8.1.7.7 1.4 1.4 2.1 2 .4-.3.2-.5-.4-.7-.6-.4-1.2-.9-1.7-1.3-2.3-1.9-3.7-4.3-3.3-7.4 0-.2-.4-.3-.4-.1-.7 3.5.8 6.3 3.3 8.7.6.6 1.2 1.1 1.9 1.6.3-.3.2-.5-.5-.6-.6-.4-1.2-.8-1.8-1.3-2.4-2-3.2-4.7-2.5-7.7.1-.2-.3-.3-.4-.1zM54.7 29.4c.6-.8 1.2-1.6 2-2.2.2-.2-.1-.5-.3-.3-2.1 1.2-5.1 2.5-4.1 5.4.1.2.3.2.4 0 .5-1.4.7-2.9 1.4-4.2.2-.4 2-2.6.6-1.2-.4.4-.7.8-1 1.2-.9 1.3-2 3-.4 4.2.1.1.3.1.3 0l1.2-2.2c.2-.4.4-.7.7-1.1l.8-.9c1-.3 1.2-.6.8-1-1.4 1.2-2.2 2.7-2.1 4.6 0 .2.3.3.4.1l1.5-2.7c.4-.6.8-1.2 1.3-1.7.5-.6 2.5-1.5 1.3-.4-1.6 1.6-3.5 2.4-3.9 4.9 0 .2.2.4.4.2.9-1 1.8-1.9 3-2.7.8-.5 1.7-.8 2.6-1.2-.5.2-1.1.5-1.6.8-1.4.8-2.5 2-2.9 3.7 0 .2.2.4.4.2 2-2 4.3-3.3 7.1-4 .3-.1.2-.5-.1-.4-2.1.5-4 1.3-5.7 2.7l-1.1.9c-.7.6 1.4-1.9 1.1-1.6.9-1 2.3-1.6 3.5-2.1.2-.1.1-.4-.1-.4-2.5.2-4.4 1.5-6 3.3-.3.3 1-1.8 1-1.7.4-.5 1-.9 1.5-1.4.9-.7 1.7-1.3 2.3-2.2.1-.1 0-.3-.2-.3-1.5.1-2.7 1-3.6 2.2-.6.9-1.1 1.8-1.6 2.8-.9 1.7.8-2.2.6-1.7.4-.8 1.2-1.5 1.9-2.1.2-.2-.1-.5-.3-.3-1.8 1-2.8 2.6-3.8 4.4-.2.8-.5.8-1-.2-.1-.7.5-1.5.9-2.1.6-.9 1.4-1.7 2.1-2.4.2-.2-.1-.5-.3-.3-1.9 1.3-2.3 3-2.9 5.1-.1.2-.1.4-.2.5-.1-.9.1-1.6.8-2.2.5-.6 1.2-1 1.8-1.4l.5-.3c.6-.2.7-.3.1-.4-.6.5-1 1.2-1.4 1.9-.2.2.2.4.3.2zM18.6 39.1c-3.1 2.8-6.3 5.5-7.8 9.6-.1.3.3.4.4.1 1.5-3.9 4.6-6.6 7.7-9.4.2-.1-.1-.4-.3-.3zM23.8 37.1c-3.2 2.4-5.8 5.3-8.4 8.3-1.5 1.8-3.8 4.2-3.5 6.7 0 .3.5.3.4 0-.3-2.6 2.5-5.4 4-7.2 2.3-2.8 4.8-5.3 7.6-7.5.3-.1.1-.5-.1-.3zM24.6 37.1c-5.9 3.9-10.7 10.2-12.4 17-.1.3.3.4.4.1 1.7-6.8 6.4-13 12.2-16.8.3-.1.1-.4-.2-.3zM26.6 35.4c-7.3 3.2-16.7 10.2-16.7 19.1 0 .3.4.3.4 0 0-8.7 9.3-15.6 16.5-18.7.3-.2.1-.5-.2-.4zM25.5 34.5c-7.3 3.9-13.9 9.5-15.6 17.9-.1.3.4.4.4.1 1.6-8.3 8.2-13.8 15.4-17.6.2-.1 0-.5-.2-.4zM13.7 67.8c2.2 5.1 5.3 9.2 10.1 12.1.2.1.5-.2.2-.4-4.7-2.9-7.8-6.9-10-12-.1-.2-.5 0-.3.3zM13.3 68.9c2 5.2 5.7 12 11.3 13.9.3.1.4-.3.1-.4-5.5-1.9-9-8.5-11-13.6 0-.3-.5-.2-.4.1zM11.7 68.4c2 3.3 4.5 6.1 7.1 8.8 2 2.1 3.6 4.7 6.9 4.7.3 0 .3-.4 0-.4-3.2 0-5-3-7-5.1-2.4-2.6-4.7-5.2-6.6-8.3-.2-.2-.6 0-.4.3zM10.8 67.2c2 6.5 7 12.9 13.6 15.1.3.1.4-.3.1-.4-6.5-2.2-11.4-8.5-13.3-14.9-.1-.2-.5-.1-.4.2zM11.6 69.7c2.4 5.8 6.1 11.6 12.5 13.3.3.1.4-.3.1-.4-6.2-1.6-9.8-7.4-12.2-13-.1-.2-.5-.1-.4.1zM21.1 88.8c-1 1.8-1.9 3.6-2.8 5.5-.4.9-.9 1.8-1.4 2.7.2.3.4.2.3-.5.3-.9.7-1.8 1.1-2.6.4-.9.9-1.8 1.4-2.6.2-.4.5-.8.7-1.3.5-.9.2-.9-.1 0l-2.2 6.3c-.1.3.3.4.4.1.6-1.6 1.2-3.2 1.9-4.8.3-.7.6-1.4 1-2 .2-.4.4-.9.7-1.3.5-.5.5-.7.1-.7-1.1 3.2-2.9 6-3.8 9.3-.1.2.3.4.4.2l3.7-8c.1-.2-.2-.5-.4-.2-.6.9-1.1 1.9-1.5 2.9-.1.3.3.4.4.1.3-.8.7-1.5 1.1-2.3-.4-.3-.7-.1-.7.5l-.6 1.3c-.7 1.6-1.3 3.2-2.1 4.7.1 0 .2.1.2.1.1-.5.3-1 .5-1.4.4-1.2 1-2.3 1.5-3.5.7-1.4 1.3-2.9 1.8-4.4.1-.2-.3-.4-.4-.2-1.4 2.4-2.5 4.9-3.5 7.5l-.3.7c-.5.5-.4.8.1.8l.7-2.1c.6-1.6 1.3-3.2 1.7-4.9.1-.2-.3-.4-.4-.2-1.6 3-3.6 5.9-4.3 9.2-.1.2.3.4.4.2l4.6-8.9c.3-.3-.1-.5-.2-.2zM57.3 88.7c1.9 1.6 3.7 3.3 5.8 4.6.2.2.4-.2.2-.4-2.6-1.8-4.8-3.9-6.8-6.3l-.3.3c2.1 1.8 4 3.7 6.3 5.2.2.2.4-.2.2-.4-2.1-1.5-3.7-3.5-5.4-5.4-.2-.2-.5.1-.3.3 1.4 2.5 3.5 4.3 6.1 5.5.2.1.5-.3.2-.4-2.5-1.2-4.5-2.9-5.9-5.4l-.3.3c1.7 2 3.4 3.9 5.5 5.5.1-.1.1-.2.2-.4-2.3-1.5-4.2-3.4-6.3-5.1-.2-.2-.5.1-.3.3 2.1 2.4 4.3 4.6 6.9 6.3.1-.1.1-.2.2-.4-2.1-1.3-3.8-3-5.7-4.6-.3.1-.6.4-.3.5z"/></svg>