<?xml version="1.0" encoding="utf-8"?>
<!-- Generator: Adobe Illustrator 19.1.0, SVG Export Plug-In . SVG Version: 6.00 Build 0)  -->
<svg version="1.1" id="Objects" xmlns="http://www.w3.org/2000/svg" xmlns:xlink="http://www.w3.org/1999/xlink" x="0px" y="0px"
	 viewBox="0 0 474.2 65.9" style="enable-background:new 0 0 474.2 65.9;" xml:space="preserve">
<style type="text/css">
	.st0{fill:#E798B7;}
</style>
<path class="st0" d="M466.7,13.2c0.3-0.2,0.7-0.2,1.4-0.7c2.8-1.8,7.1-4.5,5.9-8.6c-0.8-2.6-3.6-3.2-6-2.2c-1.9,0.8-3.3,2.3-4.1,4
	c-1.3-3.7-3.4-7.7-6-4.5c-1.3,1.6-0.2,4.9,0.4,6.5c0.6,1.6,1.4,2.9,2.4,4.1c-57.4,0.6-114.8,1.5-172.2,1.9
	c-58.6,0.4-117.3,0.6-175.9,0.6c-16.6,0-33.3,0-49.9-0.1c-16.4,0-33-0.6-49.4,0.1c-0.1-0.5-0.1-1-0.2-1.5c-0.5-2.4-1.3-7.2-4.1-8.1
	C6.8,4.1,5.3,6.1,5,8.1c-0.4,2.3,0.4,4.5,1.7,6.4c-2.3,0-4.8,0.4-6.1,1.9c-1.2,1.5-0.5,3.3,0.9,4.3c3.4,2.4,7.6,0.8,9.7-2.3
	c0,1.6-0.2,3.3-0.5,4.9c-0.4,0.8-0.5,1.6-0.5,2.6c-0.1,1.3,2,1.6,2.3,0.3c0.2-0.7,0.3-1.5,0.5-2.2c0.2-0.4,0.4-0.9,0.7-1.2
	c0.4-0.6,0.1-1.1-0.4-1.4c0.1-0.8,0.1-1.7,0.2-2.5c1.3,2.8,2.7,5.6,4.5,7.8c0.5,0.6,1.6,0,1.3-0.8c-1.1-3.3-3.2-6.5-5.1-9.6
	c4.3,0.2,8.7,0.3,13,0.4c-1,2.4-1.8,5.1-2.4,8c-0.2,0-0.4-0.1-0.6-0.1c-0.5-0.1-0.9,0.6-0.4,0.8c0.3,0.1,0.5,0.2,0.8,0.3
	C21.6,41.2,24.3,61,42.3,62.7c8.7,0.8,16.8-4.3,20.3-12.2c1.4-3.1,2.2-6.3,2.6-9.6c0.7-0.2,0.9-1.4,0.2-1.8
	c0.7-7.2-0.1-14.7-0.1-21.8c0-0.2,0-0.4-0.1-0.5c4.7,0,9.5,0,14.2,0c-1.4,14.9-3.9,45.1,18,45.7c8.1,0.2,15.2-5.5,19-12.3
	c5.4-9.7,4.4-21.5,3.4-32.1c-0.1-0.8-0.7-1.2-1.3-1.2c4.8,0,9.5,0,14.3,0c-0.7,3.7-1.3,7.5-1.7,11.3c-0.4,0.1-0.5,0.7-0.1,1
	c-0.6,7.1-0.2,14.1,2.4,20.8c3.1,7.9,9.9,15.7,18.9,16c9,0.3,16.6-6.6,20.1-14.4c4.8-10.6,4.6-23.4,5.6-34.7c0,0,0,0,0,0
	c3.6,0,7.2,0,10.7,0c0.3,0,0.6,0,0.8,0c-1.2,10.4-1.6,21.7,1.5,31.8c2.4,7.8,10.5,13.3,18.7,14c8.2,0.7,14.2-6.2,16.7-13.3
	c3.5-10,4.2-22.1,3.8-32.7c4.6,0,9.3-0.1,13.9-0.1c-0.4,6.3-0.4,12.8-0.2,19c0.1,2.9,0.3,5.7,0.9,8.4c-0.1-0.1-0.2-0.1-0.3-0.2
	c-0.4-0.3-0.8,0.4-0.4,0.6c0.3,0.2,0.6,0.4,0.9,0.6c0.4,1.7,1,3.5,1.7,5.1c4,8.8,12.2,15.4,22.1,15.8c9.6,0.4,17.5-5.2,21.1-13.9
	c4.8-11.4,2.4-24,4.8-35.8c3.3,0,6.6-0.1,9.9-0.1c0.3,17.7,0.8,46.8,24.4,48.1c8.1,0.5,16.2-3.7,19.3-11.4c2.1-5.3,2.1-11.4,2.6-17
	c0.6-6.7,1.3-13.4,1.9-20.1c3.9,0,7.8-0.1,11.7-0.1c0.2,0,0.3,0,0.5,0c-0.6,2.6-0.9,5.3-1.2,8c-0.1,0-0.1,0-0.2-0.1
	c-0.5-0.2-0.7,0.6-0.2,0.7c0.1,0,0.2,0.1,0.3,0.1c-0.3,3.1-0.5,6.1-0.6,9.2c-0.2,5.3-0.4,10.7,1.3,15.8c2.7,7.8,10.6,13.1,18.8,13.3
	c4.2,0.1,8-1.3,11.3-3.5c0.3,0,0.6-0.2,0.7-0.5c3.4-2.5,6.2-6,8.1-9.8c4-8,4.2-17,3.3-25.7c0.1,0,0.1-0.1,0.2-0.1
	c0.3-0.3,0.4-0.8,0.1-1.1c-0.1-0.2-0.3-0.4-0.5-0.6c-0.2-2-0.5-4-0.7-6c3.6,0,7.1-0.1,10.7-0.1c-0.1,0.2-0.1,0.4-0.2,0.7
	c-1.1,2.9-0.6,7-0.8,10c-0.3,5.8-0.4,11.8,0.9,17.5c2,8.4,7.6,16.6,16.4,18.7c8.3,2,15.9-2,19.2-9.7c2.3-5.3,2.4-11.1,2.5-16.7
	c0.1-6.7,0.2-13.5,0.2-20.2c0-0.3-0.1-0.5-0.2-0.7c2.8,0,5.7-0.1,8.5-0.1c-1.6,2.5-1.6,7.4-1.9,9.2c-0.2,1.2,1.6,2.3,2.2,0.9
	c1.1-2.2,1.9-4.5,2.2-7c0-0.2,0-0.6,0-1c1.8,0.5,4,4.9,4.7,5.9c0.9,1.3,3.1,0,2.2-1.3C471.4,19.4,469.2,14.5,466.7,13.2z M6,19.5
	c-0.6,0.2-1.3,0.1-1.9-0.2c-1.3,0-1.5-0.4-0.4-1.3c1-1.8,3.7-1.4,5.5-1.1c1,0.2,2.1-1.1,1.1-1.9c-0.9-0.7-1.7-1.5-2.2-2.5
	c-1.4-1.8-0.9-2.9,1.6-3.1c0.6,0.2,1.1,3.6,1.1,4.1c0.1,0.6,0.2,1.2,0.3,1.8C10.3,17.5,8.4,19.3,6,19.5z M44.2,60.3
	c-8.8,0.1-15.7-6.6-17.5-14.9c0,0,0-0.1,0-0.1c0.1,0.1,0.2,0.1,0.3,0.2c2.7,1.5,5.9,2.5,8.7,3.7c6.2,2.6,12.4,5.5,18.8,7.6
	C51.7,58.9,48.3,60.2,44.2,60.3z M55.7,55.7c-4.3-2.1-8.8-3.7-13.3-5.5c-2.4-0.9-4.7-1.9-7.1-2.8c-2.1-0.8-7-2-8.9-3.8
	c-0.4-2.6-0.6-5.3-0.5-7.9c5,3,10.5,5.4,15.9,7.6c5.8,2.4,12.2,5.1,18.4,6.1C59.1,51.8,57.6,53.9,55.7,55.7z M62.1,44
	c-0.3,1.4-0.7,2.7-1.2,4c-5.5-2.3-11.5-3.6-17.1-5.8c-6.1-2.3-11.8-5.1-17.8-7.7c0.1-2.7,0.4-5.3,0.8-8c11.8,4.8,24.1,8.8,36,13.5
	C62.6,41.4,62.4,42.7,62.1,44z M62.9,38c-11.6-4.8-23.7-9.8-36-12.8c0.5-2.8,1-5.7,1.6-8.5c0.3,0,0.6,0,1,0
	c10.8,4.1,22.1,8.1,33.3,11C62.9,31.2,63,34.6,62.9,38z M62.9,17.3c-0.3,2.8-0.3,5.6-0.2,8.5c-9.2-3.4-18.9-6.4-28.4-9
	c7.5,0,15.1,0,22.6,0c2.1,0,4.2,0,6.3,0C63,16.9,63,17.1,62.9,17.3z M116,45.4c-2.8,7.6-9.8,14.8-18.5,14.6
	C76.9,59.6,81.7,30.3,81,16.8c6.6,0,13.2,0,19.8,0c5.9,0,11.8,0,17.7,0c-0.6,0-1.2,0.4-1.1,1.2C118.2,27,119.2,36.7,116,45.4z
	 M153,63.4c-7.2,0-12.6-5.3-15.9-11.5c7.7,3.4,15.6,7.3,23.6,9.5C158.4,62.7,155.8,63.4,153,63.4z M162.1,60.5
	C162.1,60.5,162.1,60.5,162.1,60.5c-7.9-4.4-17.3-7.2-25.8-10.3c-0.7-1.5-1.3-3.1-1.7-4.7c-0.4-1.3-0.6-2.6-0.8-3.9
	c11.6,3.8,23.1,8.2,34.8,11.8C166.8,56.2,164.6,58.7,162.1,60.5z M172.1,45.2c-0.6,2.3-1.6,4.7-2.8,6.9c0,0,0,0,0,0
	c-11.3-5-23.7-8.5-35.7-11.5c-0.5-3.5-0.5-7.1-0.3-10.6c6.5,2.3,13.1,4.1,19.5,6.4c6.6,2.3,13,5.4,19.7,7.5
	C172.3,44.2,172.2,44.7,172.1,45.2z M172.8,41.9c-5.9-3-12.6-4.9-18.8-7.1c-6.8-2.3-13.7-4.7-20.7-6.3c0.2-3.6,0.7-7.2,1.1-10.8
	c6.6,2.2,13.2,4.2,19.8,6.4c6.6,2.2,13.3,5.5,20.1,7C174.1,34.7,173.6,38.3,172.8,41.9z M174.6,29.4c-5.9-3-12.8-4.7-19.1-6.7
	c-6.6-2.1-13.3-4.2-20-5.9c8.5,0,17.1,0,25.6,0c2.4,0.7,4.8,1.4,7.2,2.3c2.3,0.9,4.5,2.1,6.8,3C174.9,24.5,174.8,26.9,174.6,29.4z
	 M175.5,16.8c-0.1,1.1-0.2,2.2-0.3,3.3c-2.7-1.5-5.9-2.6-9.2-3.4C169.2,16.7,172.4,16.7,175.5,16.8
	C175.5,16.7,175.5,16.7,175.5,16.8z M225.6,42.5c-1.6,8.3-6.8,19.7-17.3,17.1c-3.6-0.9-7.9-2.8-10.7-5.2c-3.4-2.9-4.5-7.5-5.3-11.8
	c-1.7-8.6-1.1-17.3-1.1-26c12.2,0,24.4-0.1,36.7-0.1C227.5,25.3,227.2,33.9,225.6,42.5z M269.6,63.5c-10.1-0.1-18-7.4-21.4-16.5
	c9.3,5.9,19,11,29.1,15.3C275.1,63.1,272.6,63.5,269.6,63.5z M289.8,42.8c-0.4-0.2-0.7-0.4-1.1-0.5c-0.2-0.1-0.4-0.1-0.5-0.1
	c-13.6-5.8-27.2-11.8-41.1-16.7c-0.7-0.2-1,0.7-0.5,1.1c0.4,0.3,0.7,0.6,1.1,0.8c0.2,0.2,0.4,0.1,0.5-0.1
	c13.6,6.2,27.5,11.6,41.2,17.4c-1.4,7.2-4.2,13.5-10.2,16.6c-0.3-0.3-0.6-0.6-1-0.9c-0.3-0.3-0.7-0.1-0.9,0.2
	c-10.2-4.5-20.1-9.5-29.7-15.1c-0.8-2.7-1.2-5.4-1.4-8.2c5.7,3.8,12.8,6.3,19.1,8.9c6.2,2.6,13.3,6.4,20.1,7.2
	c0.6,0.1,0.7-0.8,0.3-1.1c-5.7-3.4-13-4.9-19.2-7.4c-6.7-2.7-13.3-6.4-20.2-8.5c0,0-0.1,0-0.1,0c-0.4-6.7,0.3-13.6-0.5-20.2
	c0.7,0,1.5,0,2.2,0c-0.1,0.2-0.1,0.6,0.1,1c0.2,0.3,0.7,0.1,0.6-0.3c-0.1-0.2,5,1.6,5.5,1.7c1.6,0.6,3.1,1.2,4.7,1.8
	c3.7,1.4,7.3,2.8,11,4.2c6.6,2.5,13.3,5,19.9,7.5c-0.2,0.5,0.3,1.2,0.9,1.1c0,0,0.1,0,0.1,0C290.6,36.6,290.3,39.8,289.8,42.8z
	 M291,30.7c-10-3.7-20-7.3-30.1-10.9c-2.6-0.9-5.2-1.9-7.9-2.8c-0.3-0.1-0.8-0.3-1.3-0.5c6.5,0,12.9-0.1,19.4-0.1
	c-0.1,0.1-0.3,0.2-0.4,0.3c-0.2,0.1-0.2,0.4-0.1,0.6c0.2,0.4,0.3,0.4,0.7,0.6c0.2,0.1,0.3,0,0.4-0.2c0-0.1,0.1-0.1,0.1-0.2
	c0.1-0.1,0.1-0.2,0-0.3c2,0.6,8.7,3.4,9.5,3.7c3.4,1.3,6.6,3,10,4.2C291.2,26.8,291.1,28.7,291,30.7z M291.5,23
	c-3.9-2.1-8.3-3.6-12.5-5c-1.1-0.4-3-1.3-4.7-1.8c6,0,12-0.1,18-0.1C291.9,18.2,291.7,20.6,291.5,23z M347.6,44.9
	c-0.7,5.4-2.3,10.7-7.1,13.8c-3.3,2.2-7.5,3.2-11.4,2.9c-22.2-1.3-21.1-29.5-22.7-45.7c14.7-0.1,29.4-0.3,44-0.4
	C349.4,25.4,348.8,35.2,347.6,44.9z M403.3,15.1c0.2,1.4,0.4,2.9,0.6,4.4c-1.3-0.5-2.6-0.9-3.5-1.2c-3.5-1.3-7.2-2.3-10.9-3
	C394.1,15.2,398.7,15.1,403.3,15.1z M387.1,15.3c-0.2,0.3-0.1,0.7,0.4,0.8c3.1,0.7,6.2,1.5,9.3,2.6c1.7,0.6,3.3,1.2,4.9,1.9
	c0.8,0.4,1.7,0.7,2.5,1.1c0.2,2.2,0.4,4.4,0.5,6.6c-5.4-2.8-11.4-4.7-17-6.8c-5.3-2.1-10.6-4.1-15.9-6
	C376.8,15.4,381.9,15.3,387.1,15.3z M383.9,60c-8.1,0.1-14.8-5.1-17.3-12.5c3.9,2,7.9,3.8,12,5.5c4.1,1.7,8.4,3.7,12.7,5
	C389,59.2,386.5,59.9,383.9,60z M393.3,56.8c-3.9-1.7-8.1-2.8-12.1-4.4c-5-2-10-4.1-15-6.2c-0.2-0.6-0.3-1.2-0.4-1.8
	c-0.5-2.7-0.6-5.4-0.6-8.1c11.4,4.8,22.8,9.6,34.3,13.9C397.8,52.8,395.8,55.1,393.3,56.8z M402.7,43.7c-0.6,1.7-1.3,3.4-2.3,5
	l-1-0.5c-0.1-0.1-0.3-0.1-0.4-0.1c-11.2-4.6-22.5-8.7-33.8-13c0.1-3.4,0.3-6.8,0.6-10.2c9.2,3.6,18.3,7.5,27.3,11.7
	c0.9,0.4,6.8,4.1,10.3,4.7C403.2,42.2,403,43,402.7,43.7z M404,38.4c-0.5,0.1-1,0.3-1.2,0.8c-4-2.7-16.2-7.3-17.9-8
	c-6.3-2.6-12.6-4.9-19-7.1c0.2-2.9,0.5-5.8,0.6-8.6c0.6,0,1.3,0,1.9,0c6,2.4,12,4.8,18,7.2c6,2.5,12.1,5.6,18.3,7.5
	C404.7,32.9,404.5,35.7,404,38.4z M451.9,42.6c-0.9,9.6-6.6,19.1-17.6,16.9c-8.3-1.7-13.4-9.3-15.3-17.1c-1.1-4.7-1.2-9.6-1.1-14.4
	c0-2.2,0.1-4.3,0.2-6.5c0-1.1,0.1-2.2,0.1-3.4c0-0.2-0.3-1.7-0.5-2.5c0.1,0,0.2,0,0.3,0l0.2-0.1c0.2-0.1,0.3-0.3,0.2-0.5
	c11.4-0.1,22.8-0.3,34.3-0.5c-0.1,0.2-0.2,0.4-0.2,0.7C452.2,24.2,452.7,33.5,451.9,42.6z M464.2,11.6
	C464.2,11.7,464.2,11.7,464.2,11.6c-0.5,0.1-0.9,0.1-1.3,0.1c-1.7-1.8-3.6-4.3-3.1-5.8c-0.4-0.7-0.1-0.9,0.8-0.7
	c1-0.4,1.5,0,1.4,1.3c0.7,1.2,0.7,3.1,0.9,4.3C463.1,11.5,463.7,11.7,464.2,11.6C464.3,11.6,464.3,11.6,464.2,11.6z M465.1,11
	c0.1-0.1,0.1-0.3,0.1-0.4c0-1.2,0.4-5.4,2.2-5.8c1.3,0.7,2.6,1.3,3.9,2l-1.4,1.7C468.6,9.8,466.6,10,465.1,11z"/>
</svg>
