<?xml version="1.0" encoding="utf-8"?>
<!-- Generator: Adobe Illustrator 19.1.0, SVG Export Plug-In . SVG Version: 6.00 Build 0)  -->
<svg version="1.1" id="Слой_1" xmlns="http://www.w3.org/2000/svg" xmlns:xlink="http://www.w3.org/1999/xlink" x="0px" y="0px"
	 viewBox="0 0 351 304" style="enable-background:new 0 0 351 304;" xml:space="preserve">
<style type="text/css">
	.st0{fill:#CD96B2;}
	.st1{fill:#0D0F0F;}
</style>
<path class="st0" d="M349.9,219.8l0.3-48l-1.3-43.6l0.7-48.7l-0.3-33.8c0,0,0.7-29.6-0.7-34.8c-1.3-5.1-4.6-10-18.6-10.3
	s-63.1,1-63.1,1s-12.4-1-18.3-0.7c-5.9,0.2-16.7,0.2-23.2,0.5s-16.4-0.5-22.6,0s-27.5,0-27.5,0h-19.3c0,0-13.7-1.2-20.6-0.7
	s-36,0.5-41.2,0.5S67.6,0.5,67.6,0.5S61,1.3,55.4,1S31.6,1,31.6,1L18.8,1.3c0,0-7.5-1-10.5,1.7c0,0-7.9,3.2-7.9,10.5
	s1.3,77.6,1.3,77.6s0,20.6,0,21.3s0,72.7,0,72.7l-0.7,48.7L1.5,271l0.3,22.3c0,0,1.3,7.6,12.4,9.1c11.1,1.5,46.5,0.2,46.5,0.2
	l88.7,1h62.8l40.2-0.5l34.4-0.5l14.4,0.5l24.9-0.5c0,0,11.8,2.9,17-1.7c5.2-4.7,7.2-8.6,6.9-15.9
	C349.6,277.6,349.9,219.8,349.9,219.8z M292.3,293l-66.7,0.2c0,0-6.9-0.7-12.1-0.7s-18.6,1-18.6,1l-46.1,0.2l-37,1.2l-24.9-1.7
	l-30.8-0.7l-41.9,1l-0.7-14v-32.8l1-52.1l-0.7-45v-31.3l0.7-31.1l-1.3-30.4l1-44.3h41.6l42.9-0.2l30.8-0.2c0,0,9.8,1.2,12.1,1.2
	s14.1-1.2,14.1-1.2l13.7,0.2l41.9-1l28.1-0.2l29.1,2h20l46.5-0.5l0.7,18.8l0.7,15.2l-0.7,19.6l-1,55.1l0.7,79.5l0.3,50.2l1,42.1
	H292.3z"/>
<g transform="matrix( 1, 0, 0, 1, 0,0) ">
	<g>
		<g id="Layer2_10_FILL">
			<path class="st1" d="M336.5,0.8c-1.3-0.2-2.6-0.4-4.2-0.5l-28.4,0.1l-0.3,0l-6.8,0c-4.1,0.2-6.3,0.3-6.6,0.3c-0.5,0-1.2,0-1.9,0
				c-1.6,0.1-2.9,0.1-3.8,0.2L268,0.8c-2,0-3.2,0-3.8,0c-0.3,0-0.7-0.1-1.2-0.1l-3.8,0c-0.6-0.1-2.3-0.2-5.1-0.2
				c-2.1,0-4.5,0.1-7,0.2c0,0,0,0,0.1,0c-0.7,0-1.4,0.1-2.2,0.1l-7.3,0.2c0.1,0,0.3,0,0.4,0h-0.7c-2.1,0-2.7,0-1.8,0h-16.1
				c-1.6-0.1-2.5-0.1-2.6-0.2l-12.3-0.2c-1.4,0.1-2.2,0.1-2.5,0.2l-8.2,0c-0.1,0-0.4,0-0.8,0c-1.2,0-2.8,0.1-4.8,0h-8.3l-0.3,0h-5
				c-4.1,0.1-6.6,0.1-7.4,0.1l-0.1,0l-12.4-0.1c-0.5,0-2.2-0.2-5.2-0.3c-2.9-0.2-4.5-0.3-4.8-0.3l-8.4,0l-0.2,0c-0.3,0-0.5,0-0.5,0
				h-1.2l0,0h-2.2l0,0h-4.7l-0.3,0h-0.1l-0.9,0.1h-9.1c0,0,0,0-0.1,0h-0.8l0,0h-3.6l-0.3,0l-6.1,0.1c0,0-0.1,0-0.1,0l-0.1,0
				c0,0-0.1,0-0.1,0l-6,0l-0.3,0l-6.5,0c-2.7,0.1-4.1,0.2-4.3,0.2L86,0.5c0.8,0.1-0.1,0.1-2.6,0c-4.3-0.1-6.7-0.2-7.1-0.2H68
				c-1.4,0.1-2.7,0.2-3.7,0.2H55c-1.2,0-3.1-0.1-5.7-0.4C47.2,0,45.5,0,44.1,0l-4.3,0l-0.3,0.1l-3.2,0c-0.4,0.1-1.4,0.2-2.8,0.2
				l-3.2,0.1c-0.6,0-1.1,0-1.6,0c-1,0-2,0.1-2.9,0.2h-8.7c-1.3,0.1-2.2,0.3-2.7,0.3c-3.8,0.2-7.1,1.6-10.1,4
				c-2.7,2.2-4.1,4.3-4.1,6.2v0c0,0,0,0.1,0,0.1v0.1v0c0,0.1,0.1,0.3,0.1,0.4v3.7c0.1,0.3,0.2,0.7,0.3,1.4v8.7
				c0.2,1.7,0.2,2.9,0.2,3.7c0,1.1,0,1.9-0.1,2.4v5.2c-0.1,0.6-0.2,1.5-0.3,2.7v8.8C0.4,49.2,0.4,50,0.4,51c0,1.1,0,1.9,0.1,2.4v4
				c0,0.2-0.1,1.3-0.2,3.1c-0.1,1.7-0.1,2.8-0.1,3.3c0,0.2,0.1,2.9,0.2,8.4v5.7c0,0,0,0.1,0,0.1c-0.1,0.5-0.1,1.1,0,1.8
				c0,1.4,0.1,2.7,0.3,3.7c0.2,1,0.3,1.8,0.3,2.3c0,2-0.1,3.8-0.3,5.5c-0.2,1.7-0.3,4.1-0.3,7.3c0,0.1,0,0.9,0,2.5
				c0,1.7,0.1,3.1,0.2,3.9c0.3,2.7,0.4,4.8,0.4,6.5l-0.2,3.1v8.8c-0.2,1.8-0.3,3.4-0.3,4.7c0,0,0,0.5,0.1,1.3
				c0.1,0.4,0.1,0.6,0.2,0.8c0,0.2-0.1,0.4-0.1,0.6c0,0.4-0.1,1-0.2,1.9L1,143.4c0,1.2-0.1,2.6-0.2,4.2c-0.2,1.6-0.3,2.9-0.3,3.8
				c0,0.8,0.1,1.5,0.2,1.8v6.9l0.2,0.3v8.3c-0.1,0.9-0.1,1.7,0,2.6v3.7l-0.2,0.3v4.3c0.1,0.2,0.1,0.5,0.1,1v0c0,0.1,0,0.1,0,0.2
				c0,0.4,0.1,1.1,0.2,2.3c0.1,1.2,0.2,1.9,0.2,2.2c0,0.6,0,1.1-0.1,1.4v6c-0.2,2-0.2,3.6-0.2,4.6l0.2,8.8c0,2.2-0.2,5.4-0.5,9.6
				C0.2,220,0,223.2,0,225.3c0,0.6,0.1,1.7,0.2,3.3c0,0.3,0,1-0.1,2c0,0,0,0,0,0c0,0.1,0,0.2,0,0.3c0,0.3,0.1,1.3,0.3,3.2
				c0.2,1.9,0.3,3,0.4,3.5v7c0.2,1.7,0.4,3.3,0.4,5c0,0.8-0.2,2.8-0.5,6.1c-0.3,3.2-0.5,6-0.5,8.3c0,0,0,1,0.1,3
				c0.1,0.9,0.2,1.7,0.4,2.2c0,0.1,0,0.2,0,0.3c0,0.7,0,1.8-0.1,3.3c0,0.5,0,1.3,0.1,2.5c0.1,1.4,0.1,2.3,0.2,2.6v6.2
				c-0.2,1.7-0.3,3.6-0.2,5.9c0,0.6,0.1,1.1,0.1,1.5c0-0.3-0.1-0.3-0.1,0.2c0,0.5,0.2,1.5,0.6,2.8c0.4,1.4,1.1,2.6,2.1,3.6
				c2.4,2.7,5.6,4.2,9.7,4.5c2.5,0.7,5.2,1,8,0.9l6.5,0l0.3,0l5.2,0c0.4,0,2.3,0,5.6,0.1c0.5,0,1.1,0.1,1.8,0.2
				c0.6,0.1,1.4,0.1,2.4,0.1c1,0,1.5,0,1.7,0l3.3,0c0.1,0,2.3-0.2,6.6-0.4c0.2,0,0.3,0,0.4,0c2.2,0,3.5,0,3.9,0l4.1-0.2
				c2.8,0.1,5.3,0.3,7.3,0.3c1.5,0.1,2.7,0.1,3.5,0.1c0.8,0,1.9-0.1,3.3-0.2c1.7-0.2,2.5-0.3,2.7-0.3c1.8-0.1,3.3-0.1,4.4,0
				c0.3,0,1,0.1,2,0.2c1,0.1,2.3,0.2,4,0.3h5.9c0.1,0,0.3,0,0.8,0c1.4,0,3.1,0,5-0.1c1.9-0.1,3.4-0.2,4.5-0.4c2,0,3.7,0.1,5.3,0.2
				c2.8,0.1,5.5,0.2,8.3,0.2h14.8c1.5,0.1,2.7,0.1,3.5,0.2c0.8,0.1,1.8,0.1,3.1,0.1l4.9,0.1l7-0.1c0.2,0,1.3,0,3.4-0.1h5.8
				c0.5,0,1.4-0.1,2.7-0.2c1.9-0.1,3.2-0.2,4.2-0.2l9.7-0.1c1.7,0,2.9,0.1,3.7,0.2c0.8,0.2,2.2,0.2,4.3,0.2c1.3,0,2.2,0,2.8-0.1
				c0.5,0,1.9-0.1,4-0.3c-0.2,0-0.4,0-0.6,0h0.6v0c0.1,0,0.5,0,1.2,0c0.8,0,1.4,0,1.8,0c0.2,0,2,0.1,5.4,0.3c2,0,3.4,0.1,4.3,0.1
				l0.2,0h12.6l6.3-0.6l4,0c0.8,0,1.5,0,2-0.1c2.8,0.1,4.9,0.2,6.4,0.1l-0.4,0l3,0c0.1,0,0.6,0,1.7,0c1.2,0,2.2,0.1,2.9,0.3
				c2.5,0.2,4.1,0.4,5.1,0.4c0.6,0,1.2,0,2-0.1c0.8-0.1,1.8-0.1,3.2-0.2h5.3c2.2-0.1,3.5-0.2,3.9-0.3l19.9-0.3c-0.3,0,0,0,1,0
				c1.3,0,2.4,0.1,3.3,0.1c0.9,0.1,1.5,0.1,1.9,0.1c0.1,0,0.2,0,0.3,0c0.1,0,0.2,0,0.2,0c0.7,0.1,2.2,0.2,4.2,0.4l5.4,0.1l0.5-0.1
				l5.7,0c0.2,0,0.9-0.1,2-0.2l13.7-0.1c0.4,0,2.7,0.1,6.9,0.2c0.2,0,0.9,0.1,2,0.2c1.1,0.1,2.5,0.2,4.4,0.3c1,0,1.9-0.1,2.8-0.4
				c0.4-0.1,0.8-0.2,1.2-0.3c2.2-0.7,4.3-2.1,6.1-4c1.1-1.2,2.1-2.5,3-4.1c0.1-0.2,0.2-0.3,0.3-0.5c0.8-3.2,1.2-6,0.9-8.3
				c-0.1-0.6-0.1-1.7,0-3.4c0-0.6,0-2.1,0-4.4c0-2.1,0-3.6-0.1-4.7v-4.7c0.1-0.6,0.2-1,0.2-1.5c0-0.2,0-0.7,0-1.4
				c0.1-0.5,0.1-0.9,0-1.4c0-0.1,0-0.2-0.1-0.3v-9.5l0.1-0.2v-5.4c-0.1-0.7-0.1-1.5,0-2.3l-0.1-22.1c0.2-1.8,0.3-2.8,0.4-3.1
				c0-0.2,0-0.9,0-2.2c0-1.1-0.1-2.4-0.2-3.9c0-0.4-0.1-1.1-0.1-2v0c0,0,0-0.4,0-1c0-0.7,0-1.2-0.1-1.5v-5.8c-0.1-1-0.2-1.8-0.3-2.3
				v-10.4c-0.1-2.4-0.1-3.7-0.1-3.9c0-1.5,0.2-3.8,0.5-6.8c0.3-3,0.5-4.8,0.5-5.4c0-1.6,0-4,0-7.3c0-0.4,0-0.6,0-0.6
				c0-0.7,0-1.3-0.1-1.6v-2.5c-0.1-0.2-0.4-2.7-0.8-7.5v-5.3c-0.1-3-0.1-4.5-0.1-4.7c0-2.1,0-3.6,0.1-4.7v-7.6
				c0.2-0.9,0.2-1.7,0.2-2.5c0-0.8,0-1.3-0.1-1.7v-3.7c0,0,0,0,0,0c0.1-0.3,0.1-0.7,0.2-1.2c0-1.6,0-2.4,0-2.4l-0.2-7.5l0.2-10.4
				c0-2.5-0.1-4.8-0.2-6.8c-0.1-2.1-0.2-3.9-0.2-5.5c0-1.5,0-2.4,0-2.9c0-1.2,0.2-2.4,0.4-3.5v-7.1c0.1-0.4,0.2-1.1,0.2-2
				c0-0.6-0.1-1.3-0.2-2.3c-0.1-1-0.2-1.9-0.2-2.7c0-0.7-0.1-1.4-0.2-1.9c0,0.2,0,0.1,0-0.2c0-0.1,0-0.1,0-0.2c0,0,0,0,0,0
				c0-0.5,0-0.8,0-0.8v-7.5c0-0.1,0-0.2-0.1-0.3c0-0.6,0.1-1.7,0.1-3.1l-0.1-9.7c0-0.7,0.1-1.4,0.3-2.3v-5.9l0.1-0.1l0.1-5.4
				c0-0.1,0-0.1,0-0.2c0-0.2,0.1-0.6,0.1-1.4c0.1-0.9,0.1-1.5,0.1-1.7c0-1.1,0-1.8,0-2.1c0-0.5-0.1-1-0.2-1.5l-0.3-6.2v-9.4
				c-1-5-2.9-8.1-5.8-9.5c-2.8-1.4-5-2.2-6.4-2.4L336.5,0.8 M333.3,1.4c1.5,0,3.7,0.4,6.4,1.1c2.7,0.7,4.7,2.1,6,4.2
				c1.3,2.1,2.1,4.3,2.5,6.7c0-0.1,0-0.3,0-0.5l0.1,3.7c0,0.8,0,1.6,0,2.4c0,1.6,0.1,2.9,0.1,3.8l0.1,17.4l-0.1,0.4v5.8
				c-0.2,1-0.3,1.9-0.3,2.6l0.1,9.5c0,2.2,0,3.6,0,4.4v-0.6v6.9c0,0.2,0,0.4,0,0.7c0,0.8,0.1,2.1,0.3,3.9c0.1,0.9,0.2,1.7,0.3,2.3
				c0.1,0.3,0.1,0.8,0.1,1.6c0,0.8,0,1.4-0.1,1.8v7.9c-0.1,0.4-0.2,1.4-0.3,2.8c-0.1,1.4-0.1,2.4-0.1,3.1c0,0.1,0.1,1.7,0.2,4.9
				c0.1,3.4,0.2,5.9,0.2,7.4l-0.2,10.5c0,2.6,0.1,4.3,0.2,4.9v4.9c-0.1,1.4-0.2,2.2-0.2,2.5c0,0.3,0,0.2,0.1-0.5v3.2
				c0.1,0.9,0.1,2.3,0,4.2c-0.1,1.4-0.1,1.7-0.1,0.8v6.4c-0.1,1.1-0.2,2.7-0.2,4.9c0,0.6,0,1.3,0,1.9c0,1.3,0.1,2.3,0.1,3v5.4
				c0.4,3.1,0.6,5.1,0.8,5.9v4.1c0.1,0.3,0.2,0.7,0.2,1.3l0,7.5l0,0.4c0,0.6-0.2,2.3-0.5,5.1s-0.5,5.2-0.5,7.1c0,0.2,0,1.5,0.1,4
				v10.5c0.1,0.5,0.2,1.3,0.3,2.3v5.8c0,0.1,0.1,0.6,0.1,1.4c0,0.3,0.1,1.1,0.2,2.3c0.1,1.6,0.2,3,0.2,4.4c0,1.2,0,1.9,0,2.1
				c0,0.3-0.1,1.3-0.4,3.1l0.1,19.4c0-0.2,0-0.3,0.1-0.4c0-0.1,0,1.8-0.1,5.8v4.8l-0.1,0.2l-0.1,11c0,0.2,0.1,0.5,0.1,0.8
				c0,0.8-0.1,1.5-0.1,2.1c0,0.2,0,0.5-0.1,0.7c-0.1,0.6-0.1,1.3-0.1,2.2c0,1.3,0.1,2.2,0.2,2.8v8.2c-0.1,0.5-0.2,1.3-0.2,2.3
				c-0.1,1-0.1,1.8-0.2,2.2v5.7c0,0.3-0.4,1-0.9,2.2c-0.6,1.2-1.7,2.5-3.2,3.9c-1.6,1.4-3.7,2.6-6.5,3.6c0,0,0,0-0.1,0h-3.1
				c-0.7,0-1.7-0.1-3.1-0.3c-1-0.1-2.1-0.2-3.5-0.3l-19,0.2c-1.2,0.1-1.8,0.1-2,0.2l-8.3-0.1c-3.5-0.3-7.3-0.4-11.6-0.6l-23,0.3
				c-0.3,0-0.8,0.1-1.7,0.1c-0.8,0-2,0.1-3.5,0.1l-5.5,0.1c-2.8,0.1-5,0-6.6-0.1l-2.7-0.1c-2.2-0.1-3.4-0.2-3.6-0.2l-4.3-0.1l0.4,0
				l-11.3,0.1l-6.2,0.5l-17-0.1c-0.8-0.1-2.1-0.2-4-0.3h0.3c-2-0.1-3-0.1-3.2-0.1l-5.7,0.3c-0.7,0-1.6,0-2.7,0c-1.3,0-3-0.1-4.9-0.3
				c-1.6-0.2-3-0.2-4.4-0.1l-5.8,0.2c-1.5-0.1-2.3-0.2-2.5-0.2c-0.8,0-2.1,0.1-4,0.2c-1.6,0.1-2.6,0.2-2.8,0.2l-9.2,0
				c-0.2,0-1.8,0.1-4.8,0.1h-1.2c-0.1,0-0.5,0-1,0c-0.5,0-0.8,0-0.9,0l-3.6,0c-0.3,0-1.4-0.1-3.4-0.3c-1.5-0.1-2.7-0.1-3.6-0.1
				h-14.1c-4.8-0.1-7.4-0.2-7.9-0.3h-1.4c-1.2,0-2.8-0.1-4.8,0c-1.5,0.2-3,0.3-4.3,0.3c-1.4,0.1-2.1,0.1-2.3,0.1c-0.1,0-0.5,0-1.3,0
				l-8.4-0.1c-1.9-0.1-3.2-0.2-4-0.2l-2-0.2c-1-0.2-2.5-0.2-4.4,0c-0.8,0.1-1.5,0.2-2.2,0.3c-1.3,0.2-2.6,0.2-3.8,0.2l-7.4-0.5
				l-7.9-0.1c-0.2,0-0.3,0-0.5,0c-0.1,0-0.1,0-0.2,0c-0.1,0-0.1,0-0.2,0c-0.1,0-1,0-2.5,0.1c-1.5,0.1-3.9,0.3-7.2,0.6l-3.2,0
				c-0.4,0-0.9,0.1-1.7,0.1c-0.8,0-2.2-0.1-4.3-0.3l-4.6-0.1l-0.2,0l-5.9,0l-0.2,0l-6.4,0c-1.3,0-2.1,0-2.2,0c-0.1,0-0.2,0-0.2,0
				c0,0-1-0.2-3-0.6c-2-0.4-3.8-0.9-5.5-1.4c-3.1-1.1-5.2-2.2-6.3-3.5c-0.8-1.5-1.4-3.4-1.7-5.6v-3.6c-0.1-0.5-0.1-1.1-0.1-1.9
				c0-0.8,0.1-1.2,0.1-1.3v-6.8L2,276.5v-6.4c0-1.7-0.1-2.8-0.2-3.2c-0.1-0.6-0.2-1.6-0.2-3c0-1.3,0.2-3.8,0.5-7.6
				c0.3-3.7,0.5-6,0.5-6.7c0-1.9-0.1-3.6-0.4-5.2v-6.9c-0.3-1.2-0.4-2.5-0.4-4v-2c0-0.1,0-0.2-0.1-0.4c0,0,0-0.1,0-0.1l-0.3-5.7
				c0-1,0.2-3.9,0.5-8.8c0.3-4.9,0.5-8.4,0.5-10.3l-0.2-8.8L2.4,187c0.1-0.4,0.1-0.9,0.1-1.6c-0.1-1.4-0.1-2.4-0.1-3.1v-1.6
				c0,0,0-0.1,0-0.1c0-0.4-0.1-0.8-0.2-1.2v-3.7c0.1-0.2,0.1-0.4,0.1-0.7c0-0.3-0.1-0.5-0.1-0.6c0-2.4,0.1-4.2,0.2-5.4v-8.8
				l-0.2-0.3V153c-0.1-0.4-0.1-0.9-0.1-1.7c0-0.9,0.1-2.2,0.3-3.8c0.2-1.5,0.2-2.9,0.2-4.2c0-0.9-0.1-2.5-0.2-4.7
				c-0.1-2.2-0.2-3.8-0.2-4.8c0.1-1.7,0.1-3,0.1-3.8c0-0.1-0.1-0.2-0.2-0.3c0-0.2,0-0.2,0-0.3c-0.1-1.3-0.2-2.2-0.2-2.9
				c-0.1-1.2,0-2.2,0.3-2.9V115l0.2-3.3c0-1.9-0.1-3.8-0.2-5.8c-0.2-2-0.3-4.4-0.3-7.3c0-3,0.1-5.4,0.3-7.2c0.2-1.8,0.3-3.7,0.3-5.6
				c0-0.9-0.2-2.2-0.7-3.7v-4.8c0,0,0,0-0.1-0.1c0-0.2,0-0.3,0.1-0.5c0-1.1,0-1.7,0-1.8L1.7,63.9L2,55.5c0-1.2,0-2-0.1-2.6v-3.7
				L2,48.9v-8.9c0.1-1.2,0.2-2.1,0.3-2.7v-5.2c0.1-0.6,0.1-1.5,0.1-2.6c0-0.9-0.1-2.2-0.2-4V17C2,16.3,2,15.8,1.9,15.4v-3.9
				c0.4-0.5,0.7-1.1,1-1.9c0.6-1.6,1.2-2.6,1.9-3.2c2-1.8,4.1-3.1,6.2-3.9c0.8-0.1,2.3-0.3,4.6-0.6l18-0.4c0.7-0.1,1.6-0.2,2.8-0.3
				l3.1,0l0.4-0.1l4.2,0c0.4,0,1-0.1,1.8-0.1c1.3,0,2.8,0,4.4,0.1c2,0.1,4.1,0.2,6.2,0.4h7.8c0.3,0,0.9-0.1,1.9-0.1
				c0.9,0,1.5-0.1,1.8-0.2h8.2c5.3,0.2,7.7,0.3,7.1,0.2c1.3,0.1,3.1,0.1,5.4,0.1c0.2,0,1.6-0.1,4.3-0.2l6.5,0l0.3,0l7.6,0l0.3,0
				l5.1,0l0.3,0h3.3l0.3,0h9.6c0.2,0,0.6-0.1,1.4-0.1l3.7-0.1c0.2,0.1,0.5,0.1,0.9,0.1l3.7,0l0.5,0.1l8.4,0
				c5.1,0.3,8.4,0.5,10.1,0.7l7.4,0l0.5,0.1h4.6l0.4-0.1l3.3,0l0.3,0h8.5l0.3,0h8.2c1,0,1.9,0,2.6,0c0.1,0,0.1,0,0.2,0
				c0.1,0,0.2,0,0.3,0c0.1,0,0.2,0,0.3,0l10.2-0.1c0.2,0,1.1-0.1,2.6-0.2h7.9c0.1,0,0.5,0.1,1.2,0.2l5.9,0.2h14.5
				c3.5-0.1,5.7-0.2,6.8-0.3l2-0.1c0,0,0,0,0.1,0c0.6,0,1,0,1.1,0h1.3c2.2-0.2,4.5-0.4,7.1-0.4c2.9,0,5.6,0.1,8,0.4h2.6
				c0.6,0,1.2,0,1.7,0.1c0.6,0.1,1.6,0.1,3.1,0.1L281.9,2c1.3,0,3.5,0,6.4-0.1l5.5-0.1c0.9,0,1.9-0.1,3.2-0.2l35.2-0.2
				c0,0-0.1,0-0.2,0L333.3,1.4z"/>
		</g>
	</g>
</g>
<g transform="matrix( 1, 0, 0, 1, 0,0) ">
	<g>
		<g id="Layer2_10_MEMBER_0_FILL">
			<path class="st1" d="M336,11.7C336,11.7,336.1,11.7,336,11.7l-2.8,0.2l-5.1-0.1c-0.2,0.1-3.1,0.1-8.8,0.2c-5.3,0.1-13,0.1-23,0.2
				c-0.4,0.1-9.7,0.2-27.8,0.3c-0.2-0.1-2.5-0.2-6.9-0.4c-1.5-0.2-5.6-0.5-12.4-0.9c-6.1-0.4-9.3-0.6-9.6-0.7l-16.4-0.1
				c0,0.1-0.2,0.1-0.7,0.2l-15,0.2c-0.5,0.1-7,0.2-19.6,0.4c-0.1,0-4,0.2-11.5,0.4l-20.8,0c-0.4,0.2-3,0.3-7.6,0.6
				c-3.9,0.2-8.2,0.3-12.9,0.5c-0.1-0.1-0.8-0.2-2.1-0.3c-1.3-0.1-2-0.2-2.1-0.3l-9.9-0.2c-0.2-0.1-4-0.2-11.4-0.3
				c0,0.1-0.2,0.1-0.5,0.2l-78,0.2c-0.3,0-0.5-0.1-0.6,0c-0.1,0-0.1,0.1-0.1,0.1c-3.6-0.2-9.1-0.3-16.5-0.5c0,0-0.1-0.1-0.1,0
				c-0.1,0-0.1,0.3-0.1,0.6c0,0.4,0.1,0.6,0.2,0.6c0.1,0,0.1,0,0.2-0.1c5.9,0.3,11.6,0.4,17.2,0.4c0,0,0,0,0,0l77.8,0.1
				c0.2-0.1,2.1-0.1,5.8-0.2c1.8,0,3.6-0.1,5.4-0.1c0.1,0.1,1.8,0.2,5.2,0.3c1.7,0,3.4,0.1,5.1,0.1c0.1,0.1,0.8,0.2,2.1,0.3
				c0.6,0,1.3,0.1,1.9,0.1c0.1,0.1,1.6,0.1,4.4,0.2c2.2,0,3.9,0.1,5.1,0.1c0.7,0,2.8-0.1,6.4-0.4c3.7-0.3,5.6-0.4,5.9-0.5l33.8-0.2
				c0.2,0,0.3,0,0.6,0.1c0.1,0,3.6-0.2,10.5-0.5h5.1c0.3-0.1,3-0.2,8.1-0.3c2.6,0,5.1-0.1,7.6-0.1c0.3-0.1,3.3-0.1,9-0.2
				c2.9,0,5.7-0.1,8.5-0.1c0.3,0.2,3.5,0.5,9.8,0.9c5.8,0.4,9.7,0.5,11.7,0.6c0.1,0.1,1.3,0.2,3.5,0.3c1.1,0,2.2,0.1,3.3,0.1
				c0.1,0.1,4.7,0.1,13.9,0.2c4.6,0,9.1,0.1,13.7,0.1c0.3-0.1,5.7-0.2,16.4-0.3c2.7,0,5.3,0,7.6,0c2.2,0,4.3,0,6.2,0
				c3.9,0,6.9-0.1,9-0.3c0.1,0,0.2,0,0.3,0c0,0.2,0,0.5-0.1,0.8c-0.1,1-0.1,2.7-0.1,5c0,1,0.1,3.5,0.2,7.5c0,0.4,0,0.9,0.1,1.4
				c0,0.6,0,1-0.1,1.3v5.9c0.1,0.6,0.2,1.8,0.3,3.6c0.1,2.1,0.2,3.5,0.2,4.3c0,0,0,1.3,0,3.7c0,0.5,0,0.9,0.1,1.3c0,0.6,0,1.2,0,1.7
				c0,0.6-0.2,5.4-0.5,14.4c-0.3,9.9-0.5,17.3-0.5,22.1v60c0.4,3.7,0.6,9.3,0.4,17l-0.1,6.8c0.1-1.3,0.2,1.6,0.3,8.7
				c0.2,8,0.2,14.2,0,18.6c-0.2,3.3-0.4,7.9-0.6,13.9c-0.2,6-0.1,10.8,0.1,14.5c0.2,3.7,0.5,13.8,0.6,30.5
				c0.2,16.7,0.2,27.1,0.1,31.1c-0.2,4.1,0.3,6,1.3,5.8l1-0.2c-1.1-2.7-1.4-7.5-0.8-14.4c0.6-6.9,0.6-16.8,0-29.6
				c-0.5-12.8-0.9-19.7-1.1-20.7c-0.1-1,0-9.8,0.5-26.5c0.5-16.6,0.6-29.3,0.5-37.9c-0.1-8.6-0.4-14.7-0.8-18.4V86.5
				c0.3-3.3,0.5-8.3,0.5-15.1s0.2-11.8,0.5-15.1V50c0,0,0.1-0.1,0.1-0.2c0-0.1,0.1-0.3,0.1-0.7l-0.2-11.2c-0.1,0.3-0.1,0.7-0.2,1
				c0-0.8-0.1-1.6-0.1-2.4c-0.1-2.6-0.2-4.1-0.2-4.6l0.1-4c0-0.4,0-0.9,0-1.6c0-0.3,0-0.5-0.1-0.8c-0.1-1-0.2-1.5-0.2-1.6
				c0.1-2.1,0.1-3.6,0-4.6V11.7z"/>
		</g>
	</g>
</g>
<g transform="matrix( 1, 0, 0, 1, 0,0) ">
	<g>
		<g id="Layer2_10_MEMBER_1_FILL">
			<path class="st1" d="M335.7,292.9c-0.1,0-0.1,0-0.2,0.1c-7.3-0.4-12.9-0.7-16.7-0.9c-0.1,0.2-0.3,0.3-0.5,0.5l-77.8-0.1
				c-0.2,0.1-2.1,0.1-5.8,0.2c-1.8,0-3.6,0.1-5.4,0.1c-0.1-0.1-1.8-0.2-5.2-0.3c-1.7,0-3.4-0.1-5.1-0.1c-0.1-0.1-0.8-0.2-2.1-0.3
				c-0.6,0-1.3-0.1-1.9-0.1c-0.1-0.1-1.6-0.1-4.4-0.2c-2.2,0-3.9-0.1-5.1-0.1c-0.7,0-2.8,0.1-6.4,0.4c-3.7,0.3-5.6,0.4-5.9,0.5
				l-33.8,0.2c-0.2,0-0.3,0-0.6-0.1c-0.1,0-3.6,0.2-10.5,0.5h-5.1c-0.3,0.1-3,0.2-8.1,0.3c-2.6,0-5.1,0.1-7.6,0.1
				c-0.3,0.1-3.3,0.1-9,0.2c-2.9,0-5.7,0.1-8.5,0.1c-0.3-0.2-3.5-0.5-9.8-0.9c-5.8-0.4-9.7-0.5-11.7-0.6c-0.1-0.1-1.3-0.2-3.5-0.3
				c-1.1,0-2.2-0.1-3.3-0.1c-0.1-0.1-4.7-0.1-13.9-0.2c-4.6,0-9.1-0.1-13.7-0.1c-0.3,0.1-5.7,0.2-16.4,0.3c-2.7,0-5.3,0-7.6,0
				c-2.2,0-4.3,0-6.2,0c-3.9,0-6.9,0.1-9,0.3c-0.1,0-0.2,0-0.3,0c0-0.2,0.1-0.5,0.1-0.8c0.1-1,0.1-2.7,0.1-5c0-1-0.1-3.5-0.2-7.5
				c0-0.4,0-0.9,0-1.4c0-0.6,0-1,0.1-1.3v-5.9c-0.1-0.6-0.2-1.8-0.3-3.6c-0.1-2.1-0.2-3.5-0.2-4.3c0,0,0-1.3,0-3.7
				c0-0.5-0.1-0.9-0.1-1.3c0-0.6,0.1-1.2,0.1-1.7c0-0.6,0.2-5.4,0.5-14.4c0.3-9.9,0.5-17.3,0.5-22.1v-60c-0.4-3.7-0.6-9.3-0.4-17
				l0.1-6.8c-0.1,1.3-0.2-1.6-0.3-8.7c-0.1-8-0.1-14.2,0-18.6c0.2-3.3,0.4-7.9,0.6-13.9c0.2-6,0.2-10.8-0.1-14.5
				c-0.2-3.7-0.5-13.8-0.7-30.5c-0.2-16.7,0.1-27.3,0.9-32c0.7-4.6,0-6.6-2.3-5.9h-0.3c0.6,3.4,0.7,8.6,0.1,15.5
				c-0.6,6.9-0.6,16.8,0,29.6c0.6,12.8,0.9,19.7,1.1,20.7c0.2,1,0,9.8-0.5,26.5c-0.5,16.6-0.6,29.3-0.5,37.9
				c0.1,8.6,0.4,14.7,0.8,18.4v58.9c-0.3,3.3-0.5,8.3-0.5,15.1c0,6.8-0.2,11.8-0.5,15.1v6.3c0,0-0.1,0.1-0.1,0.2
				c0,0.1-0.1,0.3-0.1,0.7l0.2,11.2c0.1-0.3,0.1-0.6,0.2-1c0,0.8,0.1,1.6,0.1,2.4c0.1,2.6,0.2,4.1,0.2,4.6l-0.1,4c0,0.4,0,0.9,0,1.6
				c0,0.3,0,0.5,0.1,0.8c0.1,1,0.2,1.5,0.2,1.6c-0.1,2.1-0.1,3.6,0,4.6v7.5c0,0,0,0-0.1,0l2.9-0.2l5.1,0.1c0.2-0.1,3.1-0.1,8.8-0.2
				c5.3,0,13-0.1,23-0.2c0.4-0.1,9.7-0.2,27.8-0.3c0.2,0.1,2.5,0.2,6.9,0.4c1.5,0.2,5.6,0.5,12.4,0.9c6.1,0.4,9.3,0.6,9.6,0.7
				l16.4,0.1c0-0.1,0.2-0.1,0.7-0.2l15-0.2c0.5-0.1,7-0.2,19.6-0.4c0.1,0,4-0.2,11.5-0.4l20.9,0.1c0.4-0.2,3-0.3,7.6-0.6
				c3.9-0.2,8.2-0.3,12.9-0.5c0.1,0.1,0.8,0.2,2.1,0.3s2,0.2,2.1,0.3l9.9,0.2c0.2,0.1,4,0.2,11.4,0.3c0-0.1,0.2-0.1,0.5-0.2l78-0.2
				c0.3,0,0.5,0.1,0.6,0c0.1,0,0.1-0.1,0.1-0.1c3.6,0.2,9.1,0.3,16.5,0.5c0,0,0.1,0.1,0.1,0c0.1,0,0.1-0.3,0.1-0.6
				C335.9,293.1,335.8,292.9,335.7,292.9z"/>
		</g>
	</g>
</g>
</svg>
